<svg width="67" height="67" viewBox="0 0 67 67" fill="none" xmlns="http://www.w3.org/2000/svg">
<path d="M54.9992 14.5247V59.696C54.9992 60.7738 54.1311 61.6417 53.0529 61.6417H17.208C16.1298 61.6417 15.2617 60.7738 15.2617 59.696V7.94571C15.2617 6.86787 16.1298 6 17.208 6H46.472L54.9992 14.5247Z" fill="white"/>
<path d="M54.9984 14.5244V59.6957C54.9984 60.7735 54.1303 61.6414 53.0522 61.6414H50.2798C51.3579 61.6414 52.2261 60.7735 52.2261 59.6957V14.5244L43.7129 6.01367H46.4853L54.9984 14.5244Z" fill="#E5E5E5"/>
<path d="M54.9998 14.5244H48.4189C47.3408 14.5244 46.4727 13.6565 46.4727 12.5787V6.01367L54.9998 14.5244Z" fill="#CECECE"/>
<path d="M46.7944 18.8647H23.7052C22.9211 18.8647 22.291 18.2348 22.291 17.4509C22.291 16.667 22.9211 16.0371 23.7052 16.0371H46.7804C47.5645 16.0371 48.1946 16.667 48.1946 17.4509C48.1946 18.2348 47.5645 18.8647 46.7944 18.8647Z" fill="#CECECE"/>
<path d="M46.7944 26.101H23.7052C22.9211 26.101 22.291 25.4711 22.291 24.6872C22.291 23.9033 22.9211 23.2734 23.7052 23.2734H46.7804C47.5645 23.2734 48.1946 23.9033 48.1946 24.6872C48.1946 25.4711 47.5645 26.101 46.7944 26.101Z" fill="#CECECE"/>
<path d="M46.7944 33.3237H23.7052C22.9211 33.3237 22.291 32.6938 22.291 31.9099C22.291 31.126 22.9211 30.4961 23.7052 30.4961H46.7804C47.5645 30.4961 48.1946 31.126 48.1946 31.9099C48.1946 32.6938 47.5645 33.3237 46.7944 33.3237Z" fill="#CECECE"/>
<path d="M46.7944 40.2944H23.7052C22.9211 40.2944 22.291 39.6645 22.291 38.8806C22.291 38.0967 22.9211 37.4668 23.7052 37.4668H46.7804C47.5645 37.4668 48.1946 38.0967 48.1946 38.8806C48.1946 39.6645 47.5645 40.2944 46.7944 40.2944Z" fill="#CECECE"/>
<path d="M46.7944 47.517H23.7052C22.9211 47.517 22.291 46.8871 22.291 46.1032C22.291 45.3194 22.9211 44.6895 23.7052 44.6895H46.7804C47.5645 44.6895 48.1946 45.3194 48.1946 46.1032C48.1946 46.8871 47.5645 47.517 46.7944 47.517Z" fill="#CECECE"/>
<path d="M46.7944 54.7553H23.7052C22.9211 54.7553 22.291 54.1254 22.291 53.3415C22.291 52.5576 22.9211 51.9277 23.7052 51.9277H46.7804C47.5645 51.9277 48.1946 52.5576 48.1946 53.3415C48.1946 54.1254 47.5645 54.7553 46.7944 54.7553Z" fill="#CECECE"/>
<path d="M31.5187 25.0234H12V17.1286C12 16.5267 12.4761 16.0508 13.0781 16.0508H31.5187C32.1208 16.0508 32.5968 16.5267 32.5968 17.1286V23.9456C32.5968 24.5475 32.1068 25.0234 31.5187 25.0234Z" fill="#0095C4"/>
<path d="M32.5968 23.8056V23.9456C32.5968 24.5475 32.1068 25.0234 31.5187 25.0234H12V17.1286C12 16.5267 12.4901 16.0508 13.0781 16.0508H13.6382V18.8504C13.6382 21.58 15.8505 23.8056 18.5949 23.8056H32.5968Z" fill="#0095DB"/>
<path d="M12 25.0234L15.2624 28.7469V25.0234H12Z" fill="#3267B2"/>
<path d="M29.3617 27.655H15.2617V25.0234H31.56V25.4434C31.56 26.6612 30.5798 27.655 29.3617 27.655Z" fill="#E5E5E5"/>
<path d="M13.8086 23.077V22.2651H14.5367V19.0736H13.8086V18.2617H16.0909C16.567 18.2617 16.959 18.2897 17.2531 18.3457C17.5471 18.4017 17.8271 18.5417 18.0932 18.7376C18.3592 18.9336 18.5832 19.2136 18.7373 19.5495C18.9053 19.8855 18.9753 20.2634 18.9753 20.6834C18.9753 21.0193 18.9193 21.3413 18.8073 21.6492C18.6953 21.9572 18.5552 22.1951 18.3872 22.3911C18.2192 22.5731 18.0232 22.7271 17.7851 22.839C17.5471 22.951 17.3371 23.021 17.1411 23.049C16.945 23.077 16.637 23.091 16.2309 23.091H13.8086V23.077ZM15.7829 22.2651H16.0909C16.455 22.2651 16.749 22.2231 16.959 22.1251C17.1691 22.0272 17.3511 21.8592 17.4771 21.6212C17.6031 21.3833 17.6731 21.0753 17.6731 20.6834C17.6731 20.3194 17.6031 19.9975 17.4771 19.7455C17.3511 19.4935 17.1691 19.3116 16.945 19.2136C16.721 19.1156 16.441 19.0736 16.0909 19.0736H15.7829V22.2651V22.2651Z" fill="white"/>
<path d="M22.3759 18.1641C23.202 18.1641 23.8601 18.402 24.3361 18.892C24.8122 19.3679 25.0502 19.9558 25.0502 20.6557C25.0502 21.3556 24.8122 21.9435 24.3361 22.4194C23.8601 22.8954 23.202 23.1333 22.3759 23.1333C21.5077 23.1333 20.8497 22.8814 20.3876 22.3914C19.9255 21.9015 19.6875 21.3136 19.6875 20.6557C19.6875 19.9698 19.9255 19.3819 20.4016 18.892C20.8777 18.416 21.5358 18.1641 22.3759 18.1641ZM22.3759 19.0459C22.0118 19.0459 21.6898 19.1859 21.4377 19.4659C21.1857 19.7458 21.0457 20.1518 21.0457 20.6837C21.0457 21.1596 21.1717 21.5376 21.4237 21.8175C21.6758 22.0975 21.9978 22.2375 22.3759 22.2375C22.7399 22.2375 23.062 22.0975 23.314 21.8175C23.58 21.5376 23.7061 21.1316 23.7061 20.6137C23.7061 20.1378 23.58 19.7598 23.328 19.4659C23.076 19.1999 22.7679 19.0459 22.3759 19.0459Z" fill="white"/>
<path d="M29.7558 18.2484H30.568V19.9421H29.7558C29.5178 19.3262 29.1258 19.0323 28.5517 19.0323C28.0756 19.0323 27.7256 19.1862 27.4875 19.5082C27.2495 19.8301 27.1235 20.2081 27.1235 20.67C27.1235 21.1459 27.2495 21.5239 27.5015 21.8038C27.7536 22.0978 28.0896 22.2378 28.4817 22.2378C28.8037 22.2378 29.0837 22.1258 29.3358 21.9018C29.5738 21.6779 29.7418 21.3699 29.8259 20.992L30.778 21.4399C30.4139 22.5597 29.6158 23.1196 28.3977 23.1196C27.5295 23.1196 26.8714 22.8817 26.4374 22.4198C26.0033 21.9578 25.7793 21.3559 25.7793 20.642C25.7793 20.1381 25.8913 19.6902 26.1293 19.3122C26.3534 18.9343 26.6614 18.6403 27.0535 18.4443C27.4455 18.2484 27.8656 18.1504 28.3276 18.1504C28.9017 18.1504 29.3918 18.3044 29.7698 18.5983V18.2484H29.7558Z" fill="white"/>
</svg>
