<svg width="67" height="67" viewBox="0 0 67 67" fill="none" xmlns="http://www.w3.org/2000/svg">
<path d="M54.9992 14.5247V59.696C54.9992 60.7738 54.1311 61.6417 53.0529 61.6417H17.208C16.1298 61.6417 15.2617 60.7738 15.2617 59.696V7.94571C15.2617 6.86787 16.1298 6 17.208 6H46.472L54.9992 14.5247Z" fill="white"/>
<path d="M54.9984 14.5244V59.6957C54.9984 60.7735 54.1303 61.6414 53.0522 61.6414H50.2798C51.3579 61.6414 52.2261 60.7735 52.2261 59.6957V14.5244L43.7129 6.01367H46.4853L54.9984 14.5244Z" fill="#E5E5E5"/>
<path d="M54.9998 14.5244H48.4189C47.3408 14.5244 46.4727 13.6565 46.4727 12.5787V6.01367L54.9998 14.5244Z" fill="#CECECE"/>
<path d="M31.5187 25.0234H12V17.1286C12 16.5267 12.4761 16.0508 13.0781 16.0508H31.5187C32.1208 16.0508 32.5968 16.5267 32.5968 17.1286V23.9456C32.5968 24.5475 32.1068 25.0234 31.5187 25.0234Z" fill="#61BA52"/>
<path d="M32.5968 23.8056V23.9456C32.5968 24.5475 32.1068 25.0234 31.5187 25.0234H12V17.1286C12 16.5267 12.4901 16.0508 13.0781 16.0508H13.6382V18.8504C13.6382 21.58 15.8505 23.8056 18.5949 23.8056H32.5968Z" fill="#6EC85F"/>
<path d="M12 25.0234L15.2624 28.7469V25.0234H12Z" fill="#327D25"/>
<path d="M29.3617 27.655H15.2617V25.0234H31.56V25.4434C31.56 26.6612 30.5798 27.655 29.3617 27.655Z" fill="#E5E5E5"/>
<path d="M18.6431 18.9254H18.1595V21.5448C18.1595 22.0323 18.0117 22.398 17.7162 22.6418C17.426 22.8806 17.0445 23 16.5717 23C16.1257 23 15.7791 22.908 15.532 22.7239C15.2902 22.5398 15.1128 22.3259 15 22.0821L15.7576 21.5522C15.849 21.7711 15.9564 21.9129 16.08 21.9776C16.209 22.0423 16.338 22.0746 16.4669 22.0746C16.6872 22.0746 16.843 22.0249 16.9344 21.9254C17.0311 21.8259 17.0795 21.7015 17.0795 21.5522V18.9254H16.1606V18.0746H18.6431V18.9254Z" fill="white"/>
<path d="M23.5865 19.6567C23.5865 20.209 23.3904 20.6219 22.9981 20.8955C22.6112 21.1642 22.1599 21.2985 21.644 21.2985H20.838V22.0746H21.644V22.9254H19.1938V22.0746H19.758V18.9254H19.1938V18.0746H21.5957C22.2458 18.0746 22.7402 18.2164 23.0787 18.5C23.4172 18.7836 23.5865 19.1692 23.5865 19.6567ZM22.4259 19.6716C22.4259 19.4328 22.3533 19.2488 22.2082 19.1194C22.0685 18.99 21.8187 18.9254 21.4587 18.9254H20.838V20.4552H21.4425C21.8133 20.4552 22.0685 20.3831 22.2082 20.2388C22.3533 20.0945 22.4259 19.9055 22.4259 19.6716Z" fill="white"/>
<path d="M29 21.0896H28.7421V22.9254H27.9038L27.7991 22.4179C27.6379 22.592 27.431 22.7338 27.1785 22.8433C26.9313 22.9478 26.6384 23 26.2999 23C25.5638 23 24.9781 22.7637 24.5429 22.291C24.113 21.8184 23.8981 21.2338 23.8981 20.5373C23.8981 19.8408 24.1264 19.2438 24.5832 18.7463C25.0399 18.2488 25.7115 18 26.5981 18C27.0226 18 27.4068 18.0572 27.7507 18.1716C28.1 18.2861 28.3606 18.4229 28.5325 18.5821L28.6776 19.6343L27.8071 19.709L27.662 19.1418C27.5223 19.0572 27.345 18.9925 27.1301 18.9478C26.9205 18.903 26.7271 18.8806 26.5498 18.8806C26.1199 18.8806 25.7626 19.0149 25.4778 19.2836C25.1984 19.5522 25.0587 19.9652 25.0587 20.5224C25.0587 21.0597 25.1903 21.4602 25.4536 21.7239C25.7223 21.9876 26.0689 22.1194 26.4934 22.1194C26.848 22.1194 27.1301 22.0323 27.3397 21.8582C27.5492 21.6841 27.654 21.4378 27.654 21.1194V21.0896H26.6304V20.2463H29V21.0896Z" fill="white"/>
<path d="M18.6431 18.9254H18.1595V21.5448C18.1595 22.0323 18.0117 22.398 17.7162 22.6418C17.426 22.8806 17.0445 23 16.5717 23C16.1257 23 15.7791 22.908 15.532 22.7239C15.2902 22.5398 15.1128 22.3259 15 22.0821L15.7576 21.5522C15.849 21.7711 15.9564 21.9129 16.08 21.9776C16.209 22.0423 16.338 22.0746 16.4669 22.0746C16.6872 22.0746 16.843 22.0249 16.9344 21.9254C17.0311 21.8259 17.0795 21.7015 17.0795 21.5522V18.9254H16.1606V18.0746H18.6431V18.9254Z" stroke="white" stroke-width="0.1"/>
<path d="M23.5865 19.6567C23.5865 20.209 23.3904 20.6219 22.9981 20.8955C22.6112 21.1642 22.1599 21.2985 21.644 21.2985H20.838V22.0746H21.644V22.9254H19.1938V22.0746H19.758V18.9254H19.1938V18.0746H21.5957C22.2458 18.0746 22.7402 18.2164 23.0787 18.5C23.4172 18.7836 23.5865 19.1692 23.5865 19.6567ZM22.4259 19.6716C22.4259 19.4328 22.3533 19.2488 22.2082 19.1194C22.0685 18.99 21.8187 18.9254 21.4587 18.9254H20.838V20.4552H21.4425C21.8133 20.4552 22.0685 20.3831 22.2082 20.2388C22.3533 20.0945 22.4259 19.9055 22.4259 19.6716Z" stroke="white" stroke-width="0.1"/>
<path d="M29 21.0896H28.7421V22.9254H27.9038L27.7991 22.4179C27.6379 22.592 27.431 22.7338 27.1785 22.8433C26.9313 22.9478 26.6384 23 26.2999 23C25.5638 23 24.9781 22.7637 24.5429 22.291C24.113 21.8184 23.8981 21.2338 23.8981 20.5373C23.8981 19.8408 24.1264 19.2438 24.5832 18.7463C25.0399 18.2488 25.7115 18 26.5981 18C27.0226 18 27.4068 18.0572 27.7507 18.1716C28.1 18.2861 28.3606 18.4229 28.5325 18.5821L28.6776 19.6343L27.8071 19.709L27.662 19.1418C27.5223 19.0572 27.345 18.9925 27.1301 18.9478C26.9205 18.903 26.7271 18.8806 26.5498 18.8806C26.1199 18.8806 25.7626 19.0149 25.4778 19.2836C25.1984 19.5522 25.0587 19.9652 25.0587 20.5224C25.0587 21.0597 25.1903 21.4602 25.4536 21.7239C25.7223 21.9876 26.0689 22.1194 26.4934 22.1194C26.848 22.1194 27.1301 22.0323 27.3397 21.8582C27.5492 21.6841 27.654 21.4378 27.654 21.1194V21.0896H26.6304V20.2463H29V21.0896Z" stroke="white" stroke-width="0.1"/>
<path fill-rule="evenodd" clip-rule="evenodd" d="M46.6205 33.3795C46.0582 32.8172 45.2958 32.5009 44.5005 32.5H24.4995C23.7042 32.5009 22.9418 32.8172 22.3795 33.3795C21.8172 33.9418 21.5009 34.7048 21.5 35.5V48.8339C21.5009 49.6291 21.8172 50.3915 22.3795 50.9539C22.9418 51.5162 23.7048 51.8325 24.5 51.8333H44.5005C45.2958 51.8325 46.0582 51.5162 46.6205 50.9539C47.1828 50.3915 47.4991 49.6286 47.5 48.8333V35.4994C47.4991 34.7042 47.1828 33.9418 46.6205 33.3795ZM25.9855 42.1693L25.9958 42.1713C28.4676 42.7293 30.7375 43.9507 32.563 45.7004C31.7354 46.7691 31.038 47.9327 30.4855 49.1667L24.5003 49.1667C24.4119 49.1666 24.327 49.1314 24.2645 49.0689C24.2019 49.0063 24.1667 48.9215 24.1667 48.833V41.8817C24.7673 41.9362 25.3638 42.0301 25.9525 42.1629L25.9658 42.1659L25.9792 42.1681L25.9855 42.1693ZM26.4556 40.054L26.455 40.0555L26.4556 40.0556V40.054ZM24.1667 39.2165C24.7666 39.2603 25.3638 39.3364 25.9556 39.4444V39.4302L26.5644 39.566C27.2234 39.713 27.8726 39.9001 28.5084 40.1262C28.8989 38.976 29.6139 37.9584 30.5724 37.1995C31.6782 36.3242 33.0447 35.8434 34.455 35.8335C35.8653 35.8236 37.2384 36.2852 38.3564 37.145C39.3298 37.8936 40.0611 38.9067 40.4665 40.0576C41.8773 39.5813 43.3464 39.2987 44.8333 39.2177L44.8333 35.5003C44.8333 35.4119 44.7981 35.327 44.7355 35.2645C44.673 35.2019 44.5881 35.1667 44.4997 35.1667H24.5003C24.4119 35.1667 24.327 35.2019 24.2645 35.2645C24.2019 35.327 24.1667 35.4118 24.1667 35.5003V39.2165ZM34.3619 43.733C33.3409 42.7658 32.2018 41.9312 30.9715 41.2491C31.1523 40.5322 31.548 39.8845 32.1095 39.3952C32.7585 38.8298 33.5869 38.5127 34.4477 38.5004C35.3084 38.4881 36.1456 38.7813 36.8105 39.3279C37.3811 39.797 37.7931 40.4267 37.996 41.131C36.6747 41.8337 35.4526 42.7087 34.3619 43.733ZM44.8333 48.833C44.8333 48.9215 44.7981 49.0063 44.7355 49.0689C44.673 49.1314 44.5881 49.1666 44.4997 49.1667H33.4501C34.5612 47.1438 36.1542 45.4207 38.0927 44.1533C40.1116 42.8334 42.4328 42.055 44.8333 41.8885V48.833Z" fill="#CECECE"/>
</svg>
