<svg width="67" height="67" viewBox="0 0 67 67" fill="none" xmlns="http://www.w3.org/2000/svg">
<path d="M54.9978 14.5072V59.6768C54.9978 60.7472 54.1243 61.6205 53.0536 61.6205H17.2118C16.1411 61.6205 15.2676 60.7472 15.2676 59.6768V7.94369C15.2676 6.87325 16.1411 6 17.2118 6H46.4741L54.9978 14.5072Z" fill="white"/>
<path d="M54.9999 14.5072V59.6768C54.9999 60.7472 54.1264 61.6205 53.0557 61.6205H50.2802C51.3509 61.6205 52.2244 60.7472 52.2244 59.6768V14.5072L43.7148 6H46.4903L54.9999 14.5072Z" fill="#E5E5E5"/>
<path d="M54.9983 14.5072H48.4189C47.3481 14.5072 46.4746 13.6339 46.4746 12.5635V6L54.9983 14.5072Z" fill="#CECECE"/>
<path d="M46.7851 32.3384H23.7077C22.9328 32.3384 22.2988 31.7046 22.2988 30.93C22.2988 30.1553 22.9328 29.5215 23.7077 29.5215H46.7851C47.5599 29.5215 48.1939 30.1553 48.1939 30.93C48.1939 31.7187 47.574 32.3384 46.7851 32.3384Z" fill="#CECECE"/>
<path d="M46.787 39.563H23.7097C22.9348 39.563 22.3008 38.9292 22.3008 38.1546C22.3008 37.3799 22.9348 36.7461 23.7097 36.7461H46.787C47.5619 36.7461 48.1959 37.3799 48.1959 38.1546C48.1959 38.9433 47.576 39.563 46.787 39.563Z" fill="#CECECE"/>
<path d="M46.787 46.7896H23.7097C22.9348 46.7896 22.3008 46.1558 22.3008 45.3811C22.3008 44.6065 22.9348 43.9727 23.7097 43.9727H46.787C47.5619 43.9727 48.1959 44.6065 48.1959 45.3811C48.1959 46.1699 47.576 46.7896 46.787 46.7896Z" fill="#CECECE"/>
<path d="M31.5129 25.0134H12V17.1119C12 16.5203 12.479 16.0273 13.0848 16.0273H31.5129C32.1046 16.0273 32.5977 16.5062 32.5977 17.1119V23.9289C32.5977 24.5204 32.1187 25.0134 31.5129 25.0134Z" fill="#D80027"/>
<path d="M32.5977 23.788V23.9289C32.5977 24.5204 32.1187 25.0134 31.5129 25.0134H12V17.1119C12 16.5203 12.479 16.0273 13.0848 16.0273H13.6343V18.8443C13.6343 21.5767 15.8462 23.8021 18.5935 23.8021H32.5977V23.788Z" fill="#FF0000"/>
<path d="M12 25.0137L15.2686 28.732V25.0137H12Z" fill="#D80027"/>
<path d="M17.2844 22.2261V23.1697H14.3398V22.2261H15.0584V18.5218H14.3398V17.5781H17.2844C17.9747 17.5781 18.496 17.7331 18.8764 18.057C19.2568 18.381 19.44 18.8176 19.44 19.3528C19.44 19.6627 19.3695 19.9444 19.2427 20.1979C19.1159 20.4514 18.9469 20.6486 18.7355 20.7754C18.5242 20.9162 18.2988 21.0007 18.0311 21.057C17.7634 21.1134 17.4394 21.1275 17.0449 21.1275H16.5095V22.212H17.2844V22.2261ZM16.5095 20.1979H16.7208C17.2139 20.1979 17.538 20.1134 17.6789 19.9584C17.8198 19.8035 17.8902 19.5922 17.8902 19.3528C17.8902 19.1556 17.8338 18.9725 17.7352 18.8317C17.6366 18.6908 17.5239 18.6063 17.3971 18.5641C17.2703 18.5359 17.059 18.5077 16.7631 18.5077H16.4954V20.1979H16.5095Z" fill="white"/>
<path d="M19.7773 23.1697V22.2261H20.6227V18.5218H19.7773V17.5781H22.426C22.9896 17.5781 23.4263 17.6063 23.7785 17.6767C24.1167 17.7471 24.4407 17.9021 24.7507 18.1274C25.0606 18.3669 25.3142 18.6767 25.4974 19.0711C25.6805 19.4655 25.7792 19.9021 25.7792 20.381C25.7792 20.7754 25.7087 21.1416 25.5819 21.4937C25.4551 21.8458 25.286 22.1275 25.0888 22.3528C24.8916 22.5641 24.6661 22.7472 24.3844 22.874C24.1167 23.0007 23.8631 23.0852 23.6377 23.1275C23.4122 23.1697 23.06 23.1838 22.581 23.1838H19.7773V23.1697ZM22.0879 22.2261H22.4401C22.8628 22.2261 23.2009 22.1697 23.4545 22.0571C23.7081 21.9444 23.9054 21.7472 24.0462 21.4796C24.2012 21.1979 24.2717 20.8458 24.2717 20.3951C24.2717 19.9725 24.2012 19.6063 24.0462 19.3105C23.8913 19.0148 23.694 18.8035 23.4263 18.6908C23.1727 18.5781 22.8346 18.5218 22.4401 18.5218H22.0879V22.2261Z" fill="white"/>
<path d="M26.4297 23.1697V22.2261H27.2327V18.5218H26.4297V17.5781H31.4453V19.3105H30.3745V18.5359H28.698V19.8317H29.9096V20.7754H28.698V22.2261H29.5574V23.1697H26.4297Z" fill="white"/>
<path d="M29.37 27.6354H15.2812V25.0156H31.5819V25.4382C31.5678 26.6495 30.5816 27.6354 29.37 27.6354Z" fill="#E5E5E5"/>
</svg>
