<svg width="102" height="102" viewBox="0 0 102 102" fill="none" xmlns="http://www.w3.org/2000/svg">
<path d="M51 3C24.4903 3 3 24.4903 3 51C3 77.5097 24.4903 99 51 99C77.5097 99 99 77.5097 99 51C99 24.4903 77.5097 3 51 3Z" fill="white"/>
<path d="M51 12C29.4609 12 12 29.4609 12 51C12 72.5391 29.4609 90 51 90C72.5391 90 90 72.5391 90 51C90 29.4609 72.5391 12 51 12Z" fill="#82D407"/>
<path d="M51 3C24.4903 3 3 24.4903 3 51C3 77.5097 24.4903 99 51 99C77.5097 99 99 77.5097 99 51C99 24.4903 77.5097 3 51 3Z" stroke="#569A00" stroke-width="6" stroke-miterlimit="10"/>
<path d="M29 56L42.55 68L73 33" stroke="white" stroke-width="6" stroke-miterlimit="10" stroke-linecap="round"/>
</svg>
