<svg width="25" height="25" viewBox="0 0 25 25" fill="none" xmlns="http://www.w3.org/2000/svg">
<path d="M2.07935 8.85417H11.9752" stroke="#0095C4" stroke-width="1.5" stroke-miterlimit="10" stroke-linecap="round" stroke-linejoin="round"/>
<path d="M6.24585 17.1875H8.32918" stroke="#0095C4" stroke-width="1.5" stroke-miterlimit="10" stroke-linecap="round" stroke-linejoin="round"/>
<path d="M10.9333 17.1875H15.1" stroke="#0095C4" stroke-width="1.5" stroke-miterlimit="10" stroke-linecap="round" stroke-linejoin="round"/>
<path d="M22.9127 12.5312V16.7812C22.9127 20.4375 21.9856 21.3542 18.2877 21.3542H6.70435C3.00643 21.3542 2.07935 20.4375 2.07935 16.7812V8.21875C2.07935 4.56249 3.00643 3.64583 6.70435 3.64583H15.1002" stroke="#0095C4" stroke-width="1.5" stroke-linecap="round" stroke-linejoin="round"/>
<path d="M19.871 4.30209L16.0064 8.16667C15.8605 8.3125 15.7147 8.60417 15.6835 8.8125L15.4751 10.2917C15.4022 10.8229 15.7772 11.1979 16.3085 11.125L17.7876 10.9167C17.996 10.8854 18.2876 10.7396 18.4335 10.5938L22.298 6.72917C22.9647 6.0625 23.2772 5.29167 22.298 4.3125C21.3085 3.32292 20.5376 3.63542 19.871 4.30209Z" stroke="#0095C4" stroke-width="1.5" stroke-miterlimit="10" stroke-linecap="round" stroke-linejoin="round"/>
<path d="M19.3188 4.85417C19.6522 6.03126 20.5688 6.94792 21.7355 7.27084" stroke="#0095C4" stroke-width="1.5" stroke-miterlimit="10" stroke-linecap="round" stroke-linejoin="round"/>
</svg>
