<svg width="63" height="20" viewBox="0 0 63 20" fill="none" xmlns="http://www.w3.org/2000/svg">
<path d="M38.7441 7.30664H34.332V9.76758H38.123V10.7988H34.332V15H33.1719V6.27539H38.7441V7.30664ZM41.1699 7.35938H39.9277V6.2168H41.1699V7.35938ZM41.0996 15H39.998V8.45508H41.0996V15ZM44.3926 15H43.291V5.88281H44.3926V15ZM49.9707 14.9414C49.7637 14.9961 49.5371 15.041 49.291 15.0762C49.0488 15.1113 48.832 15.1289 48.6406 15.1289C47.9727 15.1289 47.4648 14.9492 47.1172 14.5898C46.7695 14.2305 46.5957 13.6543 46.5957 12.8613V9.38086H45.8516V8.45508H46.5957V6.57422H47.6973V8.45508H49.9707V9.38086H47.6973V12.3633C47.6973 12.707 47.7051 12.9766 47.7207 13.1719C47.7363 13.3633 47.791 13.543 47.8848 13.7109C47.9707 13.8672 48.0879 13.9824 48.2363 14.0566C48.3887 14.127 48.6191 14.1621 48.9277 14.1621C49.1074 14.1621 49.2949 14.1367 49.4902 14.0859C49.6855 14.0312 49.8262 13.9863 49.9121 13.9512H49.9707V14.9414ZM56.7852 11.8418H51.9629C51.9629 12.2441 52.0234 12.5957 52.1445 12.8965C52.2656 13.1934 52.4316 13.4375 52.6426 13.6289C52.8457 13.8164 53.0859 13.957 53.3633 14.0508C53.6445 14.1445 53.9531 14.1914 54.2891 14.1914C54.7344 14.1914 55.1816 14.1035 55.6309 13.9277C56.084 13.748 56.4062 13.5723 56.5977 13.4004H56.6562V14.6016C56.2852 14.7578 55.9062 14.8887 55.5195 14.9941C55.1328 15.0996 54.7266 15.1523 54.3008 15.1523C53.2148 15.1523 52.3672 14.8594 51.7578 14.2734C51.1484 13.6836 50.8438 12.8477 50.8438 11.7656C50.8438 10.6953 51.1348 9.8457 51.7168 9.2168C52.3027 8.58789 53.0723 8.27344 54.0254 8.27344C54.9082 8.27344 55.5879 8.53125 56.0645 9.04688C56.5449 9.5625 56.7852 10.2949 56.7852 11.2441V11.8418ZM55.7129 10.998C55.709 10.4199 55.5625 9.97266 55.2734 9.65625C54.9883 9.33984 54.5527 9.18164 53.9668 9.18164C53.377 9.18164 52.9062 9.35547 52.5547 9.70312C52.207 10.0508 52.0098 10.4824 51.9629 10.998H55.7129ZM62.5391 9.65625H62.4805C62.3164 9.61719 62.1562 9.58984 62 9.57422C61.8477 9.55469 61.666 9.54492 61.4551 9.54492C61.1152 9.54492 60.7871 9.62109 60.4707 9.77344C60.1543 9.92188 59.8496 10.1152 59.5566 10.3535V15H58.4551V8.45508H59.5566V9.42188C59.9941 9.07031 60.3789 8.82227 60.7109 8.67773C61.0469 8.5293 61.3887 8.45508 61.7363 8.45508C61.9277 8.45508 62.0664 8.46094 62.1523 8.47266C62.2383 8.48047 62.3672 8.49805 62.5391 8.52539V9.65625Z" fill="#0F86B1"/>
<path d="M7.02261 8.26564C4.89006 8.26564 3.125 6.43382 3.125 4.13282C3.125 1.87158 4.85256 0 7.02261 0C9.15515 0 10.9202 1.83182 10.9202 4.13282C10.9202 6.43363 9.1553 8.26564 7.02261 8.26564ZM7.02261 1.59902C5.69855 1.59902 4.59566 2.72886 4.59566 4.17243C4.59566 5.57638 5.6612 6.74583 7.02261 6.74583C8.34666 6.74583 9.44955 5.61599 9.44955 4.17243C9.44955 2.73042 8.34666 1.59902 7.02261 1.59902Z" fill="#0F86B1"/>
<path d="M19.265 4.91253H10.185C9.77999 4.91253 9.44971 4.56231 9.44971 4.1329C9.44971 3.70348 9.78 3.35327 10.185 3.35327H19.265C19.67 3.35327 20.0003 3.7035 20.0003 4.1329C20.0003 4.56232 19.67 4.91253 19.265 4.91253Z" fill="#0F86B1"/>
<path d="M3.89746 4.91253H0.735259C0.330278 4.91253 0 4.56231 0 4.1329C0 3.70348 0.330293 3.35327 0.735259 3.35327H3.89746C4.30244 3.35327 4.63272 3.7035 4.63272 4.1329C4.63272 4.56232 4.30243 4.91253 3.89746 4.91253Z" fill="#0F86B1"/>
<path d="M12.9796 20C10.8471 20 9.08203 18.1682 9.08203 15.8672C9.08203 13.606 10.8096 11.7344 12.9796 11.7344C15.1122 11.7344 16.8772 13.5662 16.8772 15.8672C16.8399 18.1665 15.1109 20 12.9796 20ZM12.9796 13.3334C11.6556 13.3334 10.5527 14.4632 10.5527 15.9068C10.5527 17.3108 11.6182 18.4802 12.9796 18.4802C14.3037 18.4802 15.4066 17.3504 15.4066 15.9068C15.3692 14.4633 14.3023 13.3334 12.9796 13.3334Z" fill="#0F86B1"/>
<path d="M9.81632 16.6862H0.736236C0.331255 16.6862 0.000976562 16.336 0.000976562 15.9066C0.000976562 15.4772 0.33127 15.127 0.736236 15.127H9.81632C10.2213 15.127 10.5516 15.4772 10.5516 15.9066C10.5516 16.3345 10.2213 16.6862 9.81632 16.6862Z" fill="#0F86B1"/>
<path d="M19.2651 16.6862H16.1029C15.698 16.6862 15.3677 16.336 15.3677 15.9066C15.3677 15.4772 15.698 15.127 16.1029 15.127H19.2651C19.6701 15.127 20.0004 15.4772 20.0004 15.9066C20.0004 16.3345 19.6701 16.6862 19.2651 16.6862Z" fill="#0F86B1"/>
</svg>
