<svg width="42" height="42" viewBox="0 0 42 42" fill="none" xmlns="http://www.w3.org/2000/svg">
<path d="M5.05117 12.3822C6.55915 17.2173 11.7013 19.9145 16.5364 18.4065C21.3715 16.8985 32.8235 9.02598 31.3156 4.19084C29.8076 -0.644306 15.9107 -0.611062 11.0755 0.896919C6.24038 2.4049 3.54319 7.54702 5.05117 12.3822Z" fill="#B7C200"/>
<path d="M2.12849 38.8951C4.96647 41.7331 9.56725 41.7331 12.4052 38.8951C15.2432 36.0571 20.3813 26.3177 17.5438 23.4798C14.7059 20.642 4.96647 25.7804 2.12849 28.6181C-0.709496 31.4561 -0.709496 36.0571 2.12849 38.8951Z" fill="#B7C200"/>
<path d="M29.2837 41.6848C34.176 42.9956 39.2047 40.0924 40.5157 35.2001C41.8262 30.3077 41.2968 16.4211 36.4045 15.11C31.5122 13.7993 24.1102 25.5607 22.7992 30.453C21.4882 35.3451 24.3913 40.3738 29.2837 41.6848Z" fill="#B7C200"/>
</svg>
