<svg width="16" height="15" viewBox="0 0 16 15" fill="none" xmlns="http://www.w3.org/2000/svg">
<path d="M14.3024 2.42949H12.5403V1.69767C12.5403 0.761571 11.7787 0 10.8426 0H5.15746C4.22136 0 3.45979 0.761571 3.45979 1.69767V2.42949H1.69767C0.761571 2.42949 0 3.19106 0 4.12716V10.0799C0 11.0159 0.761571 11.7775 1.69767 11.7775H2.58815V13.2342C2.58815 14.1703 3.34972 14.9319 4.28582 14.9319H11.7142C12.6503 14.9319 13.4119 14.1703 13.4119 13.2342V11.7775H14.3023C15.2384 11.7775 16 11.0159 16 10.0799V4.12716C16 3.19106 15.2385 2.42949 14.3024 2.42949ZM4.63601 1.69767C4.63601 1.4101 4.87004 1.17607 5.15761 1.17607H10.8427C11.1303 1.17607 11.3643 1.41009 11.3643 1.69767V2.42949H4.63612L4.63601 1.69767ZM12.2367 13.2332C12.2367 13.5208 12.0027 13.7548 11.7151 13.7548H4.28678C3.99921 13.7548 3.76518 13.5208 3.76518 13.2332V9.70508C3.76518 9.41751 3.99921 9.18348 4.28678 9.18348H11.7151C12.0027 9.18348 12.2367 9.41751 12.2367 9.70508V13.2332ZM14.8248 10.0788C14.8248 10.3663 14.5908 10.6004 14.3032 10.6004H13.4127V9.70394C13.4127 8.76784 12.6512 8.00627 11.7151 8.00627L4.28671 8.00726C3.35061 8.00726 2.58904 8.76883 2.58904 9.70493V10.6014H1.69856C1.41099 10.6014 1.17696 10.3673 1.17696 10.0798V4.12706C1.17696 3.83949 1.41098 3.60546 1.69856 3.60546L14.3021 3.60447C14.5896 3.60447 14.8237 3.83849 14.8237 4.12607V10.0788H14.8248Z" fill="#0F86B1"/>
<path d="M10.2484 11.0887H5.75332C5.52624 11.0887 5.3418 10.9042 5.3418 10.6772C5.3418 10.4501 5.52624 10.2656 5.75332 10.2656H10.2484C10.4755 10.2656 10.6599 10.4501 10.6599 10.6772C10.6599 10.9042 10.4755 11.0887 10.2484 11.0887Z" fill="#0F86B1"/>
<path d="M10.2484 12.6727H5.75332C5.52624 12.6727 5.3418 12.4882 5.3418 12.2611C5.3418 12.0341 5.52624 11.8496 5.75332 11.8496H10.2484C10.4755 11.8496 10.6599 12.0341 10.6599 12.2611C10.6599 12.4882 10.4755 12.6727 10.2484 12.6727Z" fill="#0F86B1"/>
</svg>
