<svg width="25" height="25" viewBox="0 0 25 25" fill="none" xmlns="http://www.w3.org/2000/svg">
<path d="M11.1997 17.5629V19.6775C11.1997 21.4691 9.53298 22.917 7.48089 22.917C5.42881 22.917 3.75171 21.4691 3.75171 19.6775V17.5629C3.75171 19.3545 5.41839 20.6254 7.48089 20.6254C9.53298 20.6254 11.1997 19.3441 11.1997 17.5629Z" stroke="#0095C4" stroke-width="1.5" stroke-linecap="round" stroke-linejoin="round"/>
<path d="M11.1978 14.6979C11.1978 15.2187 11.052 15.6979 10.802 16.1146C10.1874 17.125 8.92696 17.7604 7.46862 17.7604C6.01029 17.7604 4.74986 17.1146 4.13528 16.1146C3.88528 15.6979 3.7395 15.2187 3.7395 14.6979C3.7395 13.8021 4.15615 13 4.82281 12.4166C5.4999 11.8229 6.42695 11.4688 7.4582 11.4688C8.48945 11.4688 9.41656 11.8333 10.0936 12.4166C10.7811 12.9896 11.1978 13.8021 11.1978 14.6979Z" stroke="#0095C4" stroke-width="1.5" stroke-linecap="round" stroke-linejoin="round"/>
<path d="M11.1997 14.6979V17.5625C11.1997 19.3542 9.53298 20.625 7.48089 20.625C5.42881 20.625 3.75171 19.3437 3.75171 17.5625V14.6979C3.75171 12.9062 5.41839 11.4583 7.48089 11.4583C8.51214 11.4583 9.43926 11.8229 10.1163 12.4062C10.783 12.9896 11.1997 13.8021 11.1997 14.6979Z" stroke="#0095C4" stroke-width="1.5" stroke-linecap="round" stroke-linejoin="round"/>
<path d="M22.9168 11.4271V13.5729C22.9168 14.1459 22.4585 14.6146 21.8751 14.6354H19.8335C18.7085 14.6354 17.6772 13.8125 17.5835 12.6875C17.521 12.0312 17.771 11.4167 18.2085 10.9896C18.5939 10.5937 19.1251 10.3646 19.7085 10.3646H21.8751C22.4585 10.3854 22.9168 10.8541 22.9168 11.4271Z" stroke="#0095C4" stroke-width="1.5" stroke-linecap="round" stroke-linejoin="round"/>
<path d="M2.08325 10.9375V8.85416C2.08325 6.02083 3.79159 4.04166 6.44784 3.70833C6.71867 3.66666 6.99992 3.64583 7.29159 3.64583H16.6666C16.9374 3.64583 17.1978 3.65623 17.4478 3.6979C20.1353 4.0104 21.8749 6 21.8749 8.85416V10.3646H19.7082C19.1249 10.3646 18.5936 10.5937 18.2082 10.9896C17.7707 11.4166 17.5208 12.0312 17.5833 12.6875C17.677 13.8125 18.7082 14.6354 19.8332 14.6354H21.8749V16.1458C21.8749 19.2708 19.7916 21.3542 16.6666 21.3542H14.0624" stroke="#0095C4" stroke-width="1.5" stroke-linecap="round" stroke-linejoin="round"/>
</svg>
