<svg width="24" height="24" viewBox="0 0 24 24" fill="none" xmlns="http://www.w3.org/2000/svg">
<path d="M18.7987 5.07656C18.7359 5.02795 18.6627 4.99444 18.5849 4.97863C18.5071 4.96281 18.4266 4.96512 18.3498 4.98537C17.9154 5.09865 17.4683 5.15588 17.0194 5.15566C16.2344 5.15712 15.459 4.98195 14.7508 4.64312C14.0425 4.30428 13.4195 3.81045 12.9278 3.19818C12.8808 3.13821 12.821 3.08938 12.753 3.05515C12.6849 3.02093 12.6101 3.00215 12.5339 3.00017C12.4577 2.9982 12.382 3.01306 12.3122 3.0437C12.2425 3.07434 12.1803 3.12001 12.1302 3.17745C12.1243 3.18401 12.1167 3.19299 12.1081 3.2037C11.6164 3.81478 10.9937 4.30756 10.2862 4.64565C9.57856 4.98374 8.80408 5.15851 8.01992 5.15704C7.55861 5.15734 7.09925 5.09707 6.65363 4.97777C6.57689 4.95693 6.49639 4.95404 6.41836 4.96933C6.34033 4.98463 6.26687 5.01768 6.20367 5.06595C6.14046 5.11421 6.08922 5.17638 6.0539 5.24765C6.01858 5.31891 6.00014 5.39736 6 5.4769V13.4975C6 17.0829 8.91594 20 12.5 20C16.0841 20 19 17.0829 19 13.4975V5.48657C19 5.40738 18.9818 5.32925 18.947 5.25817C18.9121 5.1871 18.8613 5.12497 18.7987 5.07656ZM15.8534 9.87096L11.8654 13.8605C11.7682 13.9577 11.6365 14.0122 11.4992 14.0122C11.3619 14.0122 11.2301 13.9577 11.133 13.8605L9.13899 11.8658C9.09088 11.8176 9.05272 11.7604 9.0267 11.6975C9.00067 11.6346 8.98728 11.5672 8.9873 11.4991C8.98731 11.4311 9.00073 11.3637 9.02679 11.3008C9.05285 11.2379 9.09103 11.1807 9.13916 11.1326C9.1873 11.0845 9.24443 11.0463 9.30731 11.0203C9.37019 10.9942 9.43758 10.9808 9.50563 10.9808C9.57369 10.9809 9.64107 10.9943 9.70394 11.0204C9.7668 11.0464 9.82392 11.0846 9.87203 11.1328L11.4997 12.7611L15.1204 9.13798C15.2181 9.0436 15.3489 8.99138 15.4847 8.99256C15.6205 8.99374 15.7504 9.04823 15.8464 9.1443C15.9424 9.24036 15.9969 9.37031 15.9981 9.50616C15.9993 9.64202 15.9471 9.7729 15.8527 9.87062L15.8534 9.87096Z" fill="#1B4976"/>
</svg>
