<svg width="21" height="22" viewBox="0 0 21 22" fill="none" xmlns="http://www.w3.org/2000/svg">
<path fill-rule="evenodd" clip-rule="evenodd" d="M10.5026 0.5C4.71347 0.5 0 5.21347 0 11.0026C0 16.7917 4.71347 21.5 10.5026 21.5C16.2917 21.5 21 16.7917 21 11.0026C21 5.21347 16.2917 0.5 10.5026 0.5ZM10.5026 2.25014C15.3458 2.25014 19.2499 6.15932 19.2499 11.0026C19.2499 15.8458 15.3458 19.7499 10.5026 19.7499C5.65932 19.7499 1.75014 15.8458 1.75014 11.0026C1.75014 6.15932 5.65932 2.25014 10.5026 2.25014ZM14.8574 6.78445C14.742 6.79286 14.6294 6.82408 14.5261 6.87629C14.4229 6.92851 14.331 7.0007 14.2558 7.08866L9.11988 13.0501L6.71173 10.5633C6.6312 10.4808 6.53515 10.415 6.4291 10.3697C6.32305 10.3244 6.2091 10.3005 6.09379 10.2994C5.97848 10.2983 5.86409 10.32 5.7572 10.3632C5.6503 10.4065 5.55301 10.4704 5.47091 10.5514C5.30607 10.7136 5.21211 10.9344 5.20957 11.1656C5.20703 11.3968 5.29611 11.6196 5.45735 11.7854L8.52693 14.9558C8.61152 15.0432 8.71339 15.112 8.82605 15.1579C8.93872 15.2037 9.0597 15.2255 9.18127 15.222C9.30285 15.2185 9.42236 15.1896 9.53216 15.1373C9.64197 15.085 9.73967 15.0104 9.81903 14.9182L15.5805 8.22529C15.7321 8.04962 15.8077 7.82095 15.7907 7.58954C15.7737 7.35814 15.6655 7.14295 15.4899 6.9913C15.3146 6.8418 15.0872 6.76743 14.8574 6.78445Z" fill="#1B4976"/>
</svg>
