<svg width="21" height="21" viewBox="0 0 21 21" fill="none" xmlns="http://www.w3.org/2000/svg">
<path fill-rule="evenodd" clip-rule="evenodd" d="M10.5026 0C4.71347 0 0 4.71347 0 10.5026C0 16.2917 4.71347 21 10.5026 21C16.2917 21 21 16.2917 21 10.5026C21 4.71347 16.2917 0 10.5026 0ZM10.5026 1.75014C15.3458 1.75014 19.2499 5.65932 19.2499 10.5026C19.2499 15.3458 15.3458 19.2499 10.5026 19.2499C5.65932 19.2499 1.75014 15.3458 1.75014 10.5026C1.75014 5.65932 5.65932 1.75014 10.5026 1.75014ZM14.8574 6.28445C14.742 6.29286 14.6294 6.32408 14.5261 6.37629C14.4229 6.42851 14.331 6.5007 14.2558 6.58866L9.11988 12.5501L6.71173 10.0633C6.6312 9.98077 6.53515 9.91497 6.4291 9.86968C6.32305 9.82439 6.2091 9.8005 6.09379 9.79939C5.97848 9.79829 5.86409 9.81998 5.7572 9.86323C5.6503 9.90648 5.55301 9.97043 5.47091 10.0514C5.30607 10.2136 5.21211 10.4344 5.20957 10.6656C5.20703 10.8968 5.29611 11.1196 5.45735 11.2854L8.52693 14.4558C8.61152 14.5432 8.71339 14.612 8.82605 14.6579C8.93872 14.7037 9.0597 14.7255 9.18127 14.722C9.30285 14.7185 9.42236 14.6896 9.53216 14.6373C9.64197 14.585 9.73967 14.5104 9.81903 14.4182L15.5805 7.72529C15.7321 7.54962 15.8077 7.32095 15.7907 7.08954C15.7737 6.85814 15.6655 6.64295 15.4899 6.4913C15.3146 6.3418 15.0872 6.26743 14.8574 6.28445Z" fill="#1B4976"/>
</svg>
