<svg width="20" height="12" viewBox="0 0 20 12" fill="none" xmlns="http://www.w3.org/2000/svg">
<path d="M2.48934 9.12391H3.07469C3.2641 10.2043 4.20982 11.0289 5.34747 11.0289C6.48484 11.0289 7.43045 10.2043 7.61987 9.12391H12.1208C12.3102 10.2043 13.2558 11.0289 14.3932 11.0289C15.5308 11.0289 16.4765 10.2043 16.666 9.12391H18.8028C19.2333 9.12391 19.5833 8.77497 19.5833 8.34587V6.20539C19.5833 5.1121 18.6909 4.22253 17.594 4.22253H15.2206C13.7564 2.82874 13.0657 1 10.9246 1H6.13039C5.04169 1 4.04041 1.54509 3.45177 2.45829L2.31567 4.22253H0.897869C0.677955 4.22253 0.5 4.4001 0.5 4.6191V7.14105C0.5 8.23433 1.39248 9.12391 2.48934 9.12391ZM5.34747 10.2358C4.51463 10.2358 3.83711 9.56172 3.83419 8.73247C3.83428 8.73063 3.83526 8.72918 3.83526 8.72733C3.83526 8.72549 3.83429 8.72404 3.83419 8.7222C3.8371 7.89275 4.51463 7.2187 5.34747 7.2187C6.18207 7.2187 6.86085 7.89546 6.86085 8.72733C6.86085 9.55901 6.18207 10.2358 5.34747 10.2358ZM14.3932 10.2358C13.5586 10.2358 12.8798 9.55901 12.8798 8.72733C12.8798 7.89546 13.5586 7.2187 14.3932 7.2187C15.2269 7.2187 15.9053 7.89411 15.9066 8.72477C15.9066 8.72569 15.9062 8.72646 15.9062 8.72733C15.9062 8.72821 15.9066 8.72898 15.9066 8.7299C15.9053 9.56037 15.2269 10.2358 14.3932 10.2358ZM14.1573 4.22253H9.0977V1.79314H10.9246C12.5309 1.79314 13.0574 3.17447 14.1573 4.22253ZM4.12162 2.88701C4.56301 2.20211 5.31367 1.79314 6.13039 1.79314H8.30196V4.22253H3.26099L4.12162 2.88701ZM1.29574 5.01567C2.20514 5.01567 18.2074 5.01567 17.594 5.01567C18.2522 5.01567 18.7876 5.54934 18.7876 6.20539L18.8028 8.33077H16.666C16.4765 7.25017 15.5309 6.42556 14.3932 6.42556C13.2558 6.42556 12.3102 7.25017 12.1208 8.33077H7.61987C7.43046 7.25017 6.48484 6.42556 5.34747 6.42556C4.20972 6.42556 3.2641 7.25017 3.07469 8.33077H2.48934C1.83115 8.33077 1.29574 7.7971 1.29574 7.14105V5.01567Z" fill="#1B4976" stroke="#1B4976" stroke-width="0.3"/>
</svg>
