<svg width="41" height="41" viewBox="0 0 41 41" fill="none" xmlns="http://www.w3.org/2000/svg">
<rect x="0.5" y="0.253906" width="40" height="40" rx="12" fill="#D4E4F4"/>
<path d="M12.9893 22.8778H13.5747C13.7641 23.9582 14.7098 24.7828 15.8475 24.7828C16.9848 24.7828 17.9305 23.9582 18.1199 22.8778H22.6208C22.8102 23.9582 23.7558 24.7828 24.8932 24.7828C26.0308 24.7828 26.9765 23.9582 27.166 22.8778H29.3028C29.7333 22.8778 30.0833 22.5289 30.0833 22.0998V19.9593C30.0833 18.866 29.1909 17.9764 28.094 17.9764H25.7206C24.2564 16.5826 23.5657 14.7539 21.4246 14.7539H16.6304C15.5417 14.7539 14.5404 15.299 13.9518 16.2122L12.8157 17.9764H11.3979C11.178 17.9764 11 18.154 11 18.373V20.895C11 21.9882 11.8925 22.8778 12.9893 22.8778ZM15.8475 23.9897C15.0146 23.9897 14.3371 23.3156 14.3342 22.4864C14.3343 22.4845 14.3353 22.4831 14.3353 22.4812C14.3353 22.4794 14.3343 22.4779 14.3342 22.4761C14.3371 21.6467 15.0146 20.9726 15.8475 20.9726C16.6821 20.9726 17.3608 21.6494 17.3608 22.4812C17.3608 23.3129 16.6821 23.9897 15.8475 23.9897ZM24.8932 23.9897C24.0586 23.9897 23.3798 23.3129 23.3798 22.4812C23.3798 21.6494 24.0586 20.9726 24.8932 20.9726C25.7269 20.9726 26.4053 21.648 26.4066 22.4787C26.4066 22.4796 26.4062 22.4804 26.4062 22.4812C26.4062 22.4821 26.4066 22.4829 26.4066 22.4838C26.4053 23.3143 25.7269 23.9897 24.8932 23.9897ZM24.6573 17.9764H19.5977V15.547H21.4246C23.0309 15.547 23.5574 16.9284 24.6573 17.9764ZM14.6216 16.6409C15.063 15.956 15.8137 15.547 16.6304 15.547H18.802V17.9764H13.761L14.6216 16.6409ZM11.7957 18.7696C12.7051 18.7696 28.7074 18.7696 28.094 18.7696C28.7522 18.7696 29.2876 19.3032 29.2876 19.9593L29.3028 22.0847H27.166C26.9765 21.0041 26.0309 20.1795 24.8932 20.1795C23.7558 20.1795 22.8102 21.0041 22.6208 22.0847H18.1199C17.9305 21.0041 16.9848 20.1795 15.8475 20.1795C14.7097 20.1795 13.7641 21.0041 13.5747 22.0847H12.9893C12.3312 22.0847 11.7957 21.551 11.7957 20.895V18.7696Z" fill="#1B4976" stroke="#1B4976" stroke-width="0.3"/>
</svg>
