<svg width="15" height="17" viewBox="0 0 15 17" fill="none" xmlns="http://www.w3.org/2000/svg">
<path d="M14.8272 12.3703C14.3936 11.6234 13.7491 9.51016 13.7491 6.75C13.7491 5.0924 13.0906 3.50269 11.9185 2.33058C10.7464 1.15848 9.1567 0.5 7.49909 0.5C5.84149 0.5 4.25178 1.15848 3.07968 2.33058C1.90757 3.50269 1.24909 5.0924 1.24909 6.75C1.24909 9.51094 0.603782 11.6234 0.170188 12.3703C0.0594621 12.5602 0.000761949 12.7759 7.36794e-06 12.9957C-0.000747213 13.2155 0.0564706 13.4316 0.16589 13.6223C0.27531 13.8129 0.433063 13.9713 0.623239 14.0815C0.813416 14.1917 1.02929 14.2498 1.24909 14.25H4.43738C4.58157 14.9556 4.96505 15.5897 5.52295 16.0451C6.08085 16.5006 6.77892 16.7493 7.49909 16.7493C8.21927 16.7493 8.91734 16.5006 9.47524 16.0451C10.0331 15.5897 10.4166 14.9556 10.5608 14.25H13.7491C13.9688 14.2497 14.1846 14.1915 14.3747 14.0812C14.5647 13.971 14.7224 13.8125 14.8317 13.6219C14.941 13.4313 14.9982 13.2153 14.9974 12.9955C14.9966 12.7758 14.9379 12.5601 14.8272 12.3703ZM7.49909 15.5C7.11145 15.4999 6.73338 15.3796 6.41691 15.1558C6.10043 14.9319 5.86112 14.6155 5.73191 14.25H9.26628C9.13707 14.6155 8.89776 14.9319 8.58128 15.1558C8.26481 15.3796 7.88674 15.4999 7.49909 15.5ZM1.24909 13C1.85066 11.9656 2.49909 9.56875 2.49909 6.75C2.49909 5.42392 3.02588 4.15215 3.96356 3.21447C4.90124 2.27678 6.17301 1.75 7.49909 1.75C8.82518 1.75 10.0969 2.27678 11.0346 3.21447C11.9723 4.15215 12.4991 5.42392 12.4991 6.75C12.4991 9.56641 13.146 11.9633 13.7491 13H1.24909Z" fill="#1B4976"/>
</svg>
