<svg width="21" height="21" viewBox="0 0 21 21" fill="none" xmlns="http://www.w3.org/2000/svg">
<path d="M8.14648 12.8633L9.45898 14.1758L12.959 10.6758" stroke="#1B4976" stroke-width="1.5" stroke-linecap="round" stroke-linejoin="round"/>
<path d="M8.75 5.25H12.25C14 5.25 14 4.375 14 3.5C14 1.75 13.125 1.75 12.25 1.75H8.75C7.875 1.75 7 1.75 7 3.5C7 5.25 7.875 5.25 8.75 5.25Z" stroke="#1B4976" stroke-width="1.5" stroke-miterlimit="10" stroke-linecap="round" stroke-linejoin="round"/>
<path d="M14 3.51758C16.9137 3.67508 18.375 4.75133 18.375 8.75008V14.0001C18.375 17.5001 17.5 19.2501 13.125 19.2501H7.875C3.5 19.2501 2.625 17.5001 2.625 14.0001V8.75008C2.625 4.76008 4.08625 3.67508 7 3.51758" stroke="#1B4976" stroke-width="1.5" stroke-miterlimit="10" stroke-linecap="round" stroke-linejoin="round"/>
</svg>
