<svg width="18" height="18" viewBox="0 0 18 18" fill="none" xmlns="http://www.w3.org/2000/svg">
<mask id="mask0_22676_49906" style="mask-type:luminance" maskUnits="userSpaceOnUse" x="0" y="0" width="18" height="18">
<path d="M18 0H0V18H18V0Z" fill="white"/>
</mask>
<g mask="url(#mask0_22676_49906)">
<path d="M6.75008 1.12502C6.04808 1.12502 5.51376 1.12257 5.0637 1.17336C4.61365 1.22415 4.20167 1.33638 3.89365 1.64467C3.58566 1.95297 3.47397 2.36484 3.42343 2.81473C3.37299 3.26379 3.37508 3.79736 3.37509 4.49672C3.37509 4.49708 3.37509 4.49745 3.37509 4.49781V4.50001V11.2523C3.37499 12.5363 3.29311 13.2961 3.75302 13.9395C3.98312 14.2614 4.35484 14.4451 4.73627 14.5251C5.00115 14.5806 5.30631 14.599 5.64044 14.6097C5.64738 14.8129 5.65382 15.0129 5.6734 15.1864C5.72419 15.6365 5.83637 16.0496 6.14471 16.3576C6.45304 16.6655 6.86493 16.7762 7.31476 16.8267C7.7646 16.8772 8.29886 16.875 9.00007 16.875H12.3355C12.3487 16.8758 12.3619 16.8762 12.3751 16.8761C13.0763 16.8761 13.6106 16.8783 14.0604 16.8278C14.5102 16.7772 14.9221 16.6656 15.2304 16.3576C15.5387 16.0496 15.651 15.6376 15.7018 15.1875C15.7525 14.7377 15.7501 14.2025 15.7501 13.5011V6.75C15.7502 6.7254 15.7488 6.70081 15.7457 6.67639C15.7456 6.24902 15.7422 5.90808 15.5688 5.56129C15.3849 5.19324 15.1107 4.94271 14.646 4.47803C14.1812 4.01301 13.9343 3.73992 13.566 3.55519C13.5055 3.52482 13.4452 3.50588 13.3848 3.48488C13.3235 3.31736 13.2379 3.15466 13.1277 3.01027C12.9497 2.77717 12.7259 2.55793 12.396 2.22806C11.9312 1.76304 11.6843 1.48995 11.316 1.30522C10.9593 1.12625 10.6109 1.12605 10.1625 1.12614C10.1493 1.12531 10.1361 1.12495 10.1229 1.12505L6.75008 1.12502ZM6.75008 2.25002H9.56258V3.37502H9.00008C8.29808 3.37502 7.76376 3.37257 7.3137 3.42336C6.86365 3.47415 6.45167 3.58638 6.14365 3.89467C5.83566 4.20297 5.72397 4.61484 5.67343 5.06473C5.62299 5.51379 5.62508 6.04736 5.62509 6.74672C5.62509 6.74708 5.62509 6.74745 5.62509 6.74781V6.75001V13.4837C5.34918 13.4722 5.11356 13.4551 4.96702 13.4244C4.74147 13.3771 4.70901 13.342 4.66819 13.2848C4.58661 13.1707 4.50021 12.5353 4.5001 11.2524V4.49786C4.50011 3.79834 4.50366 3.27999 4.54185 2.94002C4.58009 2.59964 4.64479 2.48446 4.68907 2.44014C4.73335 2.39582 4.84964 2.33024 5.19004 2.29183C5.53045 2.25341 6.04864 2.25002 6.75008 2.25002ZM10.6876 2.28078C10.7295 2.28945 10.7801 2.29513 10.8106 2.31044C10.9136 2.36211 11.136 2.55757 11.6005 3.02234C11.6005 3.02271 11.6005 3.02308 11.6005 3.02344C11.7735 3.19641 11.8255 3.26228 11.9323 3.37501H10.6876L10.6876 2.28078ZM9.00008 4.50001H11.8126V6.75001C11.8126 7.06066 12.0644 7.31248 12.3751 7.31251H14.6251V13.5011V13.5022C14.6251 14.2031 14.6217 14.721 14.5833 15.0612C14.5449 15.4016 14.4793 15.5168 14.435 15.5611C14.3907 15.6054 14.2755 15.6712 13.9351 15.7094C13.6017 15.7469 13.0917 15.751 12.4125 15.7511C12.3993 15.7503 12.3861 15.7499 12.3729 15.75H9.00009C8.29928 15.75 7.78043 15.7476 7.44006 15.7094C7.09967 15.6712 6.98446 15.6053 6.94018 15.5611C6.8959 15.5169 6.83028 15.4016 6.79187 15.0612C6.7535 14.7212 6.75013 14.2025 6.75012 13.5022V6.74999V6.74779C6.75013 6.04826 6.75365 5.52992 6.79187 5.18994C6.8301 4.84957 6.8948 4.73439 6.93908 4.69007C6.98336 4.64575 7.09966 4.58017 7.44006 4.54175C7.78047 4.50334 8.29864 4.50001 9.00008 4.50001ZM12.9376 4.53077C12.9795 4.53944 13.0301 4.54512 13.0606 4.56044C13.1636 4.6121 13.386 4.80757 13.8505 5.27234C13.8505 5.2727 13.8505 5.27307 13.8505 5.27344C14.3146 5.7375 14.5103 5.95901 14.5624 6.06335C14.578 6.0944 14.5834 6.14518 14.5921 6.1875H12.9376L12.9376 4.53077Z" fill="#1B4976"/>
<path d="M8.43648 11.252C8.36194 11.251 8.28794 11.2647 8.21877 11.2925C8.1496 11.3203 8.08664 11.3616 8.03356 11.4139C7.98048 11.4663 7.93832 11.5286 7.90955 11.5974C7.88078 11.6662 7.86597 11.74 7.86597 11.8145C7.86597 11.8891 7.88078 11.9629 7.90955 12.0316C7.93832 12.1004 7.98048 12.1628 8.03356 12.2151C8.08664 12.2674 8.1496 12.3087 8.21877 12.3365C8.28794 12.3643 8.36194 12.3781 8.43648 12.377H12.9376C13.0121 12.3781 13.0861 12.3643 13.1553 12.3365C13.2245 12.3087 13.2874 12.2674 13.3405 12.2151C13.3936 12.1628 13.4358 12.1004 13.4645 12.0316C13.4933 11.9629 13.5081 11.8891 13.5081 11.8145C13.5081 11.74 13.4933 11.6662 13.4645 11.5974C13.4358 11.5286 13.3936 11.4663 13.3405 11.4139C13.2874 11.3616 13.2245 11.3203 13.1553 11.2925C13.0861 11.2647 13.0121 11.251 12.9376 11.252H8.43648Z" fill="#1B4976"/>
<path d="M8.43648 9.00201C8.36194 9.00096 8.28794 9.01473 8.21877 9.04252C8.1496 9.07032 8.08664 9.11158 8.03356 9.16392C7.98048 9.21626 7.93832 9.27862 7.90955 9.34739C7.88078 9.41616 7.86597 9.48996 7.86597 9.56451C7.86597 9.63905 7.88078 9.71286 7.90955 9.78163C7.93832 9.8504 7.98048 9.91276 8.03356 9.9651C8.08664 10.0174 8.1496 10.0587 8.21877 10.0865C8.28794 10.1143 8.36194 10.1281 8.43648 10.127H12.9376C13.0121 10.1281 13.0861 10.1143 13.1553 10.0865C13.2245 10.0587 13.2874 10.0174 13.3405 9.9651C13.3936 9.91276 13.4358 9.8504 13.4645 9.78163C13.4933 9.71286 13.5081 9.63905 13.5081 9.56451C13.5081 9.48996 13.4933 9.41616 13.4645 9.34739C13.4358 9.27862 13.3936 9.21626 13.3405 9.16392C13.2874 9.11158 13.2245 9.07032 13.1553 9.04252C13.0861 9.01473 13.0121 9.00096 12.9376 9.00201H8.43648Z" fill="#1B4976"/>
<path d="M8.43648 13.502C8.36194 13.501 8.28794 13.5147 8.21877 13.5425C8.1496 13.5703 8.08664 13.6116 8.03356 13.6639C7.98048 13.7163 7.93832 13.7786 7.90955 13.8474C7.88078 13.9162 7.86597 13.99 7.86597 14.0645C7.86597 14.1391 7.88078 14.2129 7.90955 14.2816C7.93832 14.3504 7.98048 14.4128 8.03356 14.4651C8.08664 14.5174 8.1496 14.5587 8.21877 14.5865C8.28794 14.6143 8.36194 14.6281 8.43648 14.627H12.9376C13.0121 14.6281 13.0861 14.6143 13.1553 14.5865C13.2245 14.5587 13.2874 14.5174 13.3405 14.4651C13.3936 14.4128 13.4358 14.3504 13.4645 14.2816C13.4933 14.2129 13.5081 14.1391 13.5081 14.0645C13.5081 13.99 13.4933 13.9162 13.4645 13.8474C13.4358 13.7786 13.3936 13.7163 13.3405 13.6639C13.2874 13.6116 13.2245 13.5703 13.1553 13.5425C13.0861 13.5147 13.0121 13.501 12.9376 13.502H8.43648Z" fill="#1B4976"/>
</g>
</svg>
