<svg width="24" height="24" viewBox="0 0 24 24" fill="none" xmlns="http://www.w3.org/2000/svg">
<rect width="24" height="24" rx="12" fill="#1B4976"/>
<path d="M15.9524 8.47058H8.04669C7.50191 8.47058 7.05859 8.92296 7.05859 9.47885V14.5211C7.05859 15.077 7.50192 15.5294 8.04669 15.5294H15.9529C16.4976 15.5294 16.9409 15.077 16.9409 14.5211V9.47933C16.9409 8.92296 16.4976 8.47058 15.9524 8.47058ZM7.5524 10.9768C8.58127 10.8601 9.3998 10.0248 9.51424 8.97496H14.4844C14.5988 10.0248 15.4173 10.8601 16.4462 10.9768V13.0231C15.4178 13.1404 14.5993 13.9756 14.4848 15.0255H9.51424C9.39982 13.9756 8.58127 13.1404 7.5524 13.0236V10.9768ZM16.4467 9.47933V10.4677C15.6911 10.3562 15.0931 9.74594 14.9837 8.97496H15.9524C16.2257 8.97496 16.4467 9.20044 16.4467 9.47933ZM8.04669 8.97496H9.01533C8.90647 9.74593 8.30843 10.3562 7.5524 10.4677V9.47933C7.5524 9.20044 7.77383 8.97496 8.04669 8.97496ZM7.5524 14.5211V13.5327C8.30795 13.6443 8.90599 14.2545 9.01533 15.0255H8.04669C7.77383 15.0255 7.5524 14.7996 7.5524 14.5211ZM15.9524 15.0255H14.9837C15.0926 14.2545 15.6906 13.6443 16.4467 13.5327V14.5211C16.4467 14.7996 16.2257 15.0255 15.9524 15.0255ZM10.7641 13.5129C10.6274 13.5129 10.5172 13.6258 10.5172 13.7648C10.5172 13.9043 10.6279 14.0168 10.7641 14.0168H11.7522V14.2687C11.7522 14.4082 11.8629 14.5207 11.9991 14.5207C12.1357 14.5207 12.246 14.4077 12.246 14.2687V14.0168H12.3697C12.9825 14.0168 13.4814 13.5077 13.4814 12.8823C13.4814 12.2564 12.9825 11.7478 12.3697 11.7478H12.246L12.2464 10.4876H13.2345C13.3712 10.4876 13.4814 10.3746 13.4814 10.2356C13.4814 10.0962 13.3707 9.9837 13.2345 9.9837H12.2464V9.73129C12.2464 9.59185 12.1357 9.47934 11.9995 9.47934C11.8629 9.47934 11.7526 9.59232 11.7526 9.73129V9.98323H11.6289C11.0156 9.98323 10.5171 10.4919 10.5171 11.1177C10.5171 11.7436 11.0156 12.2522 11.6289 12.2522H11.7526L11.7522 13.5129L10.7641 13.5129ZM11.6289 11.7483C11.2885 11.7483 11.0114 11.4656 11.0114 11.1182C11.0114 10.7707 11.2885 10.4881 11.6289 10.4881H11.7526V11.7488L11.6289 11.7483ZM12.2464 12.2522H12.3701C12.7106 12.2522 12.9876 12.5349 12.9876 12.8823C12.9876 13.2297 12.7106 13.5124 12.3701 13.5124H12.2464V12.2522Z" fill="white"/>
</svg>
