<svg width="24" height="25" viewBox="0 0 24 25" fill="none" xmlns="http://www.w3.org/2000/svg">
<rect y="0.126953" width="24" height="24" rx="12" fill="#1B4976"/>
<path d="M15.5931 12.0421V9.35331C15.5928 8.9811 15.4448 8.62422 15.1816 8.36098C14.9185 8.09774 14.5616 7.94964 14.1894 7.94916H13.6841V7.63473C13.6841 7.5156 13.6367 7.40135 13.5525 7.31711C13.4683 7.23287 13.354 7.18555 13.2349 7.18555C13.1158 7.18555 13.0015 7.23287 12.9173 7.31711C12.833 7.40135 12.7857 7.5156 12.7857 7.63473V7.94916H11.775V7.63473C11.775 7.5156 11.7277 7.40135 11.6435 7.31711C11.5592 7.23287 11.445 7.18555 11.3259 7.18555C11.2067 7.18555 11.0925 7.23287 11.0082 7.31711C10.924 7.40135 10.8767 7.5156 10.8767 7.63473V7.94916H9.866V7.63473C9.866 7.5156 9.81868 7.40135 9.73444 7.31711C9.6502 7.23287 9.53595 7.18555 9.41682 7.18555C9.29768 7.18555 9.18343 7.23287 9.09919 7.31711C9.01496 7.40135 8.96763 7.5156 8.96763 7.63473V7.94916H8.4623C8.09008 7.94964 7.73325 8.09774 7.4701 8.36098C7.20694 8.62422 7.05895 8.9811 7.05859 9.35331V14.3164C7.05907 14.6885 7.20711 15.0453 7.47025 15.3084C7.7334 15.5715 8.09016 15.7196 8.4623 15.7201H11.9152C12.1216 16.078 12.4075 16.3837 12.751 16.6134C13.0944 16.8431 13.4862 16.9907 13.8958 17.0448C14.3054 17.0988 14.722 17.0579 15.1133 16.9251C15.5046 16.7924 15.8601 16.5713 16.1522 16.2792C16.4444 15.987 16.6654 15.6315 16.7982 15.2402C16.9309 14.849 16.9719 14.4324 16.9178 14.0227C16.8637 13.6131 16.7162 13.2214 16.4864 12.8779C16.2567 12.5345 15.9511 12.2485 15.5931 12.0421ZM8.4623 8.84753H8.96763V9.16196C8.96763 9.28109 9.01496 9.39534 9.09919 9.47958C9.18343 9.56382 9.29768 9.61115 9.41682 9.61115C9.53595 9.61115 9.6502 9.56382 9.73444 9.47958C9.81868 9.39534 9.866 9.28109 9.866 9.16196V8.84753H10.8767V9.16196C10.8767 9.28109 10.924 9.39534 11.0082 9.47958C11.0925 9.56382 11.2067 9.61115 11.3259 9.61115C11.445 9.61115 11.5592 9.56382 11.6435 9.47958C11.7277 9.39534 11.775 9.28109 11.775 9.16196V8.84753H12.7857V9.16196C12.7857 9.28109 12.833 9.39534 12.9173 9.47958C13.0015 9.56382 13.1158 9.61115 13.2349 9.61115C13.354 9.61115 13.4683 9.56382 13.5525 9.47958C13.6367 9.39534 13.6841 9.28109 13.6841 9.16196V8.84753H14.1894C14.3234 8.84777 14.4519 8.90115 14.5466 8.99596C14.6414 9.09078 14.6946 9.21929 14.6947 9.35331V10.24H7.95696V9.35331C7.95708 9.21929 8.01035 9.09078 8.10508 8.99596C8.19981 8.90115 8.32827 8.84777 8.4623 8.84753ZM11.5504 14.3725C11.5513 14.5231 11.5649 14.6734 11.5909 14.8217H8.4623C8.32835 14.8215 8.19995 14.7681 8.10523 14.6734C8.01052 14.5787 7.9572 14.4503 7.95696 14.3164V11.1384H14.6947V11.7178C14.3081 11.6499 13.9113 11.6676 13.5324 11.7699C13.1534 11.8722 12.8015 12.0564 12.5016 12.3097C12.2017 12.5629 11.961 12.8789 11.7967 13.2353C11.6323 13.5918 11.5483 13.98 11.5504 14.3725ZM14.2456 16.1692C13.8902 16.1692 13.5428 16.0639 13.2473 15.8664C12.9519 15.669 12.7216 15.3884 12.5856 15.0601C12.4496 14.7318 12.414 14.3705 12.4833 14.022C12.5527 13.6734 12.7238 13.3533 12.9751 13.102C13.2263 12.8507 13.5465 12.6796 13.895 12.6103C14.2436 12.541 14.6048 12.5765 14.9331 12.7125C15.2614 12.8485 15.5421 13.0788 15.7395 13.3743C15.9369 13.6698 16.0423 14.0171 16.0423 14.3725C16.0423 14.849 15.853 15.306 15.516 15.643C15.1791 15.9799 14.7221 16.1692 14.2456 16.1692Z" fill="white"/>
<path d="M14.6952 14.187V13.4746C14.6952 13.3554 14.6479 13.2412 14.5637 13.157C14.4794 13.0727 14.3652 13.0254 14.2461 13.0254C14.1269 13.0254 14.0127 13.0727 13.9284 13.157C13.8442 13.2412 13.7969 13.3554 13.7969 13.4746V14.3729C13.7969 14.4921 13.8442 14.6063 13.9285 14.6905L14.3777 15.1397C14.4624 15.2215 14.5759 15.2668 14.6936 15.2658C14.8114 15.2648 14.9241 15.2175 15.0073 15.1342C15.0906 15.051 15.1379 14.9383 15.1389 14.8205C15.1399 14.7027 15.0946 14.5893 15.0128 14.5046L14.6952 14.187Z" fill="white"/>
</svg>
