<svg width="18" height="19" viewBox="0 0 18 19" fill="none" xmlns="http://www.w3.org/2000/svg">
<path d="M5.25 9.64795C2.25 9.64795 2.25 10.9861 2.25 12.6382V13.3857C2.25 15.449 2.25 17.1235 6 17.1235H12C15 17.1235 15.75 15.449 15.75 13.3857V12.6382C15.75 10.9861 15.75 9.64795 12.75 9.64795C12 9.64795 11.79 9.80494 11.4 10.0965L10.635 10.9038C9.75 11.8458 8.25 11.8458 7.3575 10.9038L6.6 10.0965C6.21 9.80494 6 9.64795 5.25 9.64795Z" stroke="#1B4976" stroke-width="1.2" stroke-miterlimit="10" stroke-linecap="round" stroke-linejoin="round"/>
<path d="M14.2496 9.64791V5.16258C14.2496 3.51049 14.2496 2.17236 11.2496 2.17236H6.74963C3.74963 2.17236 3.74963 3.51049 3.74963 5.16258V9.64791" stroke="#1B4976" stroke-width="1.2" stroke-miterlimit="10" stroke-linecap="round" stroke-linejoin="round"/>
<path d="M7.91235 7.57715H10.4099" stroke="#1B4976" stroke-width="1.2" stroke-linecap="round" stroke-linejoin="round"/>
<path d="M7.29053 5.33447H11.0405" stroke="#1B4976" stroke-width="1.2" stroke-linecap="round" stroke-linejoin="round"/>
</svg>
