<svg width="14" height="17" viewBox="0 0 14 17" fill="none" xmlns="http://www.w3.org/2000/svg">
<path d="M13.6922 4.68623L9.31719 0.311231C9.2591 0.253209 9.19015 0.2072 9.11428 0.175833C9.03841 0.144465 8.9571 0.128354 8.875 0.128418H1.375C1.04348 0.128418 0.725537 0.260114 0.491116 0.494535C0.256696 0.728955 0.125 1.0469 0.125 1.37842V15.1284C0.125 15.4599 0.256696 15.7779 0.491116 16.0123C0.725537 16.2467 1.04348 16.3784 1.375 16.3784H12.625C12.9565 16.3784 13.2745 16.2467 13.5089 16.0123C13.7433 15.7779 13.875 15.4599 13.875 15.1284V5.12842C13.8751 5.04632 13.859 4.96501 13.8276 4.88914C13.7962 4.81327 13.7502 4.74432 13.6922 4.68623ZM9.5 2.26201L11.7414 4.50342H9.5V2.26201ZM12.625 15.1284H1.375V1.37842H8.25V5.12842C8.25 5.29418 8.31585 5.45315 8.43306 5.57036C8.55027 5.68757 8.70924 5.75342 8.875 5.75342H12.625V15.1284ZM9.31719 10.3112C9.3753 10.3693 9.4214 10.4382 9.45285 10.5141C9.4843 10.59 9.50049 10.6713 9.50049 10.7534C9.50049 10.8356 9.4843 10.9169 9.45285 10.9928C9.4214 11.0686 9.3753 11.1376 9.31719 11.1956L7.44219 13.0706C7.38414 13.1287 7.31521 13.1748 7.23934 13.2063C7.16346 13.2377 7.08213 13.2539 7 13.2539C6.91787 13.2539 6.83654 13.2377 6.76066 13.2063C6.68479 13.1748 6.61586 13.1287 6.55781 13.0706L4.68281 11.1956C4.56554 11.0783 4.49965 10.9193 4.49965 10.7534C4.49965 10.5876 4.56554 10.4285 4.68281 10.3112C4.80009 10.194 4.95915 10.1281 5.125 10.1281C5.29085 10.1281 5.44991 10.194 5.56719 10.3112L6.375 11.1198V7.62842C6.375 7.46266 6.44085 7.30369 6.55806 7.18648C6.67527 7.06927 6.83424 7.00342 7 7.00342C7.16576 7.00342 7.32473 7.06927 7.44194 7.18648C7.55915 7.30369 7.625 7.46266 7.625 7.62842V11.1198L8.43281 10.3112C8.49086 10.2531 8.55979 10.207 8.63566 10.1756C8.71154 10.1441 8.79287 10.1279 8.875 10.1279C8.95713 10.1279 9.03846 10.1441 9.11434 10.1756C9.19021 10.207 9.25914 10.2531 9.31719 10.3112Z" fill="#1B4976"/>
</svg>
