<svg width="16" height="19" viewBox="0 0 16 19" fill="none" xmlns="http://www.w3.org/2000/svg">
<path d="M4.87578 0.312522C4.05678 0.312522 3.43341 0.30966 2.90835 0.368919C2.38328 0.428178 1.90264 0.559107 1.54328 0.918784C1.18396 1.27846 1.05365 1.75898 0.994695 2.28385C0.935842 2.80775 0.938289 3.43025 0.938298 4.24617C0.938298 4.2466 0.938298 4.24702 0.938298 4.24745V4.25001V12.1276C0.938178 13.6257 0.842656 14.5121 1.37922 15.2627C1.64767 15.6383 2.08134 15.8526 2.52634 15.9459C2.83537 16.0107 3.19139 16.0322 3.5812 16.0446C3.5893 16.2818 3.59681 16.5151 3.61965 16.7175C3.67891 17.2426 3.80979 17.7245 4.16952 18.0838C4.52924 18.4431 5.00978 18.5722 5.53458 18.6311C6.05939 18.69 6.68269 18.6875 7.50077 18.6875H11.3921C11.4075 18.6885 11.4229 18.6889 11.4383 18.6888C12.2564 18.6888 12.8797 18.6914 13.4045 18.6324C13.9293 18.5734 14.4098 18.4431 14.7695 18.0838C15.1292 17.7245 15.2601 17.2439 15.3194 16.7188C15.3786 16.194 15.3758 15.5696 15.3758 14.7513V6.875C15.376 6.8463 15.3743 6.81761 15.3707 6.78913C15.3706 6.29052 15.3666 5.89275 15.1643 5.48818C14.9497 5.05878 14.6298 4.7665 14.0877 4.22437C13.5455 3.68184 13.2573 3.36324 12.8277 3.14773C12.7571 3.11229 12.6867 3.0902 12.6162 3.0657C12.5448 2.87025 12.4449 2.68044 12.3163 2.51198C12.1087 2.24003 11.8476 1.98425 11.4627 1.5994C10.9205 1.05687 10.6323 0.738272 10.2027 0.522759C9.7865 0.31396 9.38006 0.313731 8.8569 0.313836C8.84154 0.312867 8.82615 0.31244 8.81076 0.312554L4.87578 0.312522ZM4.87578 1.62502H8.15703V2.93752H7.50078C6.68178 2.93752 6.05841 2.93466 5.53335 2.99392C5.00828 3.05318 4.52764 3.18411 4.16828 3.54378C3.80896 3.90346 3.67865 4.38398 3.6197 4.90885C3.56084 5.43275 3.56329 6.05525 3.5633 6.87117C3.5633 6.8716 3.5633 6.87202 3.5633 6.87245V6.87501V14.731C3.24141 14.7176 2.96652 14.6976 2.79555 14.6618C2.53241 14.6066 2.49454 14.5656 2.44692 14.499C2.35174 14.3658 2.25094 13.6245 2.25081 12.1278V4.24751C2.25082 3.43139 2.25496 2.82666 2.29952 2.43002C2.34413 2.03292 2.41961 1.89854 2.47127 1.84683C2.52293 1.79512 2.6586 1.71861 3.05574 1.6738C3.45288 1.62898 4.05744 1.62502 4.87578 1.62502ZM9.46953 1.66091C9.51839 1.67102 9.57746 1.67765 9.61309 1.69552C9.73325 1.7558 9.99274 1.98383 10.5347 2.52607C10.5347 2.5265 10.5347 2.52692 10.5347 2.52735C10.7365 2.72914 10.7971 2.80599 10.9217 2.93751H9.46953L9.46953 1.66091ZM7.50078 4.25001H10.782V6.87501C10.7821 7.23743 11.0759 7.53122 11.4383 7.53126H14.0633V14.7513V14.7526C14.0633 15.5702 14.0594 16.1745 14.0146 16.5714C13.9698 16.9685 13.8932 17.1029 13.8415 17.1546C13.7898 17.2063 13.6555 17.283 13.2584 17.3276C12.8694 17.3713 12.2743 17.3762 11.4819 17.3763C11.4665 17.3754 11.4511 17.3749 11.4357 17.3751H7.5008C6.68318 17.3751 6.07786 17.3722 5.68076 17.3276C5.28364 17.2831 5.14923 17.2062 5.09757 17.1546C5.04591 17.103 4.96935 16.9686 4.92454 16.5714C4.87977 16.1747 4.87584 15.5696 4.87583 14.7526V6.87498V6.87242C4.87584 6.05631 4.87995 5.45157 4.92454 5.05494C4.96914 4.65783 5.04463 4.52345 5.09629 4.47175C5.14794 4.42004 5.28362 4.34353 5.68076 4.29871C6.0779 4.25389 6.68244 4.25001 7.50078 4.25001ZM12.0945 4.2859C12.1434 4.29601 12.2025 4.30264 12.2381 4.32051C12.3582 4.38079 12.6177 4.60883 13.1597 5.15106C13.1597 5.15149 13.1597 5.15191 13.1597 5.15234C13.7011 5.69375 13.9294 5.95218 13.9902 6.07391C14.0083 6.11014 14.0147 6.16938 14.0248 6.21875H12.0945L12.0945 4.2859Z" fill="#666666"/>
<path d="M6.84235 12.1273C6.75539 12.1261 6.66906 12.1422 6.58836 12.1746C6.50766 12.207 6.43421 12.2552 6.37228 12.3162C6.31035 12.3773 6.26117 12.4501 6.22761 12.5303C6.19404 12.6105 6.17676 12.6966 6.17676 12.7836C6.17676 12.8706 6.19404 12.9567 6.22761 13.0369C6.26117 13.1171 6.31035 13.1899 6.37228 13.2509C6.43421 13.312 6.50766 13.3601 6.58836 13.3926C6.66906 13.425 6.75539 13.4411 6.84235 13.4398H12.0937C12.1806 13.4411 12.267 13.425 12.3477 13.3926C12.4284 13.3601 12.5018 13.312 12.5637 13.2509C12.6257 13.1899 12.6748 13.1171 12.7084 13.0369C12.742 12.9567 12.7593 12.8706 12.7593 12.7836C12.7593 12.6966 12.742 12.6105 12.7084 12.5303C12.6748 12.4501 12.6257 12.3773 12.5637 12.3162C12.5018 12.2552 12.4284 12.207 12.3477 12.1746C12.267 12.1422 12.1806 12.1261 12.0937 12.1273H6.84235Z" fill="#666666"/>
<path d="M6.84235 9.50234C6.75539 9.50111 6.66906 9.51718 6.58836 9.5496C6.50766 9.58203 6.43421 9.63017 6.37228 9.69123C6.31035 9.75229 6.26117 9.82505 6.22761 9.90529C6.19404 9.98552 6.17676 10.0716 6.17676 10.1586C6.17676 10.2456 6.19404 10.3317 6.22761 10.4119C6.26117 10.4921 6.31035 10.5649 6.37228 10.6259C6.43421 10.687 6.50766 10.7351 6.58836 10.7676C6.66906 10.8 6.75539 10.8161 6.84235 10.8148H12.0937C12.1806 10.8161 12.267 10.8 12.3477 10.7676C12.4284 10.7351 12.5018 10.687 12.5637 10.6259C12.6257 10.5649 12.6748 10.4921 12.7084 10.4119C12.742 10.3317 12.7593 10.2456 12.7593 10.1586C12.7593 10.0716 12.742 9.98552 12.7084 9.90529C12.6748 9.82505 12.6257 9.75229 12.5637 9.69123C12.5018 9.63017 12.4284 9.58203 12.3477 9.5496C12.267 9.51718 12.1806 9.50111 12.0937 9.50234H6.84235Z" fill="#666666"/>
<path d="M6.84235 14.7523C6.75539 14.7511 6.66906 14.7672 6.58836 14.7996C6.50766 14.832 6.43421 14.8802 6.37228 14.9412C6.31035 15.0023 6.26117 15.0751 6.22761 15.1553C6.19404 15.2355 6.17676 15.3216 6.17676 15.4086C6.17676 15.4956 6.19404 15.5817 6.22761 15.6619C6.26117 15.7421 6.31035 15.8149 6.37228 15.8759C6.43421 15.937 6.50766 15.9851 6.58836 16.0176C6.66906 16.05 6.75539 16.0661 6.84235 16.0648H12.0937C12.1806 16.0661 12.267 16.05 12.3477 16.0176C12.4284 15.9851 12.5018 15.937 12.5637 15.8759C12.6257 15.8149 12.6748 15.7421 12.7084 15.6619C12.742 15.5817 12.7593 15.4956 12.7593 15.4086C12.7593 15.3216 12.742 15.2355 12.7084 15.1553C12.6748 15.0751 12.6257 15.0023 12.5637 14.9412C12.5018 14.8802 12.4284 14.832 12.3477 14.7996C12.267 14.7672 12.1806 14.7511 12.0937 14.7523H6.84235Z" fill="#666666"/>
</svg>
