<svg width="20" height="21" viewBox="0 0 20 21" fill="none" xmlns="http://www.w3.org/2000/svg">
<path d="M16.25 2.75366H3.75C3.41848 2.75366 3.10054 2.88536 2.86612 3.11978C2.6317 3.3542 2.5 3.67214 2.5 4.00366V16.5037C2.5 16.8352 2.6317 17.1531 2.86612 17.3875C3.10054 17.622 3.41848 17.7537 3.75 17.7537H16.25C16.5815 17.7537 16.8995 17.622 17.1339 17.3875C17.3683 17.1531 17.5 16.8352 17.5 16.5037V4.00366C17.5 3.67214 17.3683 3.3542 17.1339 3.11978C16.8995 2.88536 16.5815 2.75366 16.25 2.75366ZM16.25 4.00366V12.1287H14.0078C13.8437 12.1282 13.6812 12.1604 13.5297 12.2233C13.3781 12.2862 13.2406 12.3786 13.125 12.4951L11.6164 14.0037H8.38359L6.875 12.4951C6.75935 12.3785 6.62168 12.2861 6.46999 12.2232C6.3183 12.1603 6.15562 12.1281 5.99141 12.1287H3.75V4.00366H16.25ZM16.25 16.5037H3.75V13.3787H5.99141L7.5 14.8873C7.61565 15.0038 7.75332 15.0963 7.90501 15.1592C8.0567 15.2221 8.21938 15.2542 8.38359 15.2537H11.6164C11.7806 15.2542 11.9433 15.2221 12.095 15.1592C12.2467 15.0963 12.3843 15.0038 12.5 14.8873L14.0086 13.3787H16.25V16.5037ZM7.05781 10.0708C6.94054 9.95357 6.87465 9.79451 6.87465 9.62866C6.87465 9.46281 6.94054 9.30375 7.05781 9.18647C7.17509 9.0692 7.33415 9.00331 7.5 9.00331C7.66585 9.00331 7.82491 9.0692 7.94219 9.18647L9.375 10.6201V5.87866C9.375 5.7129 9.44085 5.55393 9.55806 5.43672C9.67527 5.31951 9.83424 5.25366 10 5.25366C10.1658 5.25366 10.3247 5.31951 10.4419 5.43672C10.5592 5.55393 10.625 5.7129 10.625 5.87866V10.6201L12.0578 9.18647C12.1159 9.12841 12.1848 9.08234 12.2607 9.05092C12.3366 9.01949 12.4179 9.00331 12.5 9.00331C12.5821 9.00331 12.6634 9.01949 12.7393 9.05092C12.8152 9.08234 12.8841 9.12841 12.9422 9.18647C13.0003 9.24454 13.0463 9.31348 13.0777 9.38935C13.1092 9.46522 13.1253 9.54654 13.1253 9.62866C13.1253 9.71078 13.1092 9.7921 13.0777 9.86797C13.0463 9.94384 13.0003 10.0128 12.9422 10.0708L10.4422 12.5709C10.3841 12.629 10.3152 12.6751 10.2393 12.7065C10.1635 12.738 10.0821 12.7542 10 12.7542C9.91787 12.7542 9.83654 12.738 9.76066 12.7065C9.68479 12.6751 9.61586 12.629 9.55781 12.5709L7.05781 10.0708Z" fill="#1B4976"/>
</svg>
