<svg width="40" height="40" viewBox="0 0 40 40" fill="none" xmlns="http://www.w3.org/2000/svg">
<rect y="-0.000488281" width="40" height="40" rx="12" fill="#F5F5F5"/>
<mask id="mask0_2423_11959" style="mask-type:luminance" maskUnits="userSpaceOnUse" x="11" y="10" width="18" height="19">
<path d="M29 10.9995H11V28.9995H29V10.9995Z" fill="white"/>
</mask>
<g mask="url(#mask0_2423_11959)">
<path d="M17.7501 12.1245C17.0481 12.1245 16.5138 12.1221 16.0637 12.1729C15.6136 12.2237 15.2017 12.3359 14.8936 12.6442C14.5857 12.9525 14.474 13.3644 14.4234 13.8142C14.373 14.2633 14.3751 14.7969 14.3751 15.4962C14.3751 15.4966 14.3751 15.497 14.3751 15.4973V15.4995V22.2518C14.375 23.5358 14.2931 24.2956 14.753 24.939C14.9831 25.261 15.3548 25.4446 15.7363 25.5246C16.0012 25.5801 16.3063 25.5985 16.6404 25.6092C16.6474 25.8124 16.6538 26.0124 16.6734 26.1859C16.7242 26.6361 16.8364 27.0491 17.1447 27.3571C17.453 27.665 17.8649 27.7757 18.3148 27.8262C18.7646 27.8767 19.2989 27.8745 20.0001 27.8745H23.3355C23.3487 27.8754 23.3619 27.8757 23.3751 27.8756C24.0763 27.8756 24.6106 27.8778 25.0604 27.8273C25.5102 27.7768 25.9221 27.6651 26.2304 27.3571C26.5387 27.0491 26.651 26.6371 26.7018 26.187C26.7525 25.7372 26.7501 25.202 26.7501 24.5006V17.7495C26.7502 17.7249 26.7488 17.7003 26.7457 17.6759C26.7456 17.2485 26.7422 16.9076 26.5688 16.5608C26.3849 16.1928 26.1107 15.9422 25.646 15.4775C25.1812 15.0125 24.9343 14.7394 24.566 14.5547C24.5055 14.5243 24.4452 14.5054 24.3848 14.4844C24.3235 14.3169 24.2379 14.1542 24.1277 14.0098C23.9497 13.7767 23.7259 13.5574 23.396 13.2276C22.9312 12.7625 22.6843 12.4895 22.316 12.3047C21.9593 12.1258 21.6109 12.1256 21.1625 12.1257C21.1493 12.1248 21.1361 12.1245 21.1229 12.1246L17.7501 12.1245ZM17.7501 13.2495H20.5626V14.3745H20.0001C19.2981 14.3745 18.7638 14.3721 18.3137 14.4229C17.8636 14.4737 17.4517 14.5859 17.1436 14.8942C16.8357 15.2025 16.724 15.6144 16.6734 16.0642C16.623 16.5133 16.6251 17.0469 16.6251 17.7462C16.6251 17.7466 16.6251 17.747 16.6251 17.7473V17.7495V24.4832C16.3492 24.4718 16.1136 24.4546 15.967 24.4239C15.7415 24.3766 15.709 24.3415 15.6682 24.2844C15.5866 24.1702 15.5002 23.5348 15.5001 22.2519V15.4974C15.5001 14.7978 15.5037 14.2795 15.5419 13.9395C15.5801 13.5992 15.6448 13.484 15.6891 13.4397C15.7333 13.3953 15.8496 13.3298 16.19 13.2913C16.5304 13.2529 17.0486 13.2495 17.7501 13.2495ZM21.6876 13.2803C21.7295 13.289 21.7801 13.2946 21.8106 13.31C21.9136 13.3616 22.136 13.5571 22.6005 14.0219C22.6005 14.0222 22.6005 14.0226 22.6005 14.023C22.7735 14.1959 22.8255 14.2618 22.9323 14.3745H21.6876L21.6876 13.2803ZM20.0001 15.4995H22.8126V17.7495C22.8126 18.0602 23.0644 18.312 23.3751 18.312H25.6251V24.5006V24.5017C25.6251 25.2026 25.6217 25.7205 25.5833 26.0607C25.5449 26.4011 25.4793 26.5163 25.435 26.5606C25.3907 26.6049 25.2755 26.6707 24.9351 26.7089C24.6017 26.7464 24.0917 26.7505 23.4125 26.7507C23.3993 26.7498 23.3861 26.7495 23.3729 26.7496H20.0001C19.2993 26.7496 18.7804 26.7471 18.4401 26.7089C18.0997 26.6707 17.9845 26.6048 17.9402 26.5606C17.8959 26.5164 17.8303 26.4011 17.7919 26.0607C17.7535 25.7207 17.7501 25.2021 17.7501 24.5017V17.7495V17.7473C17.7501 17.0478 17.7537 16.5294 17.7919 16.1895C17.8301 15.8491 17.8948 15.7339 17.9391 15.6896C17.9834 15.6453 18.0997 15.5797 18.4401 15.5413C18.7805 15.5028 19.2986 15.4995 20.0001 15.4995ZM23.9376 15.5303C23.9795 15.539 24.0301 15.5446 24.0606 15.5599C24.1636 15.6116 24.386 15.8071 24.8505 16.2718C24.8505 16.2722 24.8505 16.2726 24.8505 16.2729C25.3146 16.737 25.5103 16.9585 25.5624 17.0629C25.578 17.0939 25.5834 17.1447 25.5921 17.187H23.9376L23.9376 15.5303Z" fill="#666666"/>
<path d="M19.4365 22.252C19.3619 22.251 19.2879 22.2647 19.2188 22.2925C19.1496 22.3203 19.0866 22.3616 19.0336 22.4139C18.9805 22.4663 18.9383 22.5286 18.9096 22.5974C18.8808 22.6662 18.866 22.74 18.866 22.8145C18.866 22.8891 18.8808 22.9629 18.9096 23.0316C18.9383 23.1004 18.9805 23.1628 19.0336 23.2151C19.0866 23.2674 19.1496 23.3087 19.2188 23.3365C19.2879 23.3643 19.3619 23.3781 19.4365 23.377H23.9376C24.0121 23.3781 24.0861 23.3643 24.1553 23.3365C24.2245 23.3087 24.2874 23.2674 24.3405 23.2151C24.3936 23.1628 24.4358 23.1004 24.4645 23.0316C24.4933 22.9629 24.5081 22.8891 24.5081 22.8145C24.5081 22.74 24.4933 22.6662 24.4645 22.5974C24.4358 22.5286 24.3936 22.4663 24.3405 22.4139C24.2874 22.3616 24.2245 22.3203 24.1553 22.2925C24.0861 22.2647 24.0121 22.251 23.9376 22.252H19.4365Z" fill="#666666"/>
<path d="M19.4365 20.002C19.3619 20.001 19.2879 20.0147 19.2188 20.0425C19.1496 20.0703 19.0866 20.1116 19.0336 20.1639C18.9805 20.2163 18.9383 20.2786 18.9096 20.3474C18.8808 20.4162 18.866 20.49 18.866 20.5645C18.866 20.6391 18.8808 20.7129 18.9096 20.7816C18.9383 20.8504 18.9805 20.9128 19.0336 20.9651C19.0866 21.0174 19.1496 21.0587 19.2188 21.0865C19.2879 21.1143 19.3619 21.1281 19.4365 21.127H23.9376C24.0121 21.1281 24.0861 21.1143 24.1553 21.0865C24.2245 21.0587 24.2874 21.0174 24.3405 20.9651C24.3936 20.9128 24.4358 20.8504 24.4645 20.7816C24.4933 20.7129 24.5081 20.6391 24.5081 20.5645C24.5081 20.49 24.4933 20.4162 24.4645 20.3474C24.4358 20.2786 24.3936 20.2163 24.3405 20.1639C24.2874 20.1116 24.2245 20.0703 24.1553 20.0425C24.0861 20.0147 24.0121 20.001 23.9376 20.002H19.4365Z" fill="#666666"/>
<path d="M19.4365 24.502C19.3619 24.501 19.2879 24.5147 19.2188 24.5425C19.1496 24.5703 19.0866 24.6116 19.0336 24.6639C18.9805 24.7163 18.9383 24.7786 18.9096 24.8474C18.8808 24.9162 18.866 24.99 18.866 25.0645C18.866 25.1391 18.8808 25.2129 18.9096 25.2816C18.9383 25.3504 18.9805 25.4128 19.0336 25.4651C19.0866 25.5174 19.1496 25.5587 19.2188 25.5865C19.2879 25.6143 19.3619 25.6281 19.4365 25.627H23.9376C24.0121 25.6281 24.0861 25.6143 24.1553 25.5865C24.2245 25.5587 24.2874 25.5174 24.3405 25.4651C24.3936 25.4128 24.4358 25.3504 24.4645 25.2816C24.4933 25.2129 24.5081 25.1391 24.5081 25.0645C24.5081 24.99 24.4933 24.9162 24.4645 24.8474C24.4358 24.7786 24.3936 24.7163 24.3405 24.6639C24.2874 24.6116 24.2245 24.5703 24.1553 24.5425C24.0861 24.5147 24.0121 24.501 23.9376 24.502H19.4365Z" fill="#666666"/>
</g>
</svg>
