<svg width="21" height="22" viewBox="0 0 21 22" fill="none" xmlns="http://www.w3.org/2000/svg">
<path fill-rule="evenodd" clip-rule="evenodd" d="M10.5026 0.5C4.71347 0.5 0 5.21347 0 11.0026C0 16.7917 4.71347 21.5 10.5026 21.5C16.2917 21.5 21 16.7917 21 11.0026C21 5.21347 16.2917 0.5 10.5026 0.5ZM10.5026 2.25014C15.3458 2.25014 19.2499 6.15932 19.2499 11.0026C19.2499 15.8458 15.3458 19.7499 10.5026 19.7499C5.65932 19.7499 1.75014 15.8458 1.75014 11.0026C1.75014 6.15932 5.65932 2.25014 10.5026 2.25014Z" fill="#666666"/>
<path fill-rule="evenodd" clip-rule="evenodd" d="M6.30011 7.14977C6.30011 6.95653 6.45651 6.80012 6.64975 6.80012L7.5501 6.80011V8.79969C7.5501 9.2136 7.88535 9.54984 8.29974 9.54984H10.8329H11.5996C12.0138 9.54984 12.3498 9.21384 12.3498 8.79969V7.31038L14.5972 9.5578C14.6626 9.62317 14.6995 9.71244 14.6995 9.80565V14.8499C14.6995 15.0431 14.5431 15.1995 14.3499 15.1995H13.9997V12.0996C13.9997 11.6852 13.6635 11.35 13.2495 11.35H9.77973H7.75007C7.33616 11.35 6.99991 11.6852 6.99991 12.0996V15.1995H6.64975C6.45651 15.1995 6.30011 15.0431 6.30011 14.8499V7.14977ZM6.43575 15.3563C6.50152 15.3841 6.57384 15.3995 6.64977 15.3995H7.19992V12.0996C7.19992 11.7959 7.44639 11.55 7.75008 11.55M6.43575 15.3563C6.50152 15.3841 6.57383 15.3995 6.64975 15.3995H7.19991V12.0996C7.19991 11.7959 7.44638 11.55 7.75007 11.55M7.7501 6.60012V8.79969C7.7501 9.10338 7.99605 9.34984 8.29974 9.34984M7.7501 6.60012H7.75011V8.7997C7.75011 9.10339 7.99606 9.34986 8.29975 9.34986M13.2495 11.55C13.3178 11.55 13.3831 11.5624 13.4435 11.5851L13.2495 11.55ZM13.2496 11.55C13.3178 11.55 13.3831 11.5624 13.4435 11.5851L13.2496 11.55ZM13.7997 15.3995V15.3995H14.3499C14.6536 15.3995 14.8995 15.1536 14.8995 14.8499V9.80566C14.8995 9.73956 14.8877 9.67462 14.8651 9.61377C14.8877 9.67462 14.8995 9.73955 14.8995 9.80565V14.8499C14.8995 15.1536 14.6536 15.3995 14.3499 15.3995H13.7997ZM4.7998 14.8499C4.7998 15.8714 5.62822 16.6998 6.64975 16.6998L14.3499 16.6998C15.3714 16.6998 16.1998 15.8714 16.1998 14.8498V9.80563C16.1998 9.31471 16.0044 8.84418 15.6576 8.49739L13.0022 5.84203C12.6553 5.49458 12.1847 5.2998 11.694 5.2998H6.64975C5.62822 5.2998 4.7998 6.12822 4.7998 7.14975V14.8499ZM12.6999 15.3995V12.6498H12.6999V15.3995H8.29972V15.3995H12.6999ZM8.4997 13.5378V12.8498H8.90227H12.4999V15.1995H8.4997V13.5378ZM10.85 6.80012V8.05007H9.04986V6.80012H10.85ZM8.84987 8.25007H11.05V6.60013H11.05V8.25008H8.84987V8.25007ZM5.10885 15.4409C5.03841 15.2574 4.9998 15.0581 4.9998 14.8499V7.14975C4.9998 6.23868 5.73868 5.4998 6.64975 5.4998H11.694C12.0223 5.4998 12.3405 5.59754 12.6095 5.77715C12.3405 5.59755 12.0223 5.49982 11.694 5.49982H6.64977C5.73869 5.49982 4.99982 6.23869 4.99982 7.14976V14.8499C4.99982 15.0581 5.03841 15.2574 5.10885 15.4409ZM12.8608 5.98345C12.8608 5.98345 12.8608 5.98346 12.8608 5.98346L12.8978 6.02047" fill="#666666"/>
</svg>
