<svg width="21" height="21" viewBox="0 0 21 21" fill="none" xmlns="http://www.w3.org/2000/svg">
<path fill-rule="evenodd" clip-rule="evenodd" d="M10.5026 0C4.71347 0 0 4.71347 0 10.5026C0 16.2917 4.71347 21 10.5026 21C16.2917 21 21 16.2917 21 10.5026C21 4.71347 16.2917 0 10.5026 0ZM10.5026 1.75014C15.3458 1.75014 19.2499 5.65932 19.2499 10.5026C19.2499 15.3458 15.3458 19.2499 10.5026 19.2499C5.65932 19.2499 1.75014 15.3458 1.75014 10.5026C1.75014 5.65932 5.65932 1.75014 10.5026 1.75014Z" fill="#666666"/>
<path d="M11.6953 4.79688C12.1858 4.79697 12.6561 4.99165 13.0029 5.33887L12.8955 5.51465L15.5098 8.12793L15.6582 7.99414C16.005 8.34094 16.2012 8.81182 16.2012 9.30273V14.3467C16.2012 15.3682 15.3721 16.1973 14.3506 16.1973H6.65039L6.87012 15.9971H6.65039L6.57812 15.9932L6.46191 16.1875C5.52903 16.0929 4.80078 15.3045 4.80078 14.3467V6.64648C4.80096 5.62522 5.62913 4.79706 6.65039 4.79688H11.6953ZM6.65039 6.29688C6.45742 6.29706 6.30097 6.45352 6.30078 6.64648V14.3467C6.30078 14.5398 6.45731 14.6961 6.65039 14.6963H7.00098V11.5967C7.00098 11.1823 7.3371 10.8467 7.75098 10.8467H9.68164L9.56152 11.0469H12.3057L12.5254 10.8467H13.251C13.6647 10.8469 14.001 11.1824 14.001 11.5967V14.6963H14.3506C14.5438 14.6963 14.7002 14.5399 14.7002 14.3467V9.30273C14.7002 9.20958 14.6639 9.12004 14.5986 9.05469L14.5479 9.00391L14.6963 8.87012L12.3115 6.48535L12.1504 6.75195V8.29688C12.1503 8.60052 11.9042 8.84668 11.6006 8.84668H10.8877L10.7676 9.04688H8.30078C7.88642 9.04688 7.55085 8.71073 7.55078 8.29688V6.29688H6.65039ZM8.77734 12.3467H8.50098V12.8047L8.30078 13.1367V14.6934L8.50098 14.5117V14.6963H12.501V12.3467H10.8789L11.0986 12.1465H8.89844L8.77734 12.3467ZM10.8789 12.3467L8.50098 14.5117V12.8047L8.77734 12.3467H10.8789ZM14.5479 9.00391L12.5254 10.8467H9.68164L10.7676 9.04688H11.6006C12.0147 9.04688 12.3505 8.71097 12.3506 8.29688V6.80762L14.5479 9.00391ZM9.05078 7.54688H10.8506V6.29688H9.05078V7.54688Z" fill="#666666"/>
</svg>
