<svg width="24" height="24" viewBox="0 0 24 24" fill="none" xmlns="http://www.w3.org/2000/svg">
<path d="M17.7987 5.07766C17.7359 5.02905 17.6627 4.99554 17.5849 4.97973C17.5071 4.96392 17.4266 4.96623 17.3498 4.98647C16.915 5.09986 16.4674 5.15709 16.0181 5.15675C15.233 5.15824 14.4576 4.98309 13.7494 4.64428C13.0411 4.30547 12.4181 3.81166 11.9264 3.19941C11.8796 3.13934 11.8201 3.09034 11.7521 3.05591C11.6842 3.02148 11.6095 3.00247 11.5333 3.00022C11.4572 2.99798 11.3815 3.01256 11.3116 3.04293C11.2418 3.0733 11.1795 3.11871 11.1292 3.17593C11.1229 3.18283 11.1154 3.19181 11.1064 3.20321C10.6147 3.81425 9.99214 4.30701 9.28461 4.64514C8.57708 4.98326 7.80267 5.1581 7.01854 5.15675C6.55723 5.15706 6.09787 5.09679 5.65224 4.97749C5.57549 4.95688 5.49502 4.95421 5.41706 4.96969C5.33911 4.98517 5.26576 5.01839 5.2027 5.06678C5.13964 5.11517 5.08856 5.17742 5.05341 5.24872C5.01826 5.32003 4.99998 5.39847 5 5.47797V13.498C5 17.0832 7.91594 20 11.5 20C15.0841 20 18 17.0832 18 13.498V5.48764C18 5.40846 17.9819 5.33033 17.947 5.25926C17.9121 5.18819 17.8613 5.12606 17.7987 5.07766Z" fill="#666666"/>
<path d="M13.8337 9.74935V12.9993C13.8337 13.9993 13.3116 14.3327 12.667 14.3327H10.3337C9.68908 14.3327 9.16699 13.9993 9.16699 12.9993V9.74935C9.16699 8.66602 9.68908 8.41602 10.3337 8.41602C10.3337 8.62268 10.4066 8.80935 10.5262 8.94601C10.6457 9.08268 10.8091 9.16602 10.9899 9.16602H12.0107C12.3724 9.16602 12.667 8.82935 12.667 8.41602C13.3116 8.41602 13.8337 8.66602 13.8337 9.74935Z" stroke="white" stroke-width="0.7" stroke-linecap="round" stroke-linejoin="round"/>
<path d="M12.6663 8.41602C12.6663 8.82935 12.3718 9.16602 12.0101 9.16602H10.9893C10.8084 9.16602 10.6451 9.08268 10.5255 8.94601C10.4059 8.80935 10.333 8.62268 10.333 8.41602C10.333 8.00268 10.6276 7.66602 10.9893 7.66602H12.0101C12.1909 7.66602 12.3543 7.74935 12.4738 7.88602C12.5934 8.02268 12.6663 8.20935 12.6663 8.41602Z" stroke="white" stroke-width="0.7" stroke-linecap="round" stroke-linejoin="round"/>
<path d="M10.333 11.334H11.4997" stroke="white" stroke-width="0.7" stroke-linecap="round" stroke-linejoin="round"/>
<path d="M10.333 12.666H12.6663" stroke="white" stroke-width="0.7" stroke-linecap="round" stroke-linejoin="round"/>
</svg>
