<svg width="15" height="15" viewBox="0 0 15 15" fill="none" xmlns="http://www.w3.org/2000/svg">
<path d="M6.875 1.25H5.625C2.5 1.25 1.25 2.5 1.25 5.625V9.375C1.25 12.5 2.5 13.75 5.625 13.75H9.375C12.5 13.75 13.75 12.5 13.75 9.375V8.125" stroke="#0095DB" stroke-width="1.5" stroke-linecap="round" stroke-linejoin="round"/>
<path d="M10.0252 1.88729L5.10017 6.81229C4.91267 6.99979 4.72517 7.36854 4.68767 7.63729L4.41892 9.51854C4.31892 10.1998 4.80017 10.6748 5.48142 10.581L7.36267 10.3123C7.62517 10.2748 7.99392 10.0873 8.18767 9.89979L13.1127 4.97479C13.9627 4.12479 14.3627 3.13729 13.1127 1.88729C11.8627 0.637292 10.8752 1.03729 10.0252 1.88729Z" stroke="#0095DB" stroke-width="1.5" stroke-miterlimit="10" stroke-linecap="round" stroke-linejoin="round"/>
<path d="M9.31885 2.59375C9.7376 4.0875 10.9063 5.25625 12.4063 5.68125" stroke="#0095DB" stroke-width="1.5" stroke-miterlimit="10" stroke-linecap="round" stroke-linejoin="round"/>
</svg>
