<svg width="68" height="68" viewBox="0 0 68 68" fill="none" xmlns="http://www.w3.org/2000/svg">
<circle cx="34" cy="34" r="34" fill="#0082BB"/>
<path d="M47.0692 23.5766L42.2951 42.7441C41.9551 44.175 40.6801 45.1666 39.2067 45.1666H20.5917C18.4526 45.1666 16.9226 43.0698 17.5601 41.0157L23.5242 21.8625C23.9351 20.5308 25.1676 19.6099 26.5559 19.6099H43.9809C45.3267 19.6099 46.4459 20.4315 46.9134 21.5649C47.1826 22.174 47.2392 22.8683 47.0692 23.5766Z" stroke="white" stroke-width="2" stroke-miterlimit="10"/>
<path d="M38.668 45.1667H45.4396C47.2671 45.1667 48.698 43.6225 48.5705 41.795L47.168 22.5" stroke="white" stroke-width="2" stroke-miterlimit="10" stroke-linecap="round" stroke-linejoin="round"/>
<path d="M29.7109 23.0384L31.1843 16.9185" stroke="white" stroke-width="2" stroke-miterlimit="10" stroke-linecap="round" stroke-linejoin="round"/>
<path d="M39.2031 23.0526L40.5348 16.9043" stroke="white" stroke-width="2" stroke-miterlimit="10" stroke-linecap="round" stroke-linejoin="round"/>
<path d="M26.9102 31H38.2435" stroke="white" stroke-width="2" stroke-miterlimit="10" stroke-linecap="round" stroke-linejoin="round"/>
<path d="M25.4922 36.6665H36.8255" stroke="white" stroke-width="2" stroke-miterlimit="10" stroke-linecap="round" stroke-linejoin="round"/>
</svg>
