<svg width="68" height="68" viewBox="0 0 68 68" fill="none" xmlns="http://www.w3.org/2000/svg">
<circle cx="34" cy="34" r="34" fill="#0082BB"/>
<path d="M42.558 36.1961C41.963 36.777 41.623 37.6128 41.708 38.5053C41.8355 40.0353 43.238 41.1545 44.768 41.1545H47.4596V42.8403C47.4596 45.7728 45.0655 48.167 42.133 48.167H25.8696C22.9371 48.167 20.543 45.7728 20.543 42.8403V33.3062C20.543 30.3737 22.9371 27.9795 25.8696 27.9795H42.133C45.0655 27.9795 47.4596 30.3737 47.4596 33.3062V35.3462H44.598C43.8046 35.3462 43.0821 35.6578 42.558 36.1961Z" stroke="white" stroke-width="2" stroke-linecap="round" stroke-linejoin="round"/>
<path d="M20.543 34.5813V28.1072C20.543 26.4214 21.5771 24.9197 23.1496 24.3247L34.398 20.0747C36.1546 19.4088 38.0388 20.7122 38.0388 22.5964V27.9797" stroke="white" stroke-width="2" stroke-linecap="round" stroke-linejoin="round"/>
<path d="M48.9577 36.7906V39.7091C48.9577 40.4882 48.3343 41.1257 47.541 41.154H44.7643C43.2343 41.154 41.8318 40.0348 41.7043 38.5048C41.6193 37.6123 41.9593 36.7765 42.5543 36.1957C43.0785 35.6573 43.801 35.3457 44.5943 35.3457H47.541C48.3343 35.374 48.9577 36.0115 48.9577 36.7906Z" stroke="white" stroke-width="2" stroke-linecap="round" stroke-linejoin="round"/>
<path d="M26.918 34H36.8346" stroke="white" stroke-width="2" stroke-linecap="round" stroke-linejoin="round"/>
</svg>
