<svg width="24" height="25" viewBox="0 0 24 25" fill="none" xmlns="http://www.w3.org/2000/svg">
<path d="M15.5799 12.8564C15.5799 14.83 13.9799 16.4247 11.9999 16.4247C10.0199 16.4247 8.41992 14.83 8.41992 12.8564C8.41992 10.8829 10.0199 9.28809 11.9999 9.28809C13.9799 9.28809 15.5799 10.8829 15.5799 12.8564Z" stroke="#585858" stroke-width="1.5" stroke-linecap="round" stroke-linejoin="round"/>
<path d="M11.9998 21.0991C15.5298 21.0991 18.8198 19.0258 21.1098 15.4376C22.0098 14.0322 22.0098 11.6699 21.1098 10.2645C18.8198 6.67624 15.5298 4.60303 11.9998 4.60303C8.46984 4.60303 5.17984 6.67624 2.88984 10.2645C1.98984 11.6699 1.98984 14.0322 2.88984 15.4376C5.17984 19.0258 8.46984 21.0991 11.9998 21.0991Z" stroke="#585858" stroke-width="1.5" stroke-linecap="round" stroke-linejoin="round"/>
</svg>
