<svg width="10" height="17" viewBox="0 0 10 17" fill="none" xmlns="http://www.w3.org/2000/svg">
<path d="M9.19254 11.5607C9.25065 11.6188 9.29675 11.6877 9.3282 11.7636C9.35965 11.8395 9.37584 11.9208 9.37584 12.0029C9.37584 12.0851 9.35965 12.1664 9.3282 12.2423C9.29675 12.3181 9.25065 12.3871 9.19254 12.4451L5.44254 16.1951C5.38449 16.2532 5.31556 16.2993 5.23969 16.3308C5.16381 16.3622 5.08248 16.3784 5.00035 16.3784C4.91821 16.3784 4.83688 16.3622 4.76101 16.3308C4.68514 16.2993 4.61621 16.2532 4.55816 16.1951L0.80816 12.4451C0.690884 12.3278 0.625 12.1688 0.625 12.0029C0.625 11.8371 0.690884 11.678 0.80816 11.5607C0.925435 11.4435 1.0845 11.3776 1.25035 11.3776C1.4162 11.3776 1.57526 11.4435 1.69254 11.5607L5.00035 14.8693L8.30816 11.5607C8.36621 11.5026 8.43514 11.4565 8.51101 11.4251C8.58688 11.3936 8.66821 11.3774 8.75035 11.3774C8.83248 11.3774 8.91381 11.3936 8.98969 11.4251C9.06556 11.4565 9.13449 11.5026 9.19254 11.5607ZM1.69254 4.94512L5.00035 1.63653L8.30816 4.94512C8.42544 5.0624 8.5845 5.12828 8.75035 5.12828C8.9162 5.12828 9.07526 5.0624 9.19254 4.94512C9.30981 4.82785 9.3757 4.66879 9.3757 4.50293C9.3757 4.33708 9.30981 4.17802 9.19254 4.06075L5.44254 0.310746C5.38449 0.252635 5.31556 0.206536 5.23969 0.175083C5.16381 0.14363 5.08248 0.127441 5.00035 0.127441C4.91821 0.127441 4.83688 0.14363 4.76101 0.175083C4.68514 0.206536 4.61621 0.252635 4.55816 0.310746L0.80816 4.06075C0.690884 4.17802 0.625 4.33708 0.625 4.50293C0.625 4.66879 0.690885 4.82785 0.80816 4.94512C0.925436 5.0624 1.0845 5.12828 1.25035 5.12828C1.4162 5.12828 1.57526 5.0624 1.69254 4.94512Z" fill="#1B4976"/>
</svg>
