<svg width="24" height="25" viewBox="0 0 24 25" fill="none" xmlns="http://www.w3.org/2000/svg">
<rect y="0.5" width="24" height="24" rx="12" fill="#1B4976"/>
<path d="M14.2876 8.12113C11.8697 6.85788 8.88499 7.79381 7.62132 10.2118C6.35764 12.6301 7.29401 15.6144 9.71191 16.8781C12.1302 18.1418 15.1145 17.2059 16.3781 14.7875C17.6418 12.3696 16.7059 9.38483 14.2876 8.12113ZM15.8085 14.4899C14.7092 16.5933 12.1133 17.4073 10.0099 16.3085C7.90602 15.2091 7.09203 12.6132 8.1913 10.5093C9.29016 8.40584 11.8865 7.59184 13.9899 8.69112C16.0933 9.79 16.9073 12.3864 15.8085 14.4899Z" fill="white"/>
<path d="M14.1678 12.177H12.3208V9.45437C12.3208 9.27676 12.1769 9.13281 11.9993 9.13281C11.8217 9.13281 11.6777 9.27676 11.6777 9.45437V12.4981C11.6777 12.6757 11.8217 12.8197 11.9993 12.8197H12.3208H14.1678C14.3454 12.8197 14.4893 12.6757 14.4893 12.4981C14.4889 12.321 14.3454 12.177 14.1678 12.177Z" fill="white"/>
</svg>
