<svg width="11" height="11" viewBox="0 0 11 11" fill="none" xmlns="http://www.w3.org/2000/svg">
<path d="M5.5 0C6.97807 0 8.36466 0.586472 9.38909 1.61091C9.5739 1.79572 9.74508 1.9931 9.90141 2.20139L9.9 1.1C9.9 0.81794 10.1123 0.585463 10.3859 0.553693L10.45 0.55C10.7321 0.55 10.9645 0.762329 10.9963 1.03587L11 1.1V3.85C11 4.13206 10.7877 4.36454 10.5141 4.39631L10.45 4.4H7.7C7.39624 4.4 7.15 4.15376 7.15 3.85C7.15 3.56794 7.36233 3.33546 7.63587 3.30369L7.7 3.3L9.31153 3.30012C9.11928 2.96783 8.88383 2.66129 8.61127 2.38873C7.79108 1.56854 6.68333 1.1 5.5 1.1C3.06995 1.1 1.1 3.06995 1.1 5.5C1.1 7.93005 3.06995 9.9 5.5 9.9C6.68333 9.9 7.79108 9.43147 8.61127 8.61127C9.01989 8.20265 9.3451 7.71765 9.56637 7.18404C9.67638 6.91874 9.76017 6.64277 9.81625 6.35929C9.87519 6.06131 10.1645 5.86753 10.4625 5.92648C10.7605 5.98543 10.9543 6.27478 10.8953 6.57276C10.8251 6.92764 10.7202 7.27323 10.5825 7.60538C10.3057 8.27281 9.89937 8.87881 9.38909 9.38909C8.36466 10.4135 6.97807 11 5.5 11C2.46243 11 0 8.53757 0 5.5C0 2.46243 2.46243 0 5.5 0Z" fill="#1D1D1B"/>
</svg>
