<svg width="22" height="21" viewBox="0 0 22 21" fill="none" xmlns="http://www.w3.org/2000/svg">
<path d="M20.75 4.75094H14C13.4178 4.75094 12.8437 4.88648 12.3229 5.14684C11.8022 5.40719 11.3493 5.7852 11 6.25094C10.6507 5.7852 10.1978 5.40719 9.67705 5.14684C9.15634 4.88648 8.58217 4.75094 8 4.75094H1.25C1.05109 4.75094 0.860322 4.82996 0.71967 4.97061C0.579018 5.11126 0.5 5.30203 0.5 5.50094V16.7509C0.5 16.9499 0.579018 17.1406 0.71967 17.2813C0.860322 17.4219 1.05109 17.5009 1.25 17.5009H8C8.59674 17.5009 9.16903 17.738 9.59099 18.1599C10.0129 18.5819 10.25 19.1542 10.25 19.7509C10.25 19.9499 10.329 20.1406 10.4697 20.2813C10.6103 20.4219 10.8011 20.5009 11 20.5009C11.1989 20.5009 11.3897 20.4219 11.5303 20.2813C11.671 20.1406 11.75 19.9499 11.75 19.7509C11.75 19.1542 11.9871 18.5819 12.409 18.1599C12.831 17.738 13.4033 17.5009 14 17.5009H20.75C20.9489 17.5009 21.1397 17.4219 21.2803 17.2813C21.421 17.1406 21.5 16.9499 21.5 16.7509V5.50094C21.5 5.30203 21.421 5.11126 21.2803 4.97061C21.1397 4.82996 20.9489 4.75094 20.75 4.75094ZM8 16.0009H2V6.25094H8C8.59674 6.25094 9.16903 6.48799 9.59099 6.90995C10.0129 7.3319 10.25 7.9042 10.25 8.50094V16.7509C9.6015 16.2629 8.8116 15.9996 8 16.0009ZM20 16.0009H14C13.1884 15.9996 12.3985 16.2629 11.75 16.7509V8.50094C11.75 7.9042 11.9871 7.3319 12.409 6.90995C12.831 6.48799 13.4033 6.25094 14 6.25094H20V16.0009ZM7.4 2.05C7.81916 1.49112 8.36269 1.0375 8.98754 0.725078C9.61239 0.412653 10.3014 0.25 11 0.25C11.6986 0.25 12.3876 0.412653 13.0125 0.725078C13.6373 1.0375 14.1808 1.49112 14.6 2.05C14.7196 2.20901 14.7711 2.40901 14.7433 2.60601C14.7154 2.80301 14.6104 2.98087 14.4514 3.10047C14.2924 3.22006 14.0924 3.2716 13.8954 3.24373C13.6984 3.21586 13.5205 3.11088 13.4009 2.95188C13.1215 2.57893 12.7591 2.2762 12.3423 2.06769C11.9256 1.85918 11.466 1.75062 11 1.75062C10.534 1.75062 10.0744 1.85918 9.65766 2.06769C9.24091 2.2762 8.87847 2.57893 8.59906 2.95188C8.53984 3.03061 8.4657 3.0969 8.38086 3.14698C8.29602 3.19706 8.20215 3.22993 8.1046 3.24373C8.00706 3.25753 7.90775 3.25198 7.81235 3.2274C7.71695 3.20282 7.62733 3.15969 7.54859 3.10047C7.46986 3.04125 7.40357 2.96711 7.35349 2.88227C7.30341 2.79743 7.27054 2.70355 7.25674 2.60601C7.24294 2.50846 7.24849 2.40916 7.27307 2.31376C7.29765 2.21836 7.34078 2.12873 7.4 2.05Z" fill="black"/>
</svg>
