<svg width="68" height="68" viewBox="0 0 68 68" fill="none" xmlns="http://www.w3.org/2000/svg">
<circle cx="34" cy="34" r="34" fill="#0082BB"/>
<path d="M37.1985 25.7949H29.7327C27.0977 25.7949 26.5027 27.1124 26.1768 28.7416L24.9727 34.4791H41.9727L40.7685 28.7416C40.4143 27.1124 39.8335 25.7949 37.1985 25.7949Z" stroke="white" stroke-width="2" stroke-linecap="round" stroke-linejoin="round"/>
<path d="M44.0695 43.8432C44.1828 45.0898 43.1912 46.1665 41.9162 46.1665H39.9187C38.7712 46.1665 38.6153 45.6707 38.4028 45.0757L38.1903 44.4382C37.8928 43.5741 37.6945 42.979 36.1645 42.979H30.7245C29.1945 42.979 28.9678 43.6449 28.6987 44.4382L28.4862 45.0757C28.2878 45.6848 28.132 46.1665 26.9703 46.1665H24.9728C23.6978 46.1665 22.692 45.0898 22.8195 43.8432L23.4145 37.369C23.5703 35.7682 23.8678 34.4648 26.6587 34.4648H40.2162C43.007 34.4648 43.3045 35.7682 43.4603 37.369L44.0695 43.8432Z" stroke="white" stroke-width="2" stroke-linecap="round" stroke-linejoin="round"/>
<path d="M24.9609 31.291H23.8984" stroke="white" stroke-width="2" stroke-linecap="round" stroke-linejoin="round"/>
<path d="M43.0234 31.291H41.9609" stroke="white" stroke-width="2" stroke-linecap="round" stroke-linejoin="round"/>
<path d="M27.0859 38.7285H30.2734" stroke="white" stroke-width="2" stroke-linecap="round" stroke-linejoin="round"/>
<path d="M36.6484 38.7285H39.8359" stroke="white" stroke-width="2" stroke-linecap="round" stroke-linejoin="round"/>
<path d="M46.5064 27.3819C46.9031 26.4611 46.7614 25.2144 46.0247 24.1236C45.3022 23.0327 44.1972 22.4236 43.1914 22.4377" stroke="white" stroke-width="2" stroke-linecap="round" stroke-linejoin="round"/>
<path d="M50.9126 28.7838C51.5076 26.6446 51.0825 24.0239 49.5667 21.7572C48.0509 19.4905 45.7842 18.1022 43.5742 17.833" stroke="white" stroke-width="2" stroke-linecap="round" stroke-linejoin="round"/>
</svg>
