<svg width="16" height="16" viewBox="0 0 16 16" fill="none" xmlns="http://www.w3.org/2000/svg">
<g clip-path="url(#clip0_19003_19306)">
<path d="M5.97733 2.57227L6.46876 1.30369C6.55164 1.08891 6.69745 0.904163 6.8871 0.773651C7.07675 0.643139 7.3014 0.572946 7.53162 0.572266H8.46876C8.69898 0.572946 8.92362 0.643139 9.11327 0.773651C9.30292 0.904163 9.44874 1.08891 9.53162 1.30369L10.023 2.57227L11.6916 3.53227L13.0402 3.32655C13.2647 3.29607 13.4933 3.33304 13.6968 3.43275C13.9003 3.53246 14.0695 3.69042 14.183 3.88655L14.6402 4.68655C14.7573 4.88581 14.8113 5.1159 14.795 5.34646C14.7787 5.57702 14.6928 5.79721 14.5488 5.97798L13.7145 7.04084V8.96084L14.5716 10.0237C14.7157 10.2045 14.8015 10.4247 14.8178 10.6552C14.8342 10.8858 14.7802 11.1159 14.663 11.3151L14.2059 12.1151C14.0924 12.3113 13.9231 12.4692 13.7196 12.5689C13.5161 12.6686 13.2876 12.7056 13.063 12.6751L11.7145 12.4694L10.0459 13.4294L9.55447 14.698C9.47159 14.9128 9.32578 15.0975 9.13613 15.228C8.94648 15.3585 8.72183 15.4287 8.49162 15.4294H7.53162C7.3014 15.4287 7.07675 15.3585 6.8871 15.228C6.69745 15.0975 6.55164 14.9128 6.46876 14.698L5.97733 13.4294L4.30876 12.4694L2.96019 12.6751C2.73564 12.7056 2.50709 12.6686 2.3036 12.5689C2.1001 12.4692 1.93084 12.3113 1.81733 12.1151L1.36019 11.3151C1.24305 11.1159 1.18908 10.8858 1.2054 10.6552C1.22172 10.4247 1.30757 10.2045 1.45162 10.0237L2.2859 8.96084V7.04084L1.42876 5.97798C1.28471 5.79721 1.19886 5.57702 1.18254 5.34646C1.16622 5.1159 1.22019 4.88581 1.33733 4.68655L1.79447 3.88655C1.90799 3.69042 2.07724 3.53246 2.28074 3.43275C2.48423 3.33304 2.71278 3.29607 2.93733 3.32655L4.2859 3.53227L5.97733 2.57227ZM5.71447 8.00084C5.71447 8.45291 5.84853 8.89483 6.09969 9.27071C6.35084 9.64659 6.70782 9.93956 7.12548 10.1126C7.54314 10.2856 8.00272 10.3308 8.44611 10.2426C8.88949 10.1544 9.29677 9.93674 9.61643 9.61708C9.93609 9.29742 10.1538 8.89014 10.242 8.44676C10.3302 8.00337 10.2849 7.54379 10.1119 7.12613C9.93891 6.70847 9.64595 6.35149 9.27006 6.10033C8.89418 5.84918 8.45226 5.71512 8.00019 5.71512C7.39398 5.71512 6.8126 5.95594 6.38394 6.38459C5.95529 6.81325 5.71447 7.39463 5.71447 8.00084V8.00084Z" stroke="#666666" stroke-width="2" stroke-linecap="round" stroke-linejoin="round"/>
</g>
<defs>
<clipPath id="clip0_19003_19306">
<rect width="16" height="16" fill="white"/>
</clipPath>
</defs>
</svg>
