<svg width="20" height="21" viewBox="0 0 20 21" fill="none" xmlns="http://www.w3.org/2000/svg">
<path d="M18 10.5C18 10.6658 17.9342 10.8247 17.8169 10.9419C17.6997 11.0592 17.5408 11.125 17.375 11.125H3.625C3.45924 11.125 3.30027 11.0592 3.18306 10.9419C3.06585 10.8247 3 10.6658 3 10.5C3 10.3342 3.06585 10.1753 3.18306 10.0581C3.30027 9.94085 3.45924 9.875 3.625 9.875H17.375C17.5408 9.875 17.6997 9.94085 17.8169 10.0581C17.9342 10.1753 18 10.3342 18 10.5ZM3.625 6.125H17.375C17.5408 6.125 17.6997 6.05915 17.8169 5.94194C17.9342 5.82473 18 5.66576 18 5.5C18 5.33424 17.9342 5.17527 17.8169 5.05806C17.6997 4.94085 17.5408 4.875 17.375 4.875H3.625C3.45924 4.875 3.30027 4.94085 3.18306 5.05806C3.06585 5.17527 3 5.33424 3 5.5C3 5.66576 3.06585 5.82473 3.18306 5.94194C3.30027 6.05915 3.45924 6.125 3.625 6.125ZM17.375 14.875H3.625C3.45924 14.875 3.30027 14.9408 3.18306 15.0581C3.06585 15.1753 3 15.3342 3 15.5C3 15.6658 3.06585 15.8247 3.18306 15.9419C3.30027 16.0592 3.45924 16.125 3.625 16.125H17.375C17.5408 16.125 17.6997 16.0592 17.8169 15.9419C17.9342 15.8247 18 15.6658 18 15.5C18 15.3342 17.9342 15.1753 17.8169 15.0581C17.6997 14.9408 17.5408 14.875 17.375 14.875Z" fill="white"/>
</svg>
