<svg width="36" height="19" viewBox="0 0 36 19" fill="none" xmlns="http://www.w3.org/2000/svg">
<rect width="36" height="19" rx="4" fill="white"/>
<g clip-path="url(#clip0_799_18551)">
<path d="M28.9572 7.82998C29.9248 7.2202 27.6819 6.67044 25.1133 6.5065C25.344 6.49621 25.592 6.49244 25.8495 6.49244C27.1749 6.49244 28.7415 6.63443 29.4087 7.06004C28.9345 6.47564 26.5912 6.0123 25.1133 5.9804C25.3757 5.96909 25.6532 5.96394 25.9379 5.96394C27.3254 5.96394 28.8818 6.11416 29.6304 6.61556C29.0063 5.93067 26.635 5.48688 25.1133 5.45293C25.3881 5.44264 25.6824 5.43544 25.9823 5.43544C27.4219 5.43544 29.0154 5.5908 29.6195 6.11313C28.9011 5.31095 26.6458 4.98857 25.1133 4.92786C25.3908 4.91552 25.6806 4.90934 25.9738 4.90934C27.2747 4.90934 28.6429 5.03692 29.3019 5.40663C28.7231 4.87813 26.5671 4.43126 25.1133 4.40039C26.8087 4.40039 29.1593 4.43126 29.9948 5.27391C30.5838 5.8662 30.0665 7.26684 28.9569 7.82998" fill="#60BEEC"/>
<path d="M25.415 8.85928C23.7196 8.85928 21.3684 8.82841 20.5329 7.98576C19.9448 7.39381 20.4611 5.99317 21.5708 5.42969C20.6032 6.03947 22.8467 6.58923 25.415 6.75317C25.1843 6.76346 24.9363 6.7686 24.679 6.7686C23.3519 6.7686 21.7865 6.62661 21.1199 6.201C21.594 6.78403 23.937 7.24737 25.415 7.28167C25.1526 7.29196 24.8754 7.2971 24.5904 7.2971C23.2029 7.2971 21.6459 7.14791 20.8982 6.64548C21.5222 7.3314 23.8936 7.77416 25.415 7.80811C25.1393 7.81943 24.8452 7.82663 24.546 7.82663C23.1055 7.82663 21.5132 7.67024 20.9081 7.14791C21.6275 7.94975 23.8828 8.2711 25.415 8.33284C25.1375 8.34415 24.8467 8.35136 24.5545 8.35136C23.2536 8.35136 21.8851 8.22275 21.2257 7.85201C21.8055 8.38154 23.9612 8.82841 25.415 8.85928Z" fill="#D4D87E"/>
<mask id="mask0_799_18551" style="mask-type:luminance" maskUnits="userSpaceOnUse" x="25" y="4" width="7" height="8">
<path d="M25.1128 4.8418H31.9998V11.1327H25.1128V4.8418Z" fill="white"/>
</mask>
<g mask="url(#mask0_799_18551)">
<path d="M28.7944 4.8418C29.4417 5.03385 30.0661 5.55721 30.0661 6.42627C30.0661 7.62285 28.3688 8.59 25.13 8.59H25.1128V11.1327H25.1297C29.8519 11.1327 32.0007 9.09552 32.0007 7.46681C32.001 6.31652 31.0427 5.27015 28.7944 4.8418Z" fill="#1B4976"/>
</g>
<path d="M21.5669 8.17326C20.9431 7.98395 20.3426 7.47123 20.3426 6.6176C20.3426 5.44434 21.9771 4.49434 25.0986 4.49434H25.114V2H25.0983C20.5486 2 18.4783 4.00014 18.4783 5.59627C18.4783 6.72803 19.4006 7.75314 21.5669 8.17326Z" fill="#0082BB"/>
<mask id="mask1_799_18551" style="mask-type:luminance" maskUnits="userSpaceOnUse" x="4" y="10" width="20" height="7">
<path d="M4 10.1895H23.6357V17.0003H4V10.1895Z" fill="white"/>
</mask>
<g mask="url(#mask1_799_18551)">
<path d="M21.3506 16.9995C21.3102 16.9995 21.2691 16.9995 21.2299 16.9995C20.3183 16.9977 19.4337 16.6474 18.7183 16.0049C18.3999 15.7156 18.1427 15.3486 17.9659 14.931C17.789 14.5135 17.6969 14.0561 17.6965 13.5926C17.6961 13.1291 17.7873 12.6715 17.9633 12.2535C18.1394 11.8355 18.3959 11.4679 18.7138 11.1778C19.4433 10.5145 20.3549 10.1643 21.2887 10.1887C22.0842 10.2349 22.8721 10.3883 23.6357 10.6459V12.5078C22.916 12.0736 22.1111 11.8546 21.2966 11.8712H21.2806C20.3097 11.8747 19.5776 12.6155 19.5776 13.5939C19.5776 14.5724 20.3094 15.3146 21.2794 15.3146C22.0937 15.2987 22.8962 15.0901 23.6357 14.702V16.4882C22.9086 16.8188 22.1336 16.9923 21.3506 16.9995ZM7.01623 16.9885C5.09972 16.9885 4 15.912 4 14.0346V10.2943H5.81788V13.9983C5.81788 14.8533 6.23865 15.3053 7.03433 15.3053C7.83001 15.3053 8.25289 14.8694 8.25289 14.0432V10.2943H10.0693V13.9897C10.0914 14.4148 10.0267 14.8399 9.88017 15.2318C9.73365 15.6237 9.5093 15.9716 9.22472 16.2484C8.58441 16.7745 7.8051 17.0356 7.01623 16.9885ZM13.6118 16.8925H10.8752V10.2943H13.6112C15.7313 10.2943 17.2714 11.6819 17.2714 13.5939C17.2696 14.0515 17.1752 14.5025 16.9955 14.9119C16.8157 15.3213 16.5556 15.6782 16.2351 15.9549C15.4772 16.5922 14.5534 16.9223 13.6112 16.8925H13.6118ZM12.6922 11.9508V15.236H13.6112C14.6741 15.236 15.3884 14.5762 15.3884 13.5939C15.3884 12.6117 14.6745 11.9508 13.6112 11.9508H12.6922Z" fill="#1B4976"/>
</g>
</g>
<defs>
<clipPath id="clip0_799_18551">
<rect width="28" height="15" fill="white" transform="translate(4 2)"/>
</clipPath>
</defs>
</svg>
