<svg width="17" height="16" viewBox="0 0 17 16" fill="none" xmlns="http://www.w3.org/2000/svg">
<g clip-path="url(#clip0_19003_19318)">
<path d="M11.0852 8.57143C13.9256 8.57143 16.2281 7.54808 16.2281 6.28571C16.2281 5.02335 13.9256 4 11.0852 4C8.24492 4 5.94238 5.02335 5.94238 6.28571C5.94238 7.54808 8.24492 8.57143 11.0852 8.57143Z" stroke="#666666" stroke-width="2" stroke-linecap="round" stroke-linejoin="round"/>
<path d="M5.94238 6.28516V13.1423C5.94238 14.3994 8.2281 15.428 11.0852 15.428C13.9424 15.428 16.2281 14.3994 16.2281 13.1423V6.28516" stroke="#666666" stroke-width="2" stroke-linecap="round" stroke-linejoin="round"/>
<path d="M16.2281 9.71484C16.2281 10.972 13.9424 12.0006 11.0852 12.0006C8.2281 12.0006 5.94238 10.972 5.94238 9.71484" stroke="#666666" stroke-width="2" stroke-linecap="round" stroke-linejoin="round"/>
<path d="M10.9711 1.71343C9.63566 0.889292 8.08118 0.49071 6.51395 0.570577C3.66824 0.570577 1.37109 1.59915 1.37109 2.85629C1.37109 3.53058 2.03395 4.13629 3.08538 4.57058" stroke="#666666" stroke-width="2" stroke-linecap="round" stroke-linejoin="round"/>
<path d="M3.08538 11.4269C2.03395 10.9926 1.37109 10.3869 1.37109 9.71261V2.85547" stroke="#666666" stroke-width="2" stroke-linecap="round" stroke-linejoin="round"/>
<path d="M3.08538 7.99944C2.03395 7.56516 1.37109 6.95944 1.37109 6.28516" stroke="#666666" stroke-width="2" stroke-linecap="round" stroke-linejoin="round"/>
</g>
<defs>
<clipPath id="clip0_19003_19318">
<rect width="16" height="16" fill="white" transform="translate(0.799805)"/>
</clipPath>
</defs>
</svg>
