<svg width="17" height="16" viewBox="0 0 17 16" fill="none" xmlns="http://www.w3.org/2000/svg">
<g clip-path="url(#clip0_19003_19297)">
<path d="M13.9143 8.57115V6.28544C13.9143 5.98233 13.7939 5.69164 13.5796 5.47731C13.3653 5.26299 13.0746 5.14258 12.7715 5.14258H1.91434C1.61124 5.14258 1.32055 5.26299 1.10622 5.47731C0.891892 5.69164 0.771484 5.98233 0.771484 6.28544V14.2854C0.771484 14.5885 0.891892 14.8792 1.10622 15.0936C1.32055 15.3079 1.61124 15.4283 1.91434 15.4283H12.7715C13.0746 15.4283 13.3653 15.3079 13.5796 15.0936C13.7939 14.8792 13.9143 14.5885 13.9143 14.2854V11.4283" stroke="#666666" stroke-width="2" stroke-linecap="round" stroke-linejoin="round"/>
<path d="M4.58887 2.28468L11.0689 0.593252C11.1417 0.572736 11.2179 0.567186 11.2929 0.576937C11.3679 0.586689 11.4402 0.611539 11.5054 0.649989C11.5705 0.688439 11.6272 0.739692 11.672 0.800653C11.7168 0.861613 11.7488 0.931019 11.766 1.00468L12.086 2.28468" stroke="#666666" stroke-width="2" stroke-linecap="round" stroke-linejoin="round"/>
<path d="M15.0575 8.57031H12.2003C11.8847 8.57031 11.6289 8.82615 11.6289 9.14174V10.856C11.6289 11.1716 11.8847 11.4275 12.2003 11.4275H15.0575C15.3731 11.4275 15.6289 11.1716 15.6289 10.856V9.14174C15.6289 8.82615 15.3731 8.57031 15.0575 8.57031Z" stroke="#666666" stroke-width="2" stroke-linecap="round" stroke-linejoin="round"/>
</g>
<defs>
<clipPath id="clip0_19003_19297">
<rect width="16" height="16" fill="white" transform="translate(0.200195)"/>
</clipPath>
</defs>
</svg>
