<svg width="124" height="20" viewBox="0 0 124 20" fill="none" xmlns="http://www.w3.org/2000/svg">
<rect width="123.603" height="20" rx="6" fill="#0082BB"/>
<path d="M52.9716 13.07C52.3249 13.07 51.7349 12.92 51.2016 12.62C50.6683 12.3133 50.2449 11.89 49.9316 11.35C49.6249 10.8033 49.4716 10.19 49.4716 9.51C49.4716 8.83 49.6249 8.22 49.9316 7.68C50.2449 7.13333 50.6683 6.71 51.2016 6.41C51.7349 6.10333 52.3249 5.95 52.9716 5.95C53.6249 5.95 54.2183 6.10333 54.7516 6.41C55.2849 6.71 55.7049 7.13 56.0116 7.67C56.3183 8.21 56.4716 8.82333 56.4716 9.51C56.4716 10.1967 56.3183 10.81 56.0116 11.35C55.7049 11.89 55.2849 12.3133 54.7516 12.62C54.2183 12.92 53.6249 13.07 52.9716 13.07ZM52.9716 12.28C53.4583 12.28 53.8949 12.1667 54.2816 11.94C54.6749 11.7133 54.9816 11.39 55.2016 10.97C55.4283 10.55 55.5416 10.0633 55.5416 9.51C55.5416 8.95 55.4283 8.46333 55.2016 8.05C54.9816 7.63 54.6783 7.30667 54.2916 7.08C53.9049 6.85333 53.4649 6.74 52.9716 6.74C52.4783 6.74 52.0383 6.85333 51.6516 7.08C51.2649 7.30667 50.9583 7.63 50.7316 8.05C50.5116 8.46333 50.4016 8.95 50.4016 9.51C50.4016 10.0633 50.5116 10.55 50.7316 10.97C50.9583 11.39 51.2649 11.7133 51.6516 11.94C52.0449 12.1667 52.4849 12.28 52.9716 12.28ZM58.4829 8.53C58.6629 8.21667 58.9296 7.95667 59.2829 7.75C59.6429 7.53667 60.0596 7.43 60.5329 7.43C61.0196 7.43 61.4596 7.54667 61.8529 7.78C62.2529 8.01333 62.5663 8.34333 62.7929 8.77C63.0196 9.19 63.1329 9.68 63.1329 10.24C63.1329 10.7933 63.0196 11.2867 62.7929 11.72C62.5663 12.1533 62.2529 12.49 61.8529 12.73C61.4596 12.97 61.0196 13.09 60.5329 13.09C60.0663 13.09 59.6529 12.9867 59.2929 12.78C58.9396 12.5667 58.6696 12.3033 58.4829 11.99V15.6H57.5729V7.52H58.4829V8.53ZM62.2029 10.24C62.2029 9.82667 62.1196 9.46667 61.9529 9.16C61.7863 8.85333 61.5596 8.62 61.2729 8.46C60.9929 8.3 60.6829 8.22 60.3429 8.22C60.0096 8.22 59.6996 8.30333 59.4129 8.47C59.1329 8.63 58.9063 8.86667 58.7329 9.18C58.5663 9.48667 58.4829 9.84333 58.4829 10.25C58.4829 10.6633 58.5663 11.0267 58.7329 11.34C58.9063 11.6467 59.1329 11.8833 59.4129 12.05C59.6996 12.21 60.0096 12.29 60.3429 12.29C60.6829 12.29 60.9929 12.21 61.2729 12.05C61.5596 11.8833 61.7863 11.6467 61.9529 11.34C62.1196 11.0267 62.2029 10.66 62.2029 10.24ZM69.2307 10.05C69.2307 10.2233 69.2207 10.4067 69.2007 10.6H64.8207C64.8541 11.14 65.0374 11.5633 65.3707 11.87C65.7107 12.17 66.1207 12.32 66.6007 12.32C66.9941 12.32 67.3207 12.23 67.5807 12.05C67.8474 11.8633 68.0341 11.6167 68.1407 11.31H69.1207C68.9741 11.8367 68.6807 12.2667 68.2407 12.6C67.8007 12.9267 67.2541 13.09 66.6007 13.09C66.0807 13.09 65.6141 12.9733 65.2007 12.74C64.7941 12.5067 64.4741 12.1767 64.2407 11.75C64.0074 11.3167 63.8907 10.8167 63.8907 10.25C63.8907 9.68333 64.0041 9.18667 64.2307 8.76C64.4574 8.33333 64.7741 8.00667 65.1807 7.78C65.5941 7.54667 66.0674 7.43 66.6007 7.43C67.1207 7.43 67.5807 7.54333 67.9807 7.77C68.3807 7.99667 68.6874 8.31 68.9007 8.71C69.1207 9.10333 69.2307 9.55 69.2307 10.05ZM68.2907 9.86C68.2907 9.51333 68.2141 9.21667 68.0607 8.97C67.9074 8.71667 67.6974 8.52667 67.4307 8.4C67.1707 8.26667 66.8807 8.2 66.5607 8.2C66.1007 8.2 65.7074 8.34667 65.3807 8.64C65.0607 8.93333 64.8774 9.34 64.8307 9.86H68.2907ZM73.0019 7.42C73.6686 7.42 74.2086 7.62333 74.6219 8.03C75.0352 8.43 75.2419 9.01 75.2419 9.77V13H74.3419V9.9C74.3419 9.35333 74.2052 8.93667 73.9319 8.65C73.6586 8.35667 73.2852 8.21 72.8119 8.21C72.3319 8.21 71.9486 8.36 71.6619 8.66C71.3819 8.96 71.2419 9.39667 71.2419 9.97V13H70.3319V7.52H71.2419V8.3C71.4219 8.02 71.6652 7.80333 71.9719 7.65C72.2852 7.49667 72.6286 7.42 73.0019 7.42Z" fill="white"/>
</svg>
