<svg width="22" height="21" viewBox="0 0 22 21" fill="none" xmlns="http://www.w3.org/2000/svg">
<path d="M19.75 9.5375V3.5875C19.75 2.275 19.19 1.75 17.7988 1.75H14.2637C12.8725 1.75 12.3125 2.275 12.3125 3.5875V9.5375C12.3125 10.85 12.8725 11.375 14.2637 11.375H17.7988C19.19 11.375 19.75 10.85 19.75 9.5375Z" stroke="#1D1D1B" stroke-width="1.5" stroke-linecap="round" stroke-linejoin="round"/>
<path d="M19.75 17.4125V15.8375C19.75 14.525 19.19 14 17.7988 14H14.2637C12.8725 14 12.3125 14.525 12.3125 15.8375V17.4125C12.3125 18.725 12.8725 19.25 14.2637 19.25H17.7988C19.19 19.25 19.75 18.725 19.75 17.4125Z" stroke="#1D1D1B" stroke-width="1.5" stroke-linecap="round" stroke-linejoin="round"/>
<path d="M9.6875 11.4625V17.4125C9.6875 18.725 9.1275 19.25 7.73625 19.25H4.20125C2.81 19.25 2.25 18.725 2.25 17.4125V11.4625C2.25 10.15 2.81 9.625 4.20125 9.625H7.73625C9.1275 9.625 9.6875 10.15 9.6875 11.4625Z" stroke="#1D1D1B" stroke-width="1.5" stroke-linecap="round" stroke-linejoin="round"/>
<path d="M9.6875 3.5875V5.1625C9.6875 6.475 9.1275 7 7.73625 7H4.20125C2.81 7 2.25 6.475 2.25 5.1625V3.5875C2.25 2.275 2.81 1.75 4.20125 1.75H7.73625C9.1275 1.75 9.6875 2.275 9.6875 3.5875Z" stroke="#1D1D1B" stroke-width="1.5" stroke-linecap="round" stroke-linejoin="round"/>
</svg>
