<svg width="24" height="25" viewBox="0 0 24 25" fill="none" xmlns="http://www.w3.org/2000/svg">
<rect y="0.5" width="24" height="24" rx="12" fill="#1B4976"/>
<path d="M15.5931 12.4152V9.72636C15.5928 9.35414 15.4448 8.99727 15.1816 8.73403C14.9185 8.47079 14.5616 8.32268 14.1894 8.32221H13.6841V8.00778C13.6841 7.88865 13.6367 7.7744 13.5525 7.69016C13.4683 7.60592 13.354 7.55859 13.2349 7.55859C13.1158 7.55859 13.0015 7.60592 12.9173 7.69016C12.833 7.7744 12.7857 7.88865 12.7857 8.00778V8.32221H11.775V8.00778C11.775 7.88865 11.7277 7.7744 11.6435 7.69016C11.5592 7.60592 11.445 7.55859 11.3259 7.55859C11.2067 7.55859 11.0925 7.60592 11.0082 7.69016C10.924 7.7744 10.8767 7.88865 10.8767 8.00778V8.32221H9.866V8.00778C9.866 7.88865 9.81868 7.7744 9.73444 7.69016C9.6502 7.60592 9.53595 7.55859 9.41682 7.55859C9.29768 7.55859 9.18343 7.60592 9.09919 7.69016C9.01496 7.7744 8.96763 7.88865 8.96763 8.00778V8.32221H8.4623C8.09008 8.32268 7.73325 8.47079 7.4701 8.73403C7.20694 8.99727 7.05895 9.35414 7.05859 9.72636V14.6894C7.05907 15.0615 7.20711 15.4183 7.47025 15.6814C7.7334 15.9446 8.09016 16.0926 8.4623 16.0931H11.9152C12.1216 16.4511 12.4075 16.7567 12.751 16.9864C13.0944 17.2162 13.4862 17.3637 13.8958 17.4178C14.3054 17.4719 14.722 17.4309 15.1133 17.2982C15.5046 17.1654 15.8601 16.9444 16.1522 16.6522C16.4444 16.3601 16.6654 16.0046 16.7982 15.6133C16.9309 15.222 16.9719 14.8054 16.9178 14.3958C16.8637 13.9862 16.7162 13.5944 16.4864 13.251C16.2567 12.9075 15.9511 12.6216 15.5931 12.4152ZM8.4623 9.22058H8.96763V9.53501C8.96763 9.65414 9.01496 9.76839 9.09919 9.85263C9.18343 9.93687 9.29768 9.98419 9.41682 9.98419C9.53595 9.98419 9.6502 9.93687 9.73444 9.85263C9.81868 9.76839 9.866 9.65414 9.866 9.53501V9.22058H10.8767V9.53501C10.8767 9.65414 10.924 9.76839 11.0082 9.85263C11.0925 9.93687 11.2067 9.98419 11.3259 9.98419C11.445 9.98419 11.5592 9.93687 11.6435 9.85263C11.7277 9.76839 11.775 9.65414 11.775 9.53501V9.22058H12.7857V9.53501C12.7857 9.65414 12.833 9.76839 12.9173 9.85263C13.0015 9.93687 13.1158 9.98419 13.2349 9.98419C13.354 9.98419 13.4683 9.93687 13.5525 9.85263C13.6367 9.76839 13.6841 9.65414 13.6841 9.53501V9.22058H14.1894C14.3234 9.22082 14.4519 9.27419 14.5466 9.36901C14.6414 9.46382 14.6946 9.59233 14.6947 9.72636V10.6131H7.95696V9.72636C7.95708 9.59233 8.01035 9.46382 8.10508 9.36901C8.19981 9.27419 8.32827 9.22082 8.4623 9.22058ZM11.5504 14.7456C11.5513 14.8961 11.5649 15.0464 11.5909 15.1947H8.4623C8.32835 15.1945 8.19995 15.1412 8.10523 15.0465C8.01052 14.9518 7.9572 14.8234 7.95696 14.6894V11.5114H14.6947V12.0909C14.3081 12.0229 13.9113 12.0407 13.5324 12.143C13.1534 12.2452 12.8015 12.4295 12.5016 12.6827C12.2017 12.9359 11.961 13.2519 11.7967 13.6084C11.6323 13.9648 11.5483 14.353 11.5504 14.7456ZM14.2456 16.5423C13.8902 16.5423 13.5428 16.4369 13.2473 16.2395C12.9519 16.0421 12.7216 15.7614 12.5856 15.4331C12.4496 15.1048 12.414 14.7436 12.4833 14.395C12.5527 14.0465 12.7238 13.7263 12.9751 13.4751C13.2263 13.2238 13.5465 13.0527 13.895 12.9833C14.2436 12.914 14.6048 12.9496 14.9331 13.0856C15.2614 13.2216 15.5421 13.4519 15.7395 13.7473C15.9369 14.0428 16.0423 14.3902 16.0423 14.7456C16.0423 15.2221 15.853 15.6791 15.516 16.016C15.1791 16.353 14.7221 16.5423 14.2456 16.5423Z" fill="white"/>
<path d="M14.6952 14.56V13.8476C14.6952 13.7285 14.6479 13.6142 14.5637 13.53C14.4794 13.4458 14.3652 13.3984 14.2461 13.3984C14.1269 13.3984 14.0127 13.4458 13.9284 13.53C13.8442 13.6142 13.7969 13.7285 13.7969 13.8476V14.746C13.7969 14.8651 13.8442 14.9793 13.9285 15.0636L14.3777 15.5128C14.4624 15.5946 14.5759 15.6399 14.6936 15.6388C14.8114 15.6378 14.9241 15.5906 15.0073 15.5073C15.0906 15.424 15.1379 15.3113 15.1389 15.1936C15.1399 15.0758 15.0946 14.9623 15.0128 14.8776L14.6952 14.56Z" fill="white"/>
</svg>
