<svg width="20" height="21" viewBox="0 0 20 21" fill="none" xmlns="http://www.w3.org/2000/svg">
<path d="M10 1.94531C8.39303 1.94531 6.82214 2.42184 5.486 3.31462C4.14985 4.20741 3.10844 5.47636 2.49348 6.96101C1.87852 8.44566 1.71762 10.0793 2.03112 11.6554C2.34463 13.2315 3.11846 14.6793 4.25476 15.8156C5.39106 16.9519 6.8388 17.7257 8.4149 18.0392C9.99099 18.3527 11.6247 18.1918 13.1093 17.5768C14.594 16.9619 15.8629 15.9205 16.7557 14.5843C17.6485 13.2482 18.125 11.6773 18.125 10.0703C18.1227 7.91613 17.266 5.85082 15.7427 4.32758C14.2195 2.80434 12.1542 1.94759 10 1.94531ZM10 16.9453C8.64026 16.9453 7.31105 16.5421 6.18046 15.7867C5.04987 15.0312 4.16868 13.9575 3.64833 12.7013C3.12798 11.445 2.99183 10.0627 3.2571 8.72907C3.52238 7.39545 4.17716 6.17044 5.13864 5.20895C6.10013 4.24747 7.32514 3.59269 8.65876 3.32741C9.99238 3.06214 11.3747 3.19829 12.631 3.71864C13.8872 4.23899 14.9609 5.12018 15.7164 6.25077C16.4718 7.38135 16.875 8.71057 16.875 10.0703C16.8729 11.893 16.1479 13.6405 14.8591 14.9294C13.5702 16.2183 11.8227 16.9432 10 16.9453ZM13.75 10.0703C13.75 10.2361 13.6842 10.395 13.5669 10.5123C13.4497 10.6295 13.2908 10.6953 13.125 10.6953H10.625V13.1953C10.625 13.3611 10.5592 13.52 10.4419 13.6373C10.3247 13.7545 10.1658 13.8203 10 13.8203C9.83424 13.8203 9.67527 13.7545 9.55806 13.6373C9.44085 13.52 9.375 13.3611 9.375 13.1953V10.6953H6.875C6.70924 10.6953 6.55027 10.6295 6.43306 10.5123C6.31585 10.395 6.25 10.2361 6.25 10.0703C6.25 9.90455 6.31585 9.74558 6.43306 9.62837C6.55027 9.51116 6.70924 9.44531 6.875 9.44531H9.375V6.94531C9.375 6.77955 9.44085 6.62058 9.55806 6.50337C9.67527 6.38616 9.83424 6.32031 10 6.32031C10.1658 6.32031 10.3247 6.38616 10.4419 6.50337C10.5592 6.62058 10.625 6.77955 10.625 6.94531V9.44531H13.125C13.2908 9.44531 13.4497 9.51116 13.5669 9.62837C13.6842 9.74558 13.75 9.90455 13.75 10.0703Z" fill="#1B4976"/>
</svg>
