<svg width="20" height="13" viewBox="0 0 20 13" fill="none" xmlns="http://www.w3.org/2000/svg">
<path d="M19.3211 6.00078C19.2937 5.93906 18.632 4.47109 17.1609 3C15.2008 1.03984 12.725 0.00390625 9.99999 0.00390625C7.27499 0.00390625 4.79921 1.03984 2.83905 3C1.36796 4.47109 0.703118 5.94141 0.678899 6.00078C0.643362 6.08071 0.625 6.16721 0.625 6.25469C0.625 6.34216 0.643362 6.42866 0.678899 6.50859C0.706243 6.57031 1.36796 8.0375 2.83905 9.50859C4.79921 11.468 7.27499 12.5039 9.99999 12.5039C12.725 12.5039 15.2008 11.468 17.1609 9.50859C18.632 8.0375 19.2937 6.57031 19.3211 6.50859C19.3566 6.42866 19.375 6.34216 19.375 6.25469C19.375 6.16721 19.3566 6.08071 19.3211 6.00078ZM9.99999 11.2539C7.5953 11.2539 5.49452 10.3797 3.75546 8.65625C3.0419 7.94664 2.43483 7.13746 1.95312 6.25391C2.4347 5.37027 3.04179 4.56108 3.75546 3.85156C5.49452 2.12812 7.5953 1.25391 9.99999 1.25391C12.4047 1.25391 14.5055 2.12812 16.2445 3.85156C16.9595 4.56091 17.5679 5.37009 18.0508 6.25391C17.4875 7.30547 15.0336 11.2539 9.99999 11.2539ZM9.99999 2.50391C9.25831 2.50391 8.53329 2.72384 7.9166 3.1359C7.29992 3.54795 6.81927 4.13362 6.53544 4.81884C6.25162 5.50407 6.17735 6.25807 6.32205 6.98549C6.46674 7.71292 6.82389 8.38111 7.34834 8.90556C7.87279 9.43 8.54097 9.78716 9.2684 9.93185C9.99583 10.0765 10.7498 10.0023 11.4351 9.71845C12.1203 9.43463 12.7059 8.95398 13.118 8.33729C13.5301 7.72061 13.75 6.99559 13.75 6.25391C13.749 5.25966 13.3535 4.30644 12.6505 3.6034C11.9475 2.90036 10.9942 2.50494 9.99999 2.50391ZM9.99999 8.75391C9.50554 8.75391 9.02219 8.60728 8.61107 8.33258C8.19994 8.05788 7.87951 7.66743 7.69029 7.21061C7.50107 6.7538 7.45157 6.25113 7.54803 5.76618C7.64449 5.28123 7.88259 4.83577 8.23222 4.48614C8.58186 4.13651 9.02731 3.89841 9.51227 3.80194C9.99722 3.70548 10.4999 3.75499 10.9567 3.94421C11.4135 4.13343 11.804 4.45386 12.0787 4.86498C12.3534 5.2761 12.5 5.75945 12.5 6.25391C12.5 6.91695 12.2366 7.55283 11.7678 8.02167C11.2989 8.49051 10.663 8.75391 9.99999 8.75391Z" fill="#1B4976"/>
</svg>
