<svg width="18" height="18" viewBox="0 0 18 18" fill="none" xmlns="http://www.w3.org/2000/svg">
<path d="M11.6864 9.00043C11.6864 10.4854 10.4864 11.6854 9.00141 11.6854C7.51641 11.6854 6.31641 10.4854 6.31641 9.00043C6.31641 7.51543 7.51641 6.31543 9.00141 6.31543C10.4864 6.31543 11.6864 7.51543 11.6864 9.00043Z" stroke="#FF0000" stroke-width="1.5" stroke-linecap="round" stroke-linejoin="round"/>
<path d="M8.99891 15.2025C11.6464 15.2025 14.1139 13.6425 15.8314 10.9425C16.5064 9.88504 16.5064 8.10754 15.8314 7.05004C14.1139 4.35004 11.6464 2.79004 8.99891 2.79004C6.35141 2.79004 3.88391 4.35004 2.16641 7.05004C1.49141 8.10754 1.49141 9.88504 2.16641 10.9425C3.88391 13.6425 6.35141 15.2025 8.99891 15.2025Z" stroke="#FF0000" stroke-width="1.5" stroke-linecap="round" stroke-linejoin="round"/>
</svg>
