<svg width="21" height="21" viewBox="0 0 21 21" fill="none" xmlns="http://www.w3.org/2000/svg">
<path d="M12.8409 8.50791C13.1095 8.23928 13.1095 7.79604 12.8409 7.51397C12.5723 7.24534 12.129 7.24534 11.8469 7.51397L10.0605 9.30038L11.0545 10.2943L12.8409 8.50791Z" fill="#666666"/>
<path d="M16.6281 7.51397C16.3594 7.24534 15.9162 7.24534 15.6341 7.51397L11.2957 11.8524L9.05264 9.62273C8.78401 9.3541 8.34077 9.3541 8.0587 9.62273C7.77664 9.89137 7.79007 10.3346 8.0587 10.6167L8.40792 10.9659L7.50801 11.8658L5.26493 9.62273C4.9963 9.3541 4.55306 9.3541 4.27099 9.62273C3.98893 9.89137 4.00236 10.3346 4.27099 10.6167L6.99761 13.3433C7.13192 13.4776 7.31997 13.5448 7.49458 13.5448C7.66919 13.5448 7.85723 13.4776 7.99155 13.3433L9.38843 11.9464L10.7853 13.3433C10.9196 13.4776 11.1077 13.5448 11.2823 13.5448C11.4569 13.5448 11.6449 13.4776 11.7793 13.3433L16.6146 8.50791C16.8967 8.22585 16.8967 7.78261 16.6281 7.51397Z" fill="#666666"/>
<path fill-rule="evenodd" clip-rule="evenodd" d="M10.5026 0C4.71347 0 0 4.71347 0 10.5026C0 16.2917 4.71347 21 10.5026 21C16.2917 21 21 16.2917 21 10.5026C21 4.71347 16.2917 0 10.5026 0ZM10.5026 1.75014C15.3458 1.75014 19.2499 5.65932 19.2499 10.5026C19.2499 15.3458 15.3458 19.2499 10.5026 19.2499C5.65932 19.2499 1.75014 15.3458 1.75014 10.5026C1.75014 5.65932 5.65932 1.75014 10.5026 1.75014Z" fill="#666666"/>
</svg>
