<svg width="24" height="24" viewBox="0 0 24 24" fill="none" xmlns="http://www.w3.org/2000/svg">
<path d="M17.7987 5.07766C17.7359 5.02905 17.6627 4.99554 17.5849 4.97973C17.5071 4.96392 17.4266 4.96623 17.3498 4.98647C16.915 5.09986 16.4674 5.15709 16.0181 5.15675C15.233 5.15824 14.4576 4.98309 13.7494 4.64428C13.0411 4.30547 12.4181 3.81166 11.9264 3.19941C11.8796 3.13934 11.8201 3.09034 11.7521 3.05591C11.6842 3.02148 11.6095 3.00247 11.5333 3.00022C11.4572 2.99798 11.3815 3.01256 11.3116 3.04293C11.2418 3.0733 11.1795 3.11871 11.1292 3.17593C11.1229 3.18283 11.1154 3.19181 11.1064 3.20321C10.6147 3.81425 9.99214 4.30701 9.28461 4.64514C8.57708 4.98326 7.80267 5.1581 7.01854 5.15675C6.55723 5.15706 6.09787 5.09679 5.65224 4.97749C5.57549 4.95688 5.49502 4.95421 5.41706 4.96969C5.33911 4.98517 5.26576 5.01839 5.2027 5.06678C5.13964 5.11517 5.08856 5.17742 5.05341 5.24872C5.01826 5.32003 4.99998 5.39847 5 5.47797V13.498C5 17.0832 7.91594 20 11.5 20C15.0841 20 18 17.0832 18 13.498V5.48764C18 5.40846 17.9819 5.33033 17.947 5.25926C17.9121 5.18819 17.8613 5.12606 17.7987 5.07766ZM13.8704 13.1346C13.9198 13.1825 13.9592 13.2397 13.9862 13.303C14.0133 13.3662 14.0274 13.4342 14.0279 13.503C14.0284 13.5718 14.0152 13.64 13.9891 13.7036C13.963 13.7673 13.9244 13.825 13.8757 13.8736C13.827 13.9222 13.7692 13.9606 13.7055 13.9865C13.6418 14.0125 13.5736 14.0255 13.5048 14.0248C13.436 14.0241 13.3681 14.0097 13.305 13.9825C13.2418 13.9553 13.1847 13.9157 13.137 13.8662L11.5211 12.2452L9.90064 13.8617C9.85279 13.9111 9.79558 13.9505 9.73236 13.9775C9.66913 14.0046 9.60115 14.0188 9.53238 14.0193C9.46361 14.0198 9.39543 14.0066 9.33182 13.9804C9.26821 13.9543 9.21044 13.9157 9.16188 13.867C9.11332 13.8183 9.07495 13.7604 9.04899 13.6967C9.02304 13.633 9.01003 13.5648 9.01073 13.496C9.01142 13.4272 9.0258 13.3592 9.05303 13.2961C9.08026 13.2329 9.11979 13.1758 9.16932 13.1281L10.7897 11.5116L9.15551 9.87309C9.10612 9.82522 9.06674 9.768 9.03969 9.70475C9.01264 9.64151 8.99845 9.57351 8.99796 9.50472C8.99746 9.43593 9.01066 9.36773 9.03679 9.3041C9.06292 9.24046 9.10146 9.18268 9.15016 9.1341C9.19885 9.08553 9.25673 9.04714 9.32042 9.02118C9.38411 8.99522 9.45232 8.98221 9.52109 8.9829C9.58986 8.98359 9.6578 8.99798 9.72095 9.02522C9.78409 9.05245 9.84119 9.092 9.8889 9.14155L11.5228 10.7801L13.1608 9.14569C13.2586 9.05145 13.3895 8.9994 13.5253 9.00077C13.6611 9.00214 13.791 9.05681 13.8869 9.15301C13.9828 9.24921 14.0371 9.37923 14.038 9.51508C14.039 9.65093 13.9866 9.78173 13.8921 9.8793L12.2544 11.5137L13.8704 13.1346Z" fill="#666666"/>
</svg>
