<svg width="21" height="22" viewBox="0 0 21 22" fill="none" xmlns="http://www.w3.org/2000/svg">
<path d="M12.8399 9.01133C13.1085 8.7427 13.1085 8.29946 12.8399 8.01739C12.5713 7.74876 12.128 7.74876 11.846 8.01739L10.0596 9.80379L11.0535 10.7977L12.8399 9.01133Z" fill="#666666"/>
<path d="M16.6281 8.01739C16.3594 7.74876 15.9162 7.74876 15.6341 8.01739L11.2957 12.3558L9.05264 10.1262C8.78401 9.85752 8.34077 9.85752 8.0587 10.1262C7.77664 10.3948 7.79007 10.838 8.0587 11.1201L8.40792 11.4693L7.50801 12.3692L5.26493 10.1262C4.9963 9.85752 4.55306 9.85752 4.27099 10.1262C3.98893 10.3948 4.00236 10.838 4.27099 11.1201L6.99761 13.8467C7.13192 13.981 7.31997 14.0482 7.49458 14.0482C7.66919 14.0482 7.85723 13.981 7.99155 13.8467L9.38843 12.4498L10.7853 13.8467C10.9196 13.981 11.1077 14.0482 11.2823 14.0482C11.4569 14.0482 11.6449 13.981 11.7793 13.8467L16.6146 9.01133C16.8967 8.72927 16.8967 8.28602 16.6281 8.01739Z" fill="#666666"/>
<path fill-rule="evenodd" clip-rule="evenodd" d="M10.5026 0.5C4.71347 0.5 0 5.21347 0 11.0026C0 16.7917 4.71347 21.5 10.5026 21.5C16.2917 21.5 21 16.7917 21 11.0026C21 5.21347 16.2917 0.5 10.5026 0.5ZM10.5026 2.25014C15.3458 2.25014 19.2499 6.15932 19.2499 11.0026C19.2499 15.8458 15.3458 19.7499 10.5026 19.7499C5.65932 19.7499 1.75014 15.8458 1.75014 11.0026C1.75014 6.15932 5.65932 2.25014 10.5026 2.25014Z" fill="#666666"/>
</svg>
