<svg width="24" height="24" viewBox="0 0 24 24" fill="none" xmlns="http://www.w3.org/2000/svg">
<rect width="24" height="24" rx="4" fill="#1B4976"/>
<rect width="15" height="15" transform="translate(4.5 4.5)" fill="#1B4976"/>
<path d="M13.4055 11.0618C13.4055 11.1861 13.3561 11.3053 13.2682 11.3932C13.1803 11.4811 13.0611 11.5305 12.9368 11.5305H11.5305V12.9368C11.5305 13.0611 11.4811 13.1803 11.3932 13.2682C11.3053 13.3561 11.1861 13.4055 11.0618 13.4055C10.9375 13.4055 10.8182 13.3561 10.7303 13.2682C10.6424 13.1803 10.593 13.0611 10.593 12.9368V11.5305H9.18678C9.06246 11.5305 8.94323 11.4811 8.85532 11.3932C8.76742 11.3053 8.71803 11.1861 8.71803 11.0618C8.71803 10.9375 8.76742 10.8182 8.85532 10.7303C8.94323 10.6424 9.06246 10.593 9.18678 10.593H10.593V9.18678C10.593 9.06246 10.6424 8.94323 10.7303 8.85532C10.8182 8.76742 10.9375 8.71803 11.0618 8.71803C11.1861 8.71803 11.3053 8.76742 11.3932 8.85532C11.4811 8.94323 11.5305 9.06246 11.5305 9.18678V10.593H12.9368C13.0611 10.593 13.1803 10.6424 13.2682 10.7303C13.3561 10.8182 13.4055 10.9375 13.4055 11.0618ZM17.9559 17.9559C17.9124 17.9995 17.8607 18.0341 17.8038 18.0577C17.7469 18.0813 17.6859 18.0934 17.6243 18.0934C17.5627 18.0934 17.5017 18.0813 17.4448 18.0577C17.3879 18.0341 17.3362 17.9995 17.2926 17.9559L14.3594 15.0221C13.3386 15.8725 12.0292 16.2965 10.7036 16.206C9.37807 16.1155 8.13845 15.5174 7.24262 14.5362C6.34679 13.555 5.86372 12.2663 5.89391 10.938C5.9241 9.60969 6.46522 8.34418 7.4047 7.4047C8.34418 6.46522 9.60969 5.9241 10.938 5.89391C12.2663 5.86372 13.555 6.34679 14.5362 7.24262C15.5174 8.13845 16.1155 9.37807 16.206 10.7036C16.2965 12.0292 15.8725 13.3386 15.0221 14.3594L17.9559 17.2926C17.9995 17.3362 18.0341 17.3879 18.0577 17.4448C18.0813 17.5017 18.0934 17.5627 18.0934 17.6243C18.0934 17.6859 18.0813 17.7469 18.0577 17.8038C18.0341 17.8607 17.9995 17.9124 17.9559 17.9559ZM11.0618 15.2805C11.8962 15.2805 12.7118 15.0331 13.4056 14.5695C14.0994 14.106 14.6401 13.4471 14.9594 12.6762C15.2787 11.9053 15.3622 11.0571 15.1995 10.2387C15.0367 9.42038 14.6349 8.66867 14.0449 8.07867C13.4549 7.48867 12.7032 7.08687 11.8848 6.92409C11.0665 6.76131 10.2182 6.84486 9.44733 7.16416C8.67646 7.48347 8.01758 8.0242 7.55402 8.71797C7.09045 9.41174 6.84303 10.2274 6.84303 11.0618C6.84427 12.1803 7.28914 13.2526 8.08004 14.0435C8.87094 14.8344 9.94328 15.2793 11.0618 15.2805Z" fill="white"/>
</svg>
