<svg width="40" height="41" viewBox="0 0 40 41" fill="none" xmlns="http://www.w3.org/2000/svg">
<rect y="0.253906" width="40" height="40" rx="12" fill="#F5F5F5"/>
<path d="M16.25 17.7627C13.25 17.7627 13.25 19.1008 13.25 20.7529V21.5005C13.25 23.5637 13.25 25.2382 17 25.2382H23C26 25.2382 26.75 23.5637 26.75 21.5005V20.7529C26.75 19.1008 26.75 17.7627 23.75 17.7627C23 17.7627 22.79 17.9197 22.4 18.2112L21.635 19.0186C20.75 19.9605 19.25 19.9605 18.3575 19.0186L17.6 18.2112C17.21 17.9197 17 17.7627 16.25 17.7627Z" fill="#F5F5F5" stroke="#666666" stroke-width="1.2" stroke-miterlimit="10" stroke-linecap="round" stroke-linejoin="round"/>
<path d="M25.2495 17.7627V13.2773C25.2495 11.6252 25.2495 10.2871 22.2495 10.2871H17.7495C14.7495 10.2871 14.7495 11.6252 14.7495 13.2773V17.7627" fill="#F5F5F5"/>
<path d="M25.2495 17.7627V13.2773C25.2495 11.6252 25.2495 10.2871 22.2495 10.2871H17.7495C14.7495 10.2871 14.7495 11.6252 14.7495 13.2773V17.7627" stroke="#666666" stroke-width="1.2" stroke-miterlimit="10" stroke-linecap="round" stroke-linejoin="round"/>
<path d="M18.9124 15.6919H21.4099H18.9124Z" fill="#F5F5F5"/>
<path d="M18.9124 15.6919H21.4099" stroke="#666666" stroke-width="1.2" stroke-linecap="round" stroke-linejoin="round"/>
<path d="M18.2905 13.4492H22.0405H18.2905Z" fill="#F5F5F5"/>
<path d="M18.2905 13.4492H22.0405" stroke="#666666" stroke-width="1.2" stroke-linecap="round" stroke-linejoin="round"/>
</svg>
