<svg width="21" height="21" viewBox="0 0 21 21" fill="none" xmlns="http://www.w3.org/2000/svg">
<path d="M6.125 10.5001C2.625 10.5001 2.625 12.0663 2.625 14.0001V14.8751C2.625 17.2901 2.625 19.2501 7 19.2501H14C17.5 19.2501 18.375 17.2901 18.375 14.8751V14.0001C18.375 12.0663 18.375 10.5001 14.875 10.5001C14 10.5001 13.755 10.6838 13.3 11.0251L12.4075 11.9701C11.375 13.0726 9.625 13.0726 8.58375 11.9701L7.7 11.0251C7.245 10.6838 7 10.5001 6.125 10.5001Z" stroke="#666666" stroke-width="1.2" stroke-miterlimit="10" stroke-linecap="round" stroke-linejoin="round"/>
<path d="M16.625 10.4989V5.24887C16.625 3.31512 16.625 1.74887 13.125 1.74887H7.875C4.375 1.74887 4.375 3.31512 4.375 5.24887V10.4989" stroke="#666666" stroke-width="1.2" stroke-miterlimit="10" stroke-linecap="round" stroke-linejoin="round"/>
<path d="M9.23047 8.0768H12.1442" stroke="#666666" stroke-width="1.2" stroke-linecap="round" stroke-linejoin="round"/>
<path d="M8.50586 5.45235H12.8809" stroke="#666666" stroke-width="1.2" stroke-linecap="round" stroke-linejoin="round"/>
</svg>
