<svg width="18" height="10" viewBox="0 0 18 10" fill="none" xmlns="http://www.w3.org/2000/svg">
<path d="M14.625 4.87866C14.625 5.04442 14.5592 5.20339 14.4419 5.3206C14.3247 5.43781 14.1658 5.50366 14 5.50366H4C3.83424 5.50366 3.67527 5.43781 3.55806 5.3206C3.44085 5.20339 3.375 5.04442 3.375 4.87866C3.375 4.7129 3.44085 4.55393 3.55806 4.43672C3.67527 4.31951 3.83424 4.25366 4 4.25366H14C14.1658 4.25366 14.3247 4.31951 14.4419 4.43672C14.5592 4.55393 14.625 4.7129 14.625 4.87866ZM17.125 0.503662H0.875C0.70924 0.503662 0.550268 0.56951 0.433058 0.68672C0.315848 0.803931 0.25 0.962902 0.25 1.12866C0.25 1.29442 0.315848 1.45339 0.433058 1.5706C0.550268 1.68781 0.70924 1.75366 0.875 1.75366H17.125C17.2908 1.75366 17.4497 1.68781 17.5669 1.5706C17.6842 1.45339 17.75 1.29442 17.75 1.12866C17.75 0.962902 17.6842 0.803931 17.5669 0.68672C17.4497 0.56951 17.2908 0.503662 17.125 0.503662ZM10.875 8.00366H7.125C6.95924 8.00366 6.80027 8.06951 6.68306 8.18672C6.56585 8.30393 6.5 8.4629 6.5 8.62866C6.5 8.79442 6.56585 8.95339 6.68306 9.0706C6.80027 9.18781 6.95924 9.25366 7.125 9.25366H10.875C11.0408 9.25366 11.1997 9.18781 11.3169 9.0706C11.4342 8.95339 11.5 8.79442 11.5 8.62866C11.5 8.4629 11.4342 8.30393 11.3169 8.18672C11.1997 8.06951 11.0408 8.00366 10.875 8.00366Z" fill="#1B4976"/>
</svg>
