<svg width="18" height="19" viewBox="0 0 18 19" fill="none" xmlns="http://www.w3.org/2000/svg">
<path d="M9 6.32666C8.44374 6.32666 7.89997 6.49161 7.43746 6.80065C6.97495 7.10969 6.61446 7.54895 6.40159 8.06286C6.18872 8.57678 6.13302 9.14228 6.24154 9.68785C6.35006 10.2334 6.61793 10.7346 7.01126 11.1279C7.4046 11.5212 7.90574 11.7891 8.45131 11.8976C8.99688 12.0061 9.56238 11.9504 10.0763 11.7376C10.5902 11.5247 11.0295 11.1642 11.3385 10.7017C11.6475 10.2392 11.8125 9.69542 11.8125 9.13916C11.8125 8.39324 11.5162 7.67787 10.9887 7.15042C10.4613 6.62298 9.74592 6.32666 9 6.32666ZM9 10.8267C8.66624 10.8267 8.33998 10.7277 8.06248 10.5423C7.78497 10.3568 7.56868 10.0933 7.44095 9.78494C7.31323 9.47659 7.27981 9.13729 7.34492 8.80995C7.41004 8.4826 7.57076 8.18192 7.80676 7.94592C8.04276 7.70992 8.34344 7.5492 8.67078 7.48408C8.99813 7.41897 9.33743 7.45239 9.64578 7.58011C9.95413 7.70784 10.2177 7.92413 10.4031 8.20164C10.5885 8.47914 10.6875 8.8054 10.6875 9.13916C10.6875 9.58671 10.5097 10.0159 10.1932 10.3324C9.87678 10.6489 9.44755 10.8267 9 10.8267ZM16.875 4.07666H1.125C0.975816 4.07666 0.832742 4.13592 0.727252 4.24141C0.621763 4.3469 0.5625 4.48998 0.5625 4.63916V13.6392C0.5625 13.7883 0.621763 13.9314 0.727252 14.0369C0.832742 14.1424 0.975816 14.2017 1.125 14.2017H16.875C17.0242 14.2017 17.1673 14.1424 17.2727 14.0369C17.3782 13.9314 17.4375 13.7883 17.4375 13.6392V4.63916C17.4375 4.48998 17.3782 4.3469 17.2727 4.24141C17.1673 4.13592 17.0242 4.07666 16.875 4.07666ZM13.616 13.0767H4.38398C4.19513 12.4379 3.84947 11.8566 3.3785 11.3857C2.90753 10.9147 2.32622 10.569 1.6875 10.3802V7.89814C2.32622 7.70929 2.90753 7.36363 3.3785 6.89266C3.84947 6.42169 4.19513 5.84038 4.38398 5.20166H13.616C13.8049 5.84038 14.1505 6.42169 14.6215 6.89266C15.0925 7.36363 15.6738 7.70929 16.3125 7.89814V10.3802C15.6738 10.569 15.0925 10.9147 14.6215 11.3857C14.1505 11.8566 13.8049 12.4379 13.616 13.0767ZM16.3125 6.70424C15.6378 6.41412 15.1 5.87635 14.8099 5.20166H16.3125V6.70424ZM3.19008 5.20166C2.89996 5.87635 2.36219 6.41412 1.6875 6.70424V5.20166H3.19008ZM1.6875 11.5741C2.36219 11.8642 2.89996 12.402 3.19008 13.0767H1.6875V11.5741ZM14.8099 13.0767C15.1 12.402 15.6378 11.8642 16.3125 11.5741V13.0767H14.8099Z" fill="#1B4976"/>
</svg>
