<svg width="24" height="24" viewBox="0 0 24 24" fill="none" xmlns="http://www.w3.org/2000/svg">
<path d="M11.999 2.25C10.0707 2.25 8.1856 2.82183 6.58222 3.89317C4.97884 4.96451 3.72916 6.48726 2.9912 8.26884C2.25325 10.0504 2.06017 12.0108 2.43637 13.9021C2.81258 15.7934 3.74117 17.5307 5.10474 18.8943C6.4683 20.2579 8.20558 21.1865 10.0969 21.5627C11.9882 21.9389 13.9486 21.7458 15.7302 21.0078C17.5118 20.2699 19.0345 19.0202 20.1059 17.4168C21.1772 15.8134 21.749 13.9284 21.749 12C21.7463 9.41498 20.7182 6.93661 18.8903 5.10872C17.0624 3.28084 14.5841 2.25273 11.999 2.25ZM6.94403 18.5156C7.48659 17.6671 8.23403 16.9688 9.11745 16.4851C10.0009 16.0013 10.9918 15.7478 11.999 15.7478C13.0062 15.7478 13.9972 16.0013 14.8806 16.4851C15.764 16.9688 16.5115 17.6671 17.054 18.5156C15.6087 19.6397 13.83 20.2499 11.999 20.2499C10.1681 20.2499 8.38934 19.6397 6.94403 18.5156ZM8.99903 11.25C8.99903 10.6567 9.17497 10.0766 9.50462 9.58329C9.83426 9.08994 10.3028 8.70542 10.851 8.47836C11.3992 8.2513 12.0024 8.19189 12.5843 8.30764C13.1662 8.4234 13.7008 8.70912 14.1203 9.12868C14.5399 9.54824 14.8256 10.0828 14.9414 10.6647C15.0571 11.2467 14.9977 11.8499 14.7707 12.3981C14.5436 12.9462 14.1591 13.4148 13.6657 13.7444C13.1724 14.0741 12.5924 14.25 11.999 14.25C11.2034 14.25 10.4403 13.9339 9.87771 13.3713C9.3151 12.8087 8.99903 12.0456 8.99903 11.25ZM18.164 17.4759C17.3276 16.2638 16.1514 15.3261 14.7834 14.7806C15.5182 14.2019 16.0544 13.4085 16.3175 12.5108C16.5805 11.6132 16.5572 10.6559 16.251 9.77207C15.9447 8.88825 15.3706 8.12183 14.6086 7.5794C13.8465 7.03696 12.9344 6.74548 11.999 6.74548C11.0636 6.74548 10.1515 7.03696 9.38946 7.5794C8.62742 8.12183 8.05334 8.88825 7.74708 9.77207C7.44081 10.6559 7.41757 11.6132 7.68059 12.5108C7.94362 13.4085 8.47983 14.2019 9.21465 14.7806C7.84667 15.3261 6.67049 16.2638 5.83403 17.4759C4.77706 16.2873 4.08622 14.8185 3.84469 13.2464C3.60317 11.6743 3.82126 10.0658 4.4727 8.61478C5.12414 7.16372 6.18116 5.93192 7.51647 5.06769C8.85178 4.20346 10.4084 3.74367 11.999 3.74367C13.5896 3.74367 15.1463 4.20346 16.4816 5.06769C17.8169 5.93192 18.8739 7.16372 19.5254 8.61478C20.1768 10.0658 20.3949 11.6743 20.1534 13.2464C19.9118 14.8185 19.221 16.2873 18.164 17.4759Z" fill="white"/>
</svg>
