<svg width="15" height="8" viewBox="0 0 15 8" fill="none" xmlns="http://www.w3.org/2000/svg">
<path fill-rule="evenodd" clip-rule="evenodd" d="M14.342 5.30311C14.2196 4.88294 14.0237 4.54827 13.7712 4.23915C13.459 3.855 13.0672 3.58487 12.6126 3.3943C12.178 3.21273 11.7219 3.1422 11.2536 3.17972C10.6751 3.22623 10.1486 3.42282 9.68488 3.77097C9.0467 4.25267 8.66103 4.87994 8.54775 5.66325C8.54011 5.71877 8.51715 5.7338 8.46816 5.7338H6.53984C6.46854 5.7338 6.46234 5.70129 6.45301 5.65243C6.45193 5.64676 6.45081 5.64085 6.44951 5.63474C6.34852 5.13955 6.15417 4.68035 5.82665 4.2902C5.38281 3.76045 4.82727 3.39731 4.13552 3.24574C3.47742 3.10168 2.84994 3.17521 2.24236 3.45884C1.47254 3.81898 0.967498 4.40124 0.688959 5.18155C0.678246 5.21307 0.662942 5.23407 0.629272 5.2536C0.564994 5.10954 0.505306 4.96547 0.505306 4.80639C0.505306 4.62572 0.50398 4.44502 0.502653 4.26432C0.499705 3.86276 0.496757 3.4612 0.508367 3.05966C0.523672 2.55545 0.843533 2.22231 1.33174 2.12927C1.61757 2.07429 1.90339 2.02081 2.18908 1.96736C2.54281 1.90117 2.89633 1.83502 3.24938 1.76612C3.45446 1.7256 3.61975 1.60555 3.76973 1.46749C4.52732 0.766702 5.40883 0.303005 6.43881 0.107923C6.88878 0.0223874 7.33871 -0.0196303 7.79174 0.00888171C8.86763 0.0779107 9.85169 0.414054 10.721 1.04432C10.8734 1.15481 11.016 1.28007 11.1583 1.40509C11.219 1.45834 11.2796 1.51154 11.3408 1.56353C11.5662 1.75543 11.8508 1.79988 12.1337 1.84406C12.2004 1.85447 12.2669 1.86486 12.3325 1.87717C12.4739 1.90345 12.6155 1.92788 12.7572 1.95231C13.0928 2.01016 13.4281 2.06798 13.7574 2.15028C14.2456 2.27183 14.4843 2.62598 14.4951 3.11519C14.5013 3.40931 14.5003 3.70343 14.4992 3.99757C14.4985 4.20767 14.4977 4.41773 14.4996 4.62784C14.5027 4.84992 14.4629 5.05849 14.3435 5.30161L14.342 5.30311ZM13.5819 6.04624C13.5928 7.14482 12.6691 8.01487 11.5239 7.99571C10.335 7.97505 9.48772 7.18761 9.47367 6.03736C9.45965 5.02871 10.296 4.01119 11.7267 4.11001C12.6614 4.17342 13.6084 4.95646 13.5819 6.04624ZM5.59146 6.04907C5.61172 5.04042 4.79382 4.07163 3.52724 4.11151L3.52568 4.11004C2.3884 4.0495 1.53622 5.02417 1.48637 5.90285C1.41626 7.1301 2.41489 8.01026 3.52101 7.99991C4.6614 7.9896 5.56811 7.25265 5.59146 6.04907Z" fill="#1B4976"/>
</svg>
