<svg width="22" height="22" viewBox="0 0 22 22" fill="none" xmlns="http://www.w3.org/2000/svg">
<path fill-rule="evenodd" clip-rule="evenodd" d="M17.6725 0.525248C16.9731 -0.175083 15.8374 -0.175083 15.1379 0.525248L1.85698 13.8049C1.63148 14.0313 1.47015 14.3136 1.38947 14.6225L0.0593618 19.7558C-0.246812 20.9337 0.67537 22.0181 1.81481 21.9998H1.83314H21.2666C21.6718 21.9998 22 21.6716 22 21.2664C22 20.8613 21.6718 20.5331 21.2666 20.5331H7.60719C7.82628 20.4433 8.02612 20.3104 8.19478 20.1426L21.4747 6.86206C22.1751 6.16264 22.1751 5.02692 21.4747 4.32746L17.6725 0.525248ZM20.4381 5.36425L16.6358 1.56199C16.5084 1.43458 16.3021 1.43458 16.1747 1.56199L13.6034 4.1332L17.8669 8.39657L20.4382 5.82536C20.5656 5.69795 20.5655 5.49165 20.4381 5.36425ZM16.8301 9.43332L12.5666 5.16995L2.89469 14.8416C2.85344 14.8829 2.8241 14.9342 2.80944 14.991L1.47841 20.1234C1.41608 20.3644 1.63517 20.5835 1.87625 20.5212L7.00871 19.1902C7.06555 19.1755 7.11688 19.1462 7.15813 19.1049L16.8301 9.43332Z" fill="white"/>
</svg>
