<svg width="21" height="21" viewBox="0 0 21 21" fill="none" xmlns="http://www.w3.org/2000/svg">
<path fill-rule="evenodd" clip-rule="evenodd" d="M16.8692 0.501373C16.2016 -0.167124 15.1175 -0.167124 14.4498 0.501373L1.77257 13.1774C1.55732 13.3935 1.40332 13.663 1.32631 13.9579L0.0566636 18.8578C-0.235593 19.9822 0.644671 21.0173 1.73232 20.9998H1.74982H20.2999C20.6867 20.9998 21 20.6865 21 20.2998C21 19.913 20.6867 19.5998 20.2999 19.5998H7.26141C7.47054 19.514 7.6613 19.3872 7.82229 19.227L20.4986 6.55015C21.1671 5.88252 21.1671 4.79842 20.4986 4.13075L16.8692 0.501373ZM19.5091 5.12042L15.8796 1.49099C15.758 1.36937 15.5611 1.36937 15.4395 1.49099L12.9851 3.94533L17.0548 8.01491L19.5092 5.56057C19.6308 5.43895 19.6307 5.24203 19.5091 5.12042ZM16.0651 9.00453L11.9954 4.93495L2.76311 14.167C2.72374 14.2064 2.69574 14.2554 2.68174 14.3096L1.41121 19.2087C1.35171 19.4388 1.56084 19.6479 1.79097 19.5884L6.69013 18.3179C6.74438 18.3039 6.79339 18.2759 6.83276 18.2365L16.0651 9.00453Z" fill="white"/>
</svg>
