<svg width="60" height="60" viewBox="0 0 60 60" fill="none" xmlns="http://www.w3.org/2000/svg">
<path d="M22.5 47.5C22.5 49.375 21.975 51.15 21.05 52.65C19.325 55.55 16.15 57.5 12.5 57.5C8.85 57.5 5.675 55.55 3.95 52.65C3.025 51.15 2.5 49.375 2.5 47.5C2.5 41.975 6.975 37.5 12.5 37.5C18.025 37.5 22.5 41.975 22.5 47.5Z" stroke="white" stroke-width="3" stroke-miterlimit="10" stroke-linecap="round" stroke-linejoin="round"/>
<path d="M8.60352 47.4988L11.0785 49.9738L16.4035 45.0488" stroke="white" stroke-width="3" stroke-linecap="round" stroke-linejoin="round"/>
<path d="M44.3785 17.6249C43.7785 17.5249 43.1535 17.5 42.5035 17.5H17.5035C16.8035 17.5 16.1285 17.5499 15.4785 17.6499C15.8285 16.9499 16.3285 16.3 16.9285 15.7L25.0535 7.55C28.4785 4.15 34.0285 4.15 37.4535 7.55L41.8285 11.9749C43.4285 13.5499 44.2785 15.5499 44.3785 17.6249Z" stroke="white" stroke-width="3" stroke-linecap="round" stroke-linejoin="round"/>
<path d="M55 30V42.5C55 50 50 55 42.5 55H19.075C19.85 54.35 20.525 53.55 21.05 52.65C21.975 51.15 22.5 49.375 22.5 47.5C22.5 41.975 18.025 37.5 12.5 37.5C9.5 37.5 6.825 38.825 5 40.9V30C5 23.2 9.1 18.45 15.475 17.65C16.125 17.55 16.8 17.5 17.5 17.5H42.5C43.15 17.5 43.775 17.525 44.375 17.625C50.825 18.375 55 23.15 55 30Z" stroke="white" stroke-width="3" stroke-linecap="round" stroke-linejoin="round"/>
<path d="M55 31.25H47.5C44.75 31.25 42.5 33.5 42.5 36.25C42.5 39 44.75 41.25 47.5 41.25H55" stroke="white" stroke-width="3" stroke-linecap="round" stroke-linejoin="round"/>
</svg>
