<svg width="60" height="60" viewBox="0 0 60 60" fill="none" xmlns="http://www.w3.org/2000/svg">
<path d="M30 37.5C34.1421 37.5 37.5 34.1421 37.5 30C37.5 25.8579 34.1421 22.5 30 22.5C25.8579 22.5 22.5 25.8579 22.5 30C22.5 34.1421 25.8579 37.5 30 37.5Z" stroke="white" stroke-width="3" stroke-miterlimit="10" stroke-linecap="round" stroke-linejoin="round"/>
<path d="M5 32.1996V27.7996C5 25.1996 7.125 23.0496 9.75 23.0496C14.275 23.0496 16.125 19.8496 13.85 15.9246C12.55 13.6746 13.325 10.7496 15.6 9.4496L19.925 6.9746C21.9 5.7996 24.45 6.4996 25.625 8.4746L25.9 8.9496C28.15 12.8746 31.85 12.8746 34.125 8.9496L34.4 8.4746C35.575 6.4996 38.125 5.7996 40.1 6.9746L44.425 9.4496C46.7 10.7496 47.475 13.6746 46.175 15.9246C43.9 19.8496 45.75 23.0496 50.275 23.0496C52.875 23.0496 55.025 25.1746 55.025 27.7996V32.1996C55.025 34.7996 52.9 36.9496 50.275 36.9496C45.75 36.9496 43.9 40.1496 46.175 44.0746C47.475 46.3496 46.7 49.2496 44.425 50.5496L40.1 53.0246C38.125 54.1996 35.575 53.4996 34.4 51.5246L34.125 51.0496C31.875 47.1246 28.175 47.1246 25.9 51.0496L25.625 51.5246C24.45 53.4996 21.9 54.1996 19.925 53.0246L15.6 50.5496C13.325 49.2496 12.55 46.3246 13.85 44.0746C16.125 40.1496 14.275 36.9496 9.75 36.9496C7.125 36.9496 5 34.7996 5 32.1996Z" stroke="white" stroke-width="3" stroke-miterlimit="10" stroke-linecap="round" stroke-linejoin="round"/>
</svg>
