<svg width="60" height="60" viewBox="0 0 60 60" fill="none" xmlns="http://www.w3.org/2000/svg">
<path d="M31.2498 54.9999H10.1998C7.2998 54.9999 4.9248 52.6749 4.9248 49.8249V12.7249C4.9248 6.1749 9.7998 3.1999 15.7748 6.1249L26.8748 11.5749C29.2748 12.7499 31.2498 15.8749 31.2498 18.5249V54.9999Z" stroke="white" stroke-width="3" stroke-linecap="round" stroke-linejoin="round"/>
<path d="M54.925 37.6498V47.0998C54.925 52.4998 52.425 54.9998 47.025 54.9998H31.25V26.0498L32.425 26.2998L43.675 28.8248L48.75 29.9498C52.05 30.6748 54.75 32.3748 54.9 37.1748C54.925 37.3248 54.925 37.4748 54.925 37.6498Z" stroke="white" stroke-width="3" stroke-linecap="round" stroke-linejoin="round"/>
<path d="M13.75 22.5H22.425" stroke="white" stroke-width="3" stroke-linecap="round" stroke-linejoin="round"/>
<path d="M13.75 32.5H22.425" stroke="white" stroke-width="3" stroke-linecap="round" stroke-linejoin="round"/>
<path d="M43.6748 28.8248V36.8748C43.6748 39.9748 41.1498 42.4998 38.0498 42.4998C34.9498 42.4998 32.4248 39.9748 32.4248 36.8748V26.2998L43.6748 28.8248Z" stroke="white" stroke-width="3" stroke-linecap="round" stroke-linejoin="round"/>
<path d="M54.8998 37.1752C54.7498 40.1252 52.2998 42.5002 49.2998 42.5002C46.1998 42.5002 43.6748 39.9752 43.6748 36.8752V28.8252L48.7498 29.9502C52.0498 30.6752 54.7498 32.3752 54.8998 37.1752Z" stroke="white" stroke-width="3" stroke-linecap="round" stroke-linejoin="round"/>
</svg>
