<svg width="114" height="46" viewBox="0 0 114 46" fill="none" xmlns="http://www.w3.org/2000/svg">
<rect x="0.5" width="113" height="46" rx="6" fill="white"/>
<rect width="20" height="20" transform="translate(12 13)" fill="white"/>
<path d="M24.9422 28.8077C25.0003 28.8657 25.0463 28.9347 25.0777 29.0105C25.1092 29.0864 25.1254 29.1677 25.1254 29.2499C25.1254 29.332 25.1092 29.4133 25.0777 29.4892C25.0463 29.565 25.0003 29.634 24.9422 29.692C24.8841 29.7501 24.8152 29.7962 24.7393 29.8276C24.6634 29.859 24.5821 29.8752 24.5 29.8752C24.4179 29.8752 24.3366 29.859 24.2607 29.8276C24.1848 29.7962 24.1159 29.7501 24.0578 29.692L17.8078 23.442C17.7497 23.384 17.7036 23.3151 17.6722 23.2392C17.6407 23.1633 17.6245 23.082 17.6245 22.9999C17.6245 22.9177 17.6407 22.8364 17.6722 22.7605C17.7036 22.6846 17.7497 22.6157 17.8078 22.5577L24.0578 16.3077C24.1751 16.1904 24.3342 16.1245 24.5 16.1245C24.6659 16.1245 24.8249 16.1904 24.9422 16.3077C25.0595 16.4249 25.1254 16.584 25.1254 16.7499C25.1254 16.9157 25.0595 17.0748 24.9422 17.192L19.1336 22.9999L24.9422 28.8077Z" fill="#1B4976"/>
<g clip-path="url(#clip0_1654_20509)">
<path d="M95.4796 19.4376C97.553 18.1367 92.7469 16.9639 87.2427 16.6141C87.7371 16.5922 88.2684 16.5841 88.8204 16.5841C91.6604 16.5841 95.0174 16.887 96.4471 17.795C95.4311 16.5483 90.4097 15.5598 87.2427 15.4918C87.805 15.4676 88.3996 15.4567 89.0098 15.4567C91.9829 15.4567 95.318 15.7771 96.9222 16.8468C95.5849 15.3857 90.5034 14.4389 87.2427 14.3665C87.8315 14.3446 88.4623 14.3292 89.1048 14.3292C92.1897 14.3292 95.6043 14.6606 96.8989 15.7749C95.3594 14.0636 90.5267 13.3759 87.2427 13.2464C87.8373 13.22 88.4584 13.2069 89.0867 13.2069C91.8743 13.2069 94.8061 13.479 96.2183 14.2677C94.978 13.1403 90.358 12.1869 87.2427 12.1211C90.8757 12.1211 95.9126 12.1869 97.703 13.9846C98.9653 15.2481 97.8568 18.2362 95.4789 19.4376" fill="#60BEEC"/>
<path d="M87.8892 21.6329C84.2561 21.6329 79.2179 21.567 77.4276 19.7694C76.1672 18.5065 77.2738 15.5185 79.6516 14.3164C77.5782 15.6173 82.3856 16.7901 87.8892 17.1398C87.3947 17.1618 86.8634 17.1728 86.3121 17.1728C83.4682 17.1728 80.1138 16.8699 78.6854 15.9619C79.7014 17.2057 84.7221 18.1941 87.8892 18.2673C87.3269 18.2892 86.7329 18.3002 86.1221 18.3002C83.1489 18.3002 79.8126 17.982 78.2103 16.9101C79.5476 18.3734 84.6291 19.3179 87.8892 19.3904C87.2984 19.4145 86.6682 19.4299 86.0271 19.4299C82.9402 19.4299 79.5282 19.0962 78.2316 17.982C79.7731 19.6925 84.6058 20.3781 87.8892 20.5098C87.2945 20.5339 86.6715 20.5493 86.0452 20.5493C83.2575 20.5493 80.3251 20.2749 78.9122 19.484C80.1545 20.6137 84.7738 21.567 87.8892 21.6329Z" fill="#D4D87E"/>
<mask id="mask0_1654_20509" style="mask-type:luminance" maskUnits="userSpaceOnUse" x="87" y="13" width="15" height="14">
<path d="M87.2418 13.0615H102V26.4821H87.2418V13.0615Z" fill="white"/>
</mask>
<g mask="url(#mask0_1654_20509)">
<path d="M95.131 13.0615C96.518 13.4712 97.8559 14.5877 97.8559 16.4417C97.8559 18.9944 94.219 21.0577 87.2787 21.0577H87.2418V26.4821H87.278C97.397 26.4821 102.002 22.1361 102.002 18.6615C102.002 16.2076 99.9488 13.9753 95.131 13.0615Z" fill="#1B4976"/>
</g>
<path d="M79.6435 20.1696C78.3069 19.7658 77.02 18.6719 77.02 16.8509C77.02 14.3479 80.5225 12.3213 87.2114 12.3213H87.2444V7H87.2108C77.4615 7 73.025 11.267 73.025 14.672C73.025 17.0865 75.0015 19.2734 79.6435 20.1696Z" fill="#0082BB"/>
<mask id="mask1_1654_20509" style="mask-type:luminance" maskUnits="userSpaceOnUse" x="42" y="24" width="43" height="16">
<path d="M42 24.4712H84.0765V39.0009H42V24.4712Z" fill="white"/>
</mask>
<g mask="url(#mask1_1654_20509)">
<path d="M79.1798 39.0001C79.0932 39.0001 79.0053 39.0001 78.9213 39.0001C76.9678 38.9961 75.0723 38.2488 73.5392 36.8783C72.8569 36.2611 72.3058 35.4781 71.9268 34.5873C71.5478 33.6965 71.3506 32.7207 71.3496 31.732C71.3487 30.7433 71.5441 29.7669 71.9215 28.8752C72.2988 27.9835 72.8484 27.1992 73.5296 26.5804C75.0928 25.1653 77.0462 24.4183 79.0473 24.4703C80.7519 24.5688 82.4401 24.8962 84.0765 25.4456V29.4177C82.5344 28.4915 80.8096 28.0242 79.0641 28.0598H79.0299C76.9493 28.0671 75.3807 29.6474 75.3807 31.7348C75.3807 33.8222 76.9487 35.4055 79.0273 35.4055C80.7723 35.3717 82.4919 34.9267 84.0765 34.0988V37.9092C82.5184 38.6146 80.8578 38.9846 79.1798 39.0001ZM48.4634 38.9767C44.3565 38.9767 42 36.68 42 32.675V24.6957H45.8955V32.5974C45.8955 34.4214 46.7971 35.3857 48.5021 35.3857C50.2072 35.3857 51.1133 34.4558 51.1133 32.6933V24.6957H55.0056V32.5791C55.053 33.486 54.9143 34.3929 54.6004 35.2289C54.2864 36.0649 53.8056 36.8073 53.1958 37.3978C51.8237 38.52 50.1538 39.0771 48.4634 38.9767ZM62.5968 38.7718H56.7326V24.6957H62.5955C67.1386 24.6957 70.4388 27.6559 70.4388 31.7348C70.4349 32.711 70.2325 33.673 69.8474 34.5464C69.4623 35.4198 68.9048 36.1812 68.218 36.7715C66.5941 38.1311 64.6145 38.8354 62.5955 38.7718H62.5968ZM60.6261 28.2295V35.238H62.5955C64.8732 35.238 66.4037 33.8303 66.4037 31.7348C66.4037 29.6394 64.8738 28.2295 62.5955 28.2295H60.6261Z" fill="#1B4976"/>
</g>
</g>
<defs>
<clipPath id="clip0_1654_20509">
<rect width="60" height="32" fill="white" transform="translate(42 7)"/>
</clipPath>
</defs>
</svg>
