<svg width="113" height="49" viewBox="0 0 113 49" fill="none" xmlns="http://www.w3.org/2000/svg">
<rect y="1.5" width="113" height="46" rx="6" fill="white"/>
<g clip-path="url(#clip0_2337_18477)">
<path d="M79.9796 20.9376C82.053 19.6367 77.2469 18.4639 71.7427 18.1141C72.2371 18.0922 72.7684 18.0841 73.3204 18.0841C76.1604 18.0841 79.5174 18.387 80.9471 19.295C79.9311 18.0483 74.9097 17.0598 71.7427 16.9918C72.305 16.9676 72.8996 16.9567 73.5098 16.9567C76.4829 16.9567 79.818 17.2771 81.4222 18.3468C80.0849 16.8857 75.0034 15.9389 71.7427 15.8665C72.3315 15.8446 72.9623 15.8292 73.6048 15.8292C76.6897 15.8292 80.1043 16.1606 81.3989 17.2749C79.8594 15.5636 75.0267 14.8759 71.7427 14.7464C72.3373 14.72 72.9584 14.7069 73.5867 14.7069C76.3743 14.7069 79.3061 14.979 80.7183 15.7677C79.478 14.6403 74.858 13.6869 71.7427 13.6211C75.3757 13.6211 80.4126 13.6869 82.203 15.4846C83.4653 16.7481 82.3568 19.7362 79.9789 20.9376" fill="#60BEEC"/>
<path d="M72.3892 23.1329C68.7561 23.1329 63.7179 23.067 61.9276 21.2694C60.6672 20.0065 61.7738 17.0185 64.1516 15.8164C62.0782 17.1173 66.8856 18.2901 72.3892 18.6398C71.8947 18.6618 71.3634 18.6728 70.8121 18.6728C67.9682 18.6728 64.6138 18.3699 63.1854 17.4619C64.2014 18.7057 69.2221 19.6941 72.3892 19.7673C71.8269 19.7892 71.2329 19.8002 70.6221 19.8002C67.6489 19.8002 64.3126 19.482 62.7103 18.4101C64.0476 19.8734 69.1291 20.8179 72.3892 20.8904C71.7984 20.9145 71.1682 20.9299 70.5271 20.9299C67.4402 20.9299 64.0282 20.5962 62.7316 19.482C64.2731 21.1925 69.1058 21.8781 72.3892 22.0098C71.7945 22.0339 71.1715 22.0493 70.5452 22.0493C67.7575 22.0493 64.8251 21.7749 63.4122 20.984C64.6545 22.1137 69.2738 23.067 72.3892 23.1329Z" fill="#D4D87E"/>
<mask id="mask0_2337_18477" style="mask-type:luminance" maskUnits="userSpaceOnUse" x="71" y="14" width="16" height="14">
<path d="M71.7417 14.5615H86.4995V27.9821H71.7417V14.5615Z" fill="white"/>
</mask>
<g mask="url(#mask0_2337_18477)">
<path d="M79.6309 14.5615C81.0179 14.9712 82.3558 16.0877 82.3558 17.9417C82.3558 20.4944 78.7189 22.5577 71.7785 22.5577H71.7417V27.9821H71.7779C81.8969 27.9821 86.5014 23.6361 86.5014 20.1615C86.5021 17.7076 84.4487 15.4753 79.6309 14.5615Z" fill="#1B4976"/>
</g>
<path d="M64.1436 21.6696C62.807 21.2658 61.5201 20.1719 61.5201 18.3509C61.5201 15.8479 65.0226 13.8213 71.7116 13.8213H71.7445V8.5H71.7109C61.9616 8.5 57.5251 12.767 57.5251 16.172C57.5251 18.5865 59.5016 20.7734 64.1436 21.6696Z" fill="#0082BB"/>
<mask id="mask1_2337_18477" style="mask-type:luminance" maskUnits="userSpaceOnUse" x="26" y="25" width="43" height="16">
<path d="M26.5 25.9707H68.5765V40.5005H26.5V25.9707Z" fill="white"/>
</mask>
<g mask="url(#mask1_2337_18477)">
<path d="M63.6798 40.4991C63.5932 40.4991 63.5053 40.4991 63.4213 40.4991C61.4678 40.4952 59.5723 39.7479 58.0392 38.3773C57.3569 37.7601 56.8058 36.9772 56.4268 36.0864C56.0478 35.1956 55.8506 34.2197 55.8496 33.231C55.8487 32.2423 56.0441 31.266 56.4215 30.3743C56.7988 29.4825 57.3484 28.6983 58.0296 28.0794C59.5928 26.6643 61.5462 25.9173 63.5473 25.9693C65.2519 26.0678 66.9401 26.3952 68.5765 26.9446V30.9167C67.0344 29.9905 65.3096 29.5232 63.5641 29.5588H63.5299C61.4493 29.5661 59.8807 31.1465 59.8807 33.2339C59.8807 35.3212 61.4487 36.9045 63.5273 36.9045C65.2723 36.8708 66.9919 36.4257 68.5765 35.5978V39.4082C67.0184 40.1137 65.3578 40.4836 63.6798 40.4991ZM32.9634 40.4757C28.8565 40.4757 26.5 38.179 26.5 34.174V26.1947H30.3955V34.0965C30.3955 35.9205 31.2971 36.8848 33.0021 36.8848C34.7072 36.8848 35.6133 35.9548 35.6133 34.1923V26.1947H39.5056V34.0782C39.553 34.985 39.4143 35.892 39.1004 36.728C38.7864 37.564 38.3056 38.3063 37.6958 38.8968C36.3237 40.019 34.6538 40.5762 32.9634 40.4757ZM47.0968 40.2708H41.2326V26.1947H47.0955C51.6386 26.1947 54.9388 29.1549 54.9388 33.2339C54.9349 34.21 54.7325 35.172 54.3474 36.0454C53.9623 36.9189 53.4048 37.6802 52.718 38.2705C51.0941 39.6301 49.1145 40.3344 47.0955 40.2708H47.0968ZM45.1261 29.7285V36.737H47.0955C49.3732 36.737 50.9037 35.3293 50.9037 33.2339C50.9037 31.1384 49.3738 29.7285 47.0955 29.7285H45.1261Z" fill="#1B4976"/>
</g>
</g>
<defs>
<clipPath id="clip0_2337_18477">
<rect width="60" height="32" fill="white" transform="translate(26.5 8.5)"/>
</clipPath>
</defs>
</svg>
