<svg width="91" height="46" viewBox="0 0 91 46" fill="none" xmlns="http://www.w3.org/2000/svg">
<path d="M81.1114 17.6849C84.2561 15.8352 76.9667 14.1676 68.6187 13.6703C69.3686 13.6391 70.1744 13.6277 71.0115 13.6277C75.3189 13.6277 80.4105 14.0584 82.5789 15.3494C81.0379 13.5767 73.422 12.1712 68.6187 12.0745C69.4715 12.0401 70.3734 12.0245 71.2987 12.0245C75.808 12.0245 80.8663 12.4802 83.2994 14.0011C81.2712 11.9236 73.5642 10.5775 68.6187 10.4745C69.5117 10.4433 70.4684 10.4214 71.4428 10.4214C76.1217 10.4214 81.3006 10.8927 83.2641 12.4771C80.929 10.0438 73.5995 9.06588 68.6187 8.88174C69.5205 8.84429 70.4626 8.82557 71.4154 8.82557C75.6434 8.82557 80.0899 9.21256 82.2318 10.334C80.3507 8.7309 73.3436 7.37537 68.6187 7.28174C74.1288 7.28174 81.7682 7.37537 84.4835 9.93142C86.398 11.728 84.7169 15.9767 81.1104 17.6849" fill="#60BEEC"/>
<path d="M69.599 20.8065C64.0889 20.8065 56.4476 20.7129 53.7322 18.1568C51.8206 16.3612 53.4989 12.1126 57.1053 10.4033C53.9606 12.253 61.2519 13.9206 69.599 14.4179C68.8491 14.4491 68.0433 14.4647 67.2071 14.4647C62.8939 14.4647 57.8062 14.034 55.6398 12.743C57.1808 14.5115 64.7956 15.917 69.599 16.021C68.7462 16.0522 67.8453 16.0678 66.9189 16.0678C62.4096 16.0678 57.3494 15.6153 54.9193 14.0912C56.9475 16.1719 64.6545 17.5149 69.599 17.6179C68.7031 17.6522 67.7473 17.6741 66.7748 17.6741C62.093 17.6741 56.9181 17.1997 54.9517 15.6153C57.2896 18.0476 64.6192 19.0223 69.599 19.2096C68.6972 19.2439 67.7522 19.2658 66.8023 19.2658C62.5743 19.2658 58.1268 18.8757 55.9839 17.7511C57.868 19.3573 64.8741 20.7129 69.599 20.8065Z" fill="#D4D87E"/>
<mask id="mask0_22658_47675" style="mask-type:luminance" maskUnits="userSpaceOnUse" x="68" y="8" width="23" height="20">
<path d="M68.6172 8.61865H91V27.7012H68.6172V8.61865Z" fill="white"/>
</mask>
<g mask="url(#mask0_22658_47675)">
<path d="M80.5825 8.61865C82.6862 9.20123 84.7154 10.7888 84.7154 13.4249C84.7154 17.0546 79.1993 19.9883 68.6731 19.9883H68.6172V27.7012H68.6721C84.0194 27.7012 91.0029 21.5217 91.0029 16.5812C91.0039 13.092 87.8895 9.91801 80.5825 8.61865Z" fill="#1B4976"/>
</g>
<path d="M57.093 18.7257C55.0658 18.1514 53.1141 16.5962 53.1141 14.0068C53.1141 10.4479 58.4262 7.56622 68.5711 7.56622H68.6211V0H68.5702C53.7836 0 47.0549 6.06712 47.0549 10.9088C47.0549 14.3418 50.0526 17.4513 57.093 18.7257Z" fill="#0082BB"/>
<mask id="mask1_22658_47675" style="mask-type:luminance" maskUnits="userSpaceOnUse" x="0" y="24" width="64" height="22">
<path d="M0 24.8413H63.8164V45.5009H0V24.8413Z" fill="white"/>
</mask>
<g mask="url(#mask1_22658_47675)">
<path d="M56.3898 45.5002C56.2584 45.5002 56.1251 45.5002 55.9977 45.5002C53.0349 45.4946 50.1599 44.432 47.8348 42.4832C46.7999 41.6056 45.9642 40.4924 45.3893 39.2258C44.8145 37.9592 44.5153 36.5716 44.5139 35.1658C44.5125 33.7599 44.8089 32.3717 45.3812 31.1038C45.9535 29.8359 46.787 28.7207 47.8201 27.8408C50.1911 25.8287 53.1538 24.7666 56.1888 24.8405C58.7741 24.9806 61.3346 25.4461 63.8164 26.2273V31.8751C61.4775 30.5582 58.8616 29.8938 56.2143 29.9443H56.1623C53.0068 29.9547 50.6277 32.2018 50.6277 35.1698C50.6277 38.1378 53.0058 40.3891 56.1584 40.3891C58.805 40.3411 61.4131 39.7083 63.8164 38.5311V43.9491C61.4534 44.9521 58.9347 45.4782 56.3898 45.5002ZM9.80283 45.4669C3.57411 45.4669 0 42.2013 0 36.5066V25.1609H5.90816V36.3964C5.90816 38.9899 7.27566 40.361 9.86164 40.361C12.4476 40.361 13.822 39.0388 13.822 36.5326V25.1609H19.7252V36.3704C19.7972 37.6598 19.5869 38.9493 19.1107 40.138C18.6345 41.3267 17.9054 42.3822 16.9805 43.2219C14.8994 44.8175 12.3667 45.6097 9.80283 45.4669ZM31.2387 45.1756H22.3446V25.1609H31.2367C38.1271 25.1609 43.1324 29.3701 43.1324 35.1698C43.1265 36.5578 42.8196 37.9257 42.2355 39.1676C41.6514 40.4095 40.8058 41.492 39.7642 42.3314C37.3013 44.2646 34.2989 45.266 31.2367 45.1756H31.2387ZM28.2498 30.1857V40.1509H31.2367C34.6912 40.1509 37.0125 38.1493 37.0125 35.1698C37.0125 32.1904 34.6922 30.1857 31.2367 30.1857H28.2498Z" fill="#1B4976"/>
</g>
</svg>
