<svg width="24" height="25" viewBox="0 0 24 25" fill="none" xmlns="http://www.w3.org/2000/svg">
<rect y="0.5" width="24" height="24" rx="12" fill="#1B4976"/>
<path d="M15.9524 8.96875H8.04669C7.50191 8.96875 7.05859 9.42113 7.05859 9.97702V15.0193C7.05859 15.5752 7.50192 16.0276 8.04669 16.0276H15.9529C16.4976 16.0276 16.9409 15.5752 16.9409 15.0193V9.9775C16.9409 9.42113 16.4976 8.96875 15.9524 8.96875ZM7.5524 11.475C8.58127 11.3583 9.3998 10.523 9.51424 9.47312H14.4844C14.5988 10.523 15.4173 11.3582 16.4462 11.475V13.5213C15.4178 13.6385 14.5993 14.4738 14.4848 15.5237H9.51424C9.39982 14.4738 8.58127 13.6386 7.5524 13.5218V11.475ZM16.4467 9.9775V10.9659C15.6911 10.8544 15.0931 10.2441 14.9837 9.47312H15.9524C16.2257 9.47312 16.4467 9.6986 16.4467 9.9775ZM8.04669 9.47312H9.01533C8.90647 10.2441 8.30843 10.8543 7.5524 10.9659V9.9775C7.5524 9.6986 7.77383 9.47312 8.04669 9.47312ZM7.5524 15.0193V14.0309C8.30795 14.1424 8.90599 14.7527 9.01533 15.5237H8.04669C7.77383 15.5237 7.5524 15.2977 7.5524 15.0193ZM15.9524 15.5237H14.9837C15.0926 14.7527 15.6906 14.1425 16.4467 14.0309V15.0193C16.4467 15.2977 16.2257 15.5237 15.9524 15.5237ZM10.7641 14.011C10.6274 14.011 10.5172 14.124 10.5172 14.263C10.5172 14.4024 10.6279 14.5149 10.7641 14.5149H11.7522V14.7669C11.7522 14.9063 11.8629 15.0188 11.9991 15.0188C12.1357 15.0188 12.246 14.9058 12.246 14.7669V14.5149H12.3697C12.9825 14.5149 13.4814 14.0058 13.4814 13.3805C13.4814 12.7546 12.9825 12.246 12.3697 12.246H12.246L12.2464 10.9858H13.2345C13.3712 10.9858 13.4814 10.8728 13.4814 10.7338C13.4814 10.5944 13.3707 10.4819 13.2345 10.4819H12.2464V10.2295C12.2464 10.09 12.1357 9.97751 11.9995 9.97751C11.8629 9.97751 11.7526 10.0905 11.7526 10.2295V10.4814H11.6289C11.0156 10.4814 10.5171 10.99 10.5171 11.6159C10.5171 12.2417 11.0156 12.7504 11.6289 12.7504H11.7526L11.7522 14.0111L10.7641 14.011ZM11.6289 12.2465C11.2885 12.2465 11.0114 11.9638 11.0114 11.6164C11.0114 11.2689 11.2885 10.9862 11.6289 10.9862H11.7526V12.2469L11.6289 12.2465ZM12.2464 12.7504H12.3701C12.7106 12.7504 12.9876 13.033 12.9876 13.3805C12.9876 13.7279 12.7106 14.0106 12.3701 14.0106H12.2464V12.7504Z" fill="white"/>
</svg>
