<svg width="27" height="27" viewBox="0 0 27 27" fill="none" xmlns="http://www.w3.org/2000/svg">
<path d="M25.6319 27.0002H1.34023C0.614271 27.0002 0 26.4443 0 25.7217V13.4932C0 12.7984 0.58635 12.2148 1.34023 12.2148C2.09411 12.2148 2.68045 12.7706 2.68045 13.4932V24.4711H24.3195V13.4932C24.3195 12.7984 24.9059 12.2148 25.6598 12.2148C26.4137 12.2148 27 12.7706 27 13.4932V25.7217C26.9442 26.4165 26.3578 27.0002 25.6319 27.0002Z" fill="#1B4976"/>
<path d="M19.6279 5.51691L14.4624 0.375376C13.9598 -0.124881 13.1222 -0.124881 12.5917 0.375376L7.37039 5.51691C7.1191 5.76704 6.97949 6.10054 6.97949 6.46184C6.97949 6.82314 7.1191 7.12885 7.37039 7.37898C7.62168 7.62911 7.95674 7.76807 8.2918 7.76807C8.65478 7.76807 8.98983 7.62911 9.24113 7.37898L12.0891 4.57198V17.7732C12.0891 18.5514 12.7034 19.1628 13.4852 19.1628C14.267 19.1628 14.8812 18.5514 14.8812 17.7732V4.5164L17.7572 7.37898C18.2597 7.87924 19.0974 7.87924 19.6279 7.37898C19.8792 7.12885 20.0188 6.79535 20.0188 6.46184C20.0188 6.10054 19.8792 5.76704 19.6279 5.51691Z" fill="#1B4976"/>
</svg>
