<svg width="67" height="67" viewBox="0 0 67 67" fill="none" xmlns="http://www.w3.org/2000/svg">
<path d="M54.9992 14.5247V59.696C54.9992 60.7738 54.1311 61.6417 53.0529 61.6417H17.208C16.1298 61.6417 15.2617 60.7738 15.2617 59.696V7.94571C15.2617 6.86787 16.1298 6 17.208 6H46.472L54.9992 14.5247Z" fill="white"/>
<path d="M54.9984 14.5244V59.6957C54.9984 60.7735 54.1303 61.6414 53.0522 61.6414H50.2798C51.3579 61.6414 52.2261 60.7735 52.2261 59.6957V14.5244L43.7129 6.01367H46.4853L54.9984 14.5244Z" fill="#E5E5E5"/>
<path d="M54.9998 14.5244H48.4189C47.3408 14.5244 46.4727 13.6565 46.4727 12.5787V6.01367L54.9998 14.5244Z" fill="#CECECE"/>
<path d="M31.5187 24.9727H12V17.0778C12 16.4759 12.4761 16 13.0781 16H31.5187C32.1208 16 32.5968 16.4759 32.5968 17.0778V23.8948C32.5968 24.4967 32.1068 24.9727 31.5187 24.9727Z" fill="#FD9301"/>
<path d="M32.5968 23.8056V23.9456C32.5968 24.5475 32.1068 25.0234 31.5187 25.0234H12V17.1286C12 16.5267 12.4901 16.0508 13.0781 16.0508H13.6382V18.8504C13.6382 21.58 15.8505 23.8056 18.5949 23.8056H32.5968Z" fill="#FFA01D"/>
<path d="M12 25.0234L15.2624 28.7469V25.0234H12Z" fill="#AB6300"/>
<path d="M29.3617 27.655H15.2617V25.0234H31.56V25.4434C31.56 26.6612 30.5798 27.655 29.3617 27.655Z" fill="#E5E5E5"/>
<rect x="19" y="49" width="6" height="6" rx="1" fill="#D9D9D9"/>
<rect x="19" y="37" width="6" height="6" rx="1" fill="#D9D9D9"/>
<rect x="25" y="43" width="6" height="6" rx="1" fill="#D9D9D9"/>
<rect x="25" y="31" width="6" height="6" rx="1" fill="#D9D9D9"/>
<rect x="31" y="49" width="6" height="6" rx="1" fill="#D9D9D9"/>
<rect x="31" y="37" width="6" height="6" rx="1" fill="#D9D9D9"/>
<rect x="37" y="43" width="6" height="6" rx="1" fill="#D9D9D9"/>
<rect x="37" y="31" width="6" height="6" rx="1" fill="#D9D9D9"/>
<rect x="43" y="49" width="6" height="6" rx="1" fill="#D9D9D9"/>
<rect x="43" y="37" width="6" height="6" rx="1" fill="#D9D9D9"/>
<path fill-rule="evenodd" clip-rule="evenodd" d="M27.3026 17.9502C26.412 17.9502 25.7297 18.2002 25.2645 18.7064C24.8029 19.2086 24.5726 19.8114 24.5726 20.5121C24.5726 21.2121 24.7893 21.8029 25.2245 22.2809C25.667 22.7609 26.2629 23 27.0066 23C27.348 23 27.6465 22.9472 27.8998 22.8403C28.122 22.7441 28.3104 22.6228 28.4642 22.4761L28.5572 22.926H29.4806V21.1059H29.7366V20.1773H27.2846V21.1059H28.3005C28.2969 21.4033 28.1968 21.6283 28.0052 21.7873C27.8085 21.9505 27.5416 22.0345 27.1986 22.0345C26.7898 22.0345 26.4595 21.9082 26.2031 21.657C25.9538 21.4075 25.8246 21.0239 25.8246 20.4973C25.8246 19.9511 25.9617 19.5556 26.2264 19.3013C26.4991 19.0445 26.8406 18.9158 27.2546 18.9158C27.4261 18.9158 27.6145 18.9375 27.8196 18.9812C28.0202 19.023 28.1847 19.082 28.3146 19.1573L28.4639 19.7406L29.4227 19.6585L29.27 18.552L29.2579 18.5409C29.08 18.3763 28.8137 18.2377 28.4634 18.1231C28.1158 18.0076 27.7287 17.9502 27.3026 17.9502ZM16.3842 18.0242H13.9502V18.9602H14.5102V21.9901H13.9502V22.926H16.4822V21.9901H15.6822V21.3131H16.4322C16.9542 21.3131 17.413 21.177 17.8063 20.9042C18.2109 20.6223 18.4102 20.1976 18.4102 19.639C18.4102 19.1448 18.2379 18.7492 17.8897 18.4579C17.5413 18.1663 17.0367 18.0242 16.3842 18.0242ZM20.1015 18.0242H18.6124V18.9602H19.2604V21.9901H18.7004V22.926H21.0804V21.9901H20.3604V19.9227L23.1114 22.9337L23.7844 22.9254V18.9602H24.3444V18.0242H21.9324V18.9602H22.6844V20.8354L20.1015 18.0242ZM15.6822 20.3845V18.9602H16.2482C16.6022 18.9602 16.8334 19.0249 16.9575 19.1396C17.0892 19.2569 17.1582 19.4259 17.1582 19.6538C17.1582 19.8763 17.0888 20.0523 16.955 20.1853C16.831 20.3132 16.5962 20.3845 16.2322 20.3845H15.6822Z" fill="white"/>
</svg>
