<svg width="67" height="67" viewBox="0 0 67 67" fill="none" xmlns="http://www.w3.org/2000/svg">
<path d="M54.9992 14.5247V59.696C54.9992 60.7738 54.1311 61.6417 53.0529 61.6417H17.208C16.1298 61.6417 15.2617 60.7738 15.2617 59.696V7.94571C15.2617 6.86787 16.1298 6 17.208 6H46.472L54.9992 14.5247Z" fill="white"/>
<path d="M54.9984 14.5244V59.6957C54.9984 60.7735 54.1303 61.6414 53.0522 61.6414H50.2798C51.3579 61.6414 52.2261 60.7735 52.2261 59.6957V14.5244L43.7129 6.01367H46.4853L54.9984 14.5244Z" fill="#E5E5E5"/>
<path d="M54.9998 14.5244H48.4189C47.3408 14.5244 46.4727 13.6565 46.4727 12.5787V6.01367L54.9998 14.5244Z" fill="#CECECE"/>
<path d="M31.5187 24.9727H12V17.0778C12 16.4759 12.4761 16 13.0781 16H31.5187C32.1208 16 32.5968 16.4759 32.5968 17.0778V23.8948C32.5968 24.4967 32.1068 24.9727 31.5187 24.9727Z" fill="#5E69C2"/>
<path d="M32.5968 23.8056V23.9456C32.5968 24.5475 32.1068 25.0234 31.5187 25.0234H12V17.1286C12 16.5267 12.4901 16.0508 13.0781 16.0508H13.6382V18.8504C13.6382 21.58 15.8505 23.8056 18.5949 23.8056H32.5968Z" fill="#7580DA"/>
<path d="M12 25.0234L15.2624 28.7469V25.0234H12Z" fill="#2E3995"/>
<path d="M29.3617 27.655H15.2617V25.0234H31.56V25.4434C31.56 26.6612 30.5798 27.655 29.3617 27.655Z" fill="#E5E5E5"/>
<path d="M44.5034 33.8276H21.4142C20.6301 33.8276 20 33.1977 20 32.4138C20 31.6299 20.6301 31 21.4142 31H44.4894C45.2735 31 45.9036 31.6299 45.9036 32.4138C45.9036 33.1977 45.2735 33.8276 44.5034 33.8276Z" fill="#CECECE"/>
<path d="M20 53.7027L20 32.3103C20 31.5838 20.6683 31 21.5 31C22.3317 31 23 31.5838 23 32.3103L23 53.6897C23 54.4162 22.3317 55 21.5 55C20.6683 55 20 54.4162 20 53.7027Z" fill="#CECECE"/>
<path d="M27 53.7027L27 32.3103C27 31.5838 27.6683 31 28.5 31C29.3317 31 30 31.5838 30 32.3103L30 53.6897C30 54.4162 29.3317 55 28.5 55C27.6683 55 27 54.4162 27 53.7027Z" fill="#CECECE"/>
<path d="M43 53.7027L43 32.3103C43 31.5838 43.6683 31 44.5 31C45.3317 31 46 31.5838 46 32.3103L46 53.6897C46 54.4162 45.3317 55 44.5 55C43.6683 55 43 54.4162 43 53.7027Z" fill="#CECECE"/>
<path d="M44.5034 40.7983H21.4142C20.6301 40.7983 20 40.1684 20 39.3845C20 38.6006 20.6301 37.9707 21.4142 37.9707H44.4894C45.2735 37.9707 45.9036 38.6006 45.9036 39.3845C45.9036 40.1684 45.2735 40.7983 44.5034 40.7983Z" fill="#CECECE"/>
<path d="M44.5034 48.0209H21.4142C20.6301 48.0209 20 47.391 20 46.6071C20 45.8233 20.6301 45.1934 21.4142 45.1934H44.4894C45.2735 45.1934 45.9036 45.8233 45.9036 46.6071C45.9036 47.391 45.2735 48.0209 44.5034 48.0209Z" fill="#CECECE"/>
<path d="M44.5034 55.2592H21.4142C20.6301 55.2592 20 54.6293 20 53.8454C20 53.0615 20.6301 52.4316 21.4142 52.4316H44.4894C45.2735 52.4316 45.9036 53.0615 45.9036 53.8454C45.9036 54.6293 45.2735 55.2592 44.5034 55.2592Z" fill="#CECECE"/>
<path fill-rule="evenodd" clip-rule="evenodd" d="M27.9036 19.6786L27.895 19.6793L27.8951 19.6795L27.9036 19.6786ZM28.7507 19.6029L28.7509 19.6061L28.7469 19.6064L28.7511 19.6062L28.7507 19.6029ZM28.7029 18.5733L28.7029 18.5734L28.7031 18.5733L28.7029 18.5733ZM27.0151 18C26.5368 18 26.0959 18.1121 25.6933 18.3362C25.2795 18.5616 25.0771 18.9529 25.0771 19.4963C25.0771 19.8444 25.1643 20.1165 25.3462 20.3038C25.5228 20.4807 25.7407 20.6094 25.9989 20.6899L26.0001 20.6902C26.2581 20.764 26.5134 20.8207 26.7663 20.8601C27.0509 20.9084 27.2971 20.9782 27.5056 21.0689L27.5065 21.0692C27.6041 21.1094 27.6756 21.1688 27.7234 21.2475C27.7715 21.3269 27.7971 21.4285 27.7971 21.555C27.7971 21.6697 27.7753 21.7599 27.7351 21.8281C27.6955 21.8953 27.6366 21.9437 27.5566 21.974C27.383 22.0346 27.1578 22.066 26.8791 22.066C26.7914 22.066 26.6846 22.0589 26.5583 22.0445C26.444 22.0269 26.304 21.9798 26.1374 21.9011L26.1456 21.3082L25.1954 21.2269L25.0262 22.4742L25.0457 22.4902C25.2559 22.6624 25.5386 22.7897 25.8906 22.874C26.2465 22.958 26.6027 23 26.9591 23C27.6007 23 28.1115 22.8692 28.4858 22.6021C28.8628 22.333 29.0491 21.9424 29.0491 21.4378C29.0491 21.026 28.9381 20.7137 28.706 20.5112C28.4867 20.3105 28.2285 20.1746 27.9321 20.1042C27.6491 20.0308 27.4002 19.9744 27.1855 19.9351C26.9539 19.8869 26.7497 19.8244 26.5724 19.748C26.4895 19.7122 26.4296 19.6637 26.39 19.6029C26.3503 19.5419 26.3291 19.4656 26.3291 19.3718C26.3291 19.2141 26.3915 19.1121 26.5104 19.0533C26.6454 18.9893 26.8155 18.9561 27.0231 18.9561C27.1469 18.9561 27.274 18.9703 27.4038 18.9988C27.5293 19.0253 27.6534 19.0752 27.7761 19.1491L27.8511 19.7292L28.803 19.6478L28.7522 18.5543L28.7395 18.5419C28.5669 18.3736 28.3215 18.2433 28.007 18.1489C27.6923 18.0496 27.3616 18 27.0151 18ZM17.308 18.0733H15.12V19H15.6273L17.0003 20.4421L15.5865 22H15V22.9268H17.276V22H16.8964L17.6196 21.1513L18.406 22H18.096V22.9268H20.316V22H19.8249L18.3401 20.4268L19.6888 19H20.196V18.0733H18.048V19H18.3697L17.7204 19.74L17.0159 19H17.308V18.0733ZM23.0521 18.0733H20.5921V19H21.1521V22H20.5921V22.9268H24.592L24.7603 21.1544L23.7521 21.0734L23.5914 22H22.3241V19H23.0521V18.0733Z" fill="white"/>
</svg>
